<svg xmlns:xlink="http://www.w3.org/1999/xlink" x="0px" y="0px" viewBox="0 0 107 93" enable-background="new 0 0 107 93" xml:space="preserve">
  <path fill="#287AFB" d="M0,83.1c5.9-5.6,10.6-6.9,14.5-8c3.1-0.9,5.4-1.5,8.8-4.7c3.4-3.2,4.2-5.5,5.2-8.5c1.3-3.8,2.9-8.5,8.7-14s10.6-6.9,14.5-8c3.1-0.9,5.4-1.5,8.8-4.7c3.4-3.2,4.2-5.5,5.2-8.5c1.3-3.8,2.9-8.5,8.7-14c5.9-5.6,10.6-6.9,14.5-8C92,3.9,94.2,3.2,97.6,0l9.3,9.9c-5.9,5.6-10.6,6.9-14.5,8c-3.1,0.9-5.4,1.5-8.8,4.7c-3.4,3.2-4.2,5.5-5.2,8.5c-1.3,3.8-2.9,8.5-8.7,14c-5.9,5.6-10.6,6.9-14.5,8c-3.1,0.9-5.4,1.5-8.8,4.7c-3.4,3.2-4.2,5.5-5.2,8.5c-1.3,3.8-2.9,8.5-8.7,14c-5.9,5.6-10.6,6.9-14.5,8c-3.1,0.9-5.4,1.5-8.8,4.7L0,83.1z"/>
</svg>
