<svg xmlns="http://www.w3.org/2000/svg" width="201.9" height="54.8" viewBox="0 0 201.9 54.8">
  <path d="M196.3 29.4c3.6-3.7 5.6-8.3 5.6-12.6 0-.9-.2-1.5-2.1-1.5h-4.7c-1.6 0-2.6.2-2.8 1.1-.6 2.3-2 5.3-2.7 6.2l-2.6-6.2c-.3-.7-.8-1.1-1.8-1.1h-5.4c-2 0-2.5.5-2.5 1.5-.1 1.7-.5 4.9-.5 5.6 0 .7 0 1.1.5 1.4l6.7 5.4c-2.6 2.4-6.6 4.2-8.4 5.3-.5.3-.7.9-.8 1.6-.2 1.7-.1 3.9-.1 4.3 0 .7.3 1.3 1.4 1.3h4c1.8 0 2.8-.3 4.3-1.3 1.7-1.1 3.1-2 4.6-3.8l.9 4c.1.7.7 1.1 1.7 1.1h6c1.5 0 2.7-.5 2.9-1.6.2-1.6.5-4.6.5-5.1 0-.7-.6-1.5-1.2-2.1l-3.5-3.5zm-33.5-13.9c-7.3 0-14.1 5.1-14.1 14.7 0 8.1 4.9 11.7 11.1 11.7 7.4 0 14-5.1 14-14.6 0-8.1-4.8-11.8-11-11.8zm-2.2 18.6c-1.5 0-1.9-1.5-1.9-3.9 0-3.3.7-6.8 3.2-6.8 1.6 0 2 1.1 2 3.6-.1 3.8-1.1 7.1-3.3 7.1zm-11.5-21.8h-18.7c-.5 0-2 0-2.3 2.4-1.2 9.4-3.3 24.8-3.3 25.4 0 1.5 3.4 1.6 5 1.6 1.8 0 5 0 5.2-1.6l1.2-8.6c0-.1.1-.2.2-.2l8.2-1c.9-.1 1.6-2.3 1.6-3.9 0-1-.1-2.5-.8-2.6l-7.8-.9c-.1 0-.2 0-.2-.2s.3-1.9.3-2.2c0-.1.2-.2.3-.2h10.2c.9 0 1.7-3.8 1.7-5.1.1-1.4-.2-2.9-.8-2.9zm-26.6 11.8l-4.1-.9c-.1 0-.2-.1-.2-.3 0-.3.8-3.7.8-5.1 0-1.1.1-2.5-1-2.7-.4-.1-6.9 0-6.9 0-.5 0-2-.1-2.3 2.4-.2 1.8-.5 3.3-.8 5.3 0 0-.1.1-.2.1-1 .3-2.8.5-2.8.5-.7-.1-1.3 1.3-1.7 2.3-.5 1.6-.6 3.9.2 4.3l3.1 1.3c-.8 4.8-1.4 8.8-1.4 9.5 0 1.6 3.5 1.7 5.1 1.7 1.8 0 5.1.1 5.4-1.6l1.2-8.8c0-.2.1-.3.2-.3l4.5-1c.9-.1 1.6-2.3 1.6-4 .1-1-.1-2.5-.7-2.7zm-22.8-3.3c-1.8-.5-7-.4-7-.4-.5 0-1.9 0-2.3 2.4-1.5 9.5-3 17.5-3 18.1 0 1.6 3.5 1.7 5.1 1.7 1.8 0 5.1.1 5.3-1.6 0 0 2.8-16.5 2.8-17.9 0-1.1.2-2-.9-2.3zm-2.9-2.4c1.9 0 3.4-1.4 3.4-3.2 0-1.8-1.5-3.2-3.3-3.3-1.9 0-3.4 1.4-3.4 3.2-.1 1.8 1.4 3.3 3.3 3.3zm-10.2-6.2c-.2-.1-.5-.2-1-.2-1.5-.1-5.2 0-5.9.1-1.4.2-1.9 1.7-2.2 4-.4 2.6-.9 4.3-1.5 7.3l-5.5-.4c-.1 0-.2-.1-.2-.2 0-.2 1-5 1.1-6.3 0-.8.4-2.3 0-3.1-.2-.4-.2-.6-.8-1-.3-.1-.3-.1-.7-.2-.3-.1-6-.1-6-.1h-.3c-.7.1-1.9 1.6-2.3 4.1-1.5 9.3-4.3 24.6-4.3 25.2-.1 1.5 3.4 1.4 5 1.4 1.8 0 5 .3 5.3-1.3l1.5-9.8c0-.1.1-.2.2-.2l5.8-.5c-.9 5.4-1.7 10.1-1.7 10.4C73 42.9 76.4 43 78 43c1.8 0 5 .1 5.3-1.6 0 0 4.2-27.3 4.1-28.1.1-.6-.3-1-.8-1.1zM51.6 0S48-.4 37.9 5.5c0 0-7.2-.7-12.4-.7s-12.3.7-12.3.7C3.2-.4.1 0 .1 0c-.5 4.1 2 15.5 2 15.5-6 19 6.9 25.9 8.5 25.4 1.6-.5 1.6-1 2.3-1 3.8-.1 4.7 10.3 7.3 12.7 2.4 2.4 5.3 2.2 5.5 2.2.2 0 3 .2 5.5-2.2 2.5-2.4 3.4-12.8 7.3-12.7.7 0 .7.5 2.3 1 1.6.5 14.4-6.4 8.5-25.4-.2 0 2.8-11.4 2.3-15.5zm-33 24.8h-1.9v2c0 1-.7 1.7-1.7 1.7-.9 0-1.7-.8-1.7-1.7v-2h-1.9c-1 0-1.7-.7-1.7-1.7 0-.9.8-1.7 1.7-1.7h1.9v-2c0-1 .7-1.7 1.7-1.7.9 0 1.7.8 1.7 1.7v2h1.9c1 0 1.7.7 1.7 1.7 0 .9-.8 1.7-1.7 1.7zm14.4-.2c-1 0-1.8-.8-1.8-1.8S32 21 33 21s1.8.8 1.8 1.8c.1 1-.7 1.8-1.8 1.8zm3.8 3.9c-1 0-1.8-.8-1.8-1.8s.8-1.8 1.8-1.8 1.8.8 1.8 1.8c.1 1-.8 1.8-1.8 1.8zm0-7.5c-1 0-1.8-.8-1.8-1.8s.8-1.8 1.8-1.8 1.8.8 1.8 1.8c.1 1-.8 1.8-1.8 1.8zm4 3.6c-1 0-1.8-.8-1.8-1.8s.8-1.8 1.8-1.8 1.8.8 1.8 1.8-.8 1.8-1.8 1.8z"/>
</svg>
