<svg xmlns="http://www.w3.org/2000/svg" width="494.4" height="38.2" viewBox="-97.2 477.9 494.4 38.2">
  <path d="M96.2 496.5c0-6.9-5-13-14.1-13s-14 6.1-14 13v.9c0 6.9 5 13.1 14 13.1 9.1 0 14.1-6.2 14.1-13.1v-.9zm-14.1 19.6c-12.6 0-20.7-9.1-20.7-18.5v-1.2c0-9.6 8.2-18.5 20.7-18.5 12.6 0 20.8 8.9 20.8 18.5v1.2c0 9.4-8.2 18.5-20.8 18.5zm-157.5-30l-7.7 14.9h15.7l-8-14.9zm15.3 28.6l-4.7-8.8h-20.9l-4.5 8.8h-7l19.2-35.5h5.5l19.5 35.5h-7.1zm37.5 1.4c-12.7 0-18.7-6.9-18.7-16.2v-20.7h6.6V500c0 6.6 4.3 10.5 12.5 10.5 8.4 0 11.9-3.9 11.9-10.5v-20.9h6.7v20.7c0 8.9-5.6 16.3-19 16.3m56.1-31.4v30h-6.7v-30H11.4v-5.5h37.7v5.5H33.5zm128.8 30v-28.1l-1.8 3.1-14.9 25h-3.3l-14.7-25-1.8-3.1v28.1h-6.5v-35.5h9.2l14 24.4 1.7 3 1.7-3 13.9-24.4h9.1v35.5h-6.6zm41.8-28.6l-7.7 14.9h15.7l-8-14.9zm15.3 28.6l-4.7-8.8h-20.9l-4.5 8.8h-7l19.2-35.5h5.5l19.5 35.5h-7.1zm34-30v30h-6.7v-30h-15.5v-5.5h37.7v5.5h-15.5zm48.9 0v30h-6.7v-30h-15.5v-5.5h37.7v5.5h-15.5zm31.9 30v-32.2c2.7 0 3.7-1.4 3.7-3.4h2.8v35.5h-6.5zm58.8-25.5c-3.2-2.9-7.9-5.7-14.2-5.7-9.5 0-14.8 6.5-14.8 13.3v.7c0 6.7 5.4 13 15.3 13 5.9 0 10.8-2.8 13.9-5.7l4 4.2c-3.9 3.8-10.5 7.1-18.3 7.1-13.4 0-21.6-8.7-21.6-18.3v-1.2c0-9.6 8.9-18.7 21.9-18.7 7.5 0 14.3 3.1 18 7.1l-4.2 4.2zm-306.5 1.1c1.2.8 1.5 2.4.8 3.6l-6.1 9.4c-.8 1.2-2.4 1.6-3.6.8-1.2-.8-1.5-2.4-.8-3.6l6.1-9.4c.8-1.3 2.4-1.6 3.6-.8"/>
</svg>
