<svg xmlns="http://www.w3.org/2000/svg" width="300" height="63.6" viewBox="-349 469.4 300 63.6">
  <path d="M-337.8 481.2v33.6h14.5v-33.6h-14.5zm9.7 27.2h-4.8v-20.7h4.8v20.7zm-20.9-15.5h9.6v10.2h-9.6v-10.2zm20.8-23.7v10.4h6.4v35.2h11.2v-45.6h-17.6zm30.5 33.3v12.4H-309v-12.4h11.3zm-11.2-1.6h11.3v-12.4h-7v-6.4h-4.3v18.8zm-40.1 3.8h9.6v10.2h-9.6v-10.2zm61.8 10h23.7v-4.1h-18.3v-5.4h16.7v-3.8h-16.7v-4.7h18.3v-3.9h-23.7v21.9zm44.4-17.9h10.6v-3.9h-26.4v3.9h10.5v17.9h5.3v-17.9zm20.8-.1h18.3v-3.9h-23.7v21.8h23.7v-4.1H-222v-5.4h16.8v-3.8H-222v-4.6zm44.1 18h5.4v-4.2h-19.6v-13.6h19.6v-4h-19.3c-2.2 0-3.7.4-4.5 1.1-.8.7-1.2 2.1-1.2 4.1v11.5c0 2 .4 3.4 1.2 4.1.8.7 2.3 1.1 4.5 1.1h13.6c.1-.1.2-.1.3-.1m26.1-17.9h10.6v-3.9h-26.4v3.9h10.5v17.9h5.3v-17.9zm41.1 16.8c.8-.7 1.2-2.1 1.2-4.1v-16.7h-5.4v17.7H-130v-17.7h-5.4v16.7c0 2 .4 3.4 1.2 4.1.8.7 2.3 1.1 4.5 1.1h14.5c2.2 0 3.7-.4 4.5-1.1m27.3-10.9H-98v-6.1h14.6v6.1zm4.9 12l-4.5-8.3c3-.2 4.5-1.5 4.5-4.1v-5.2c0-2.8-1.7-4.2-5.1-4.2h-19.7v21.8h5.3v-8.3h9.8l4.4 8.2 5.3.1zm11.6-4.1v-5.4h16.8v-3.8h-16.8v-4.7h18.3v-3.9h-23.7v21.8h23.7v-4.1h-18.3zm-87.8 19.2c0 2.2 1.8 3.2 4.1 3.2 1.9 0 3.9-.8 3.9-2.8 0-.9-.6-1.9-1.9-2.3-.5-.1-2.7-.7-2.8-.7-.7-.2-1.2-.5-1.2-1.2 0-.9 1-1.2 1.8-1.2 1.2 0 2 .4 2.1 1.6h1.7c0-1.9-1.7-2.9-3.7-2.9-1.8 0-3.6.8-3.6 2.7 0 .9.5 1.9 2.2 2.3 1.3.3 2.2.5 2.9.8.4.1.8.4.8 1.1 0 .7-.6 1.4-2.1 1.4-1.4 0-2.5-.5-2.5-1.9l-1.7-.1zm-10.4-4.7h3.1v7.7h1.7v-7.7h3.1v-1.4h-7.9v1.4zm-2.8 1.5c-.2-2-1.9-3.1-4.1-3.1-2.9 0-4.7 2.2-4.7 4.7 0 2.6 1.7 4.7 4.7 4.7 2.4 0 4-1.5 4.1-3.7h-1.7c-.1 1.3-1 2.4-2.5 2.4-2.1 0-3-1.7-3-3.4s.9-3.4 3-3.4c1.4 0 2.1.8 2.4 1.8h1.8zm-19.3 6.2h7.1v-1.4h-5.4v-2.6h4.9v-1.3h-4.9v-2.4h5.3v-1.4h-7v9.1zm-11.9-7.7h3.1v7.7h1.7v-7.7h3.1v-1.4h-7.9v1.4zm-5.6-1.4h1.7v9h-1.7v-9zm-12.7 9.1h1.7v-4.1h4.4v4.1h1.7v-9h-1.7v3.6h-4.4v-3.6h-1.7v9zm-4.4-6.2c-.2-2-1.9-3.1-4.1-3.1-2.9 0-4.7 2.2-4.7 4.7 0 2.6 1.7 4.7 4.7 4.7 2.4 0 4-1.5 4.1-3.7h-1.7c-.1 1.3-1 2.4-2.5 2.4-2.1 0-3-1.7-3-3.4s.9-3.4 3-3.4c1.4 0 2.1.8 2.4 1.8h1.8zm-49.8 6.2h6.7v-1.4h-4.9v-7.7h-1.7v9.1zm-22.4-7.7h3.1v7.7h1.7v-7.7h3.1v-1.4h-7.9v1.4zm-5.7-1.4h1.7v9h-1.7v-9zm-4.7 4.3h-4.1v1.2h2.6c0 1.5-1 2.5-2.7 2.5-2.1 0-3-1.7-3-3.4s.9-3.4 3-3.4c1.2 0 2.3.6 2.5 1.8h1.7c-.3-2-2-3.1-4.2-3.1-2.9 0-4.7 2.2-4.7 4.7 0 2.6 1.7 4.7 4.7 4.7 1.2 0 2-.3 2.9-1.3l.3 1.1h1.1c-.1 0-.1-4.8-.1-4.8zm-15.1-4.3h1.7v9h-1.7v-9zm77 9.1h1.7v-3.7h2.5c1.6 0 1.9.7 1.9 2.4 0 .4 0 .9.3 1.3h1.8c-.4-.4-.5-1.3-.5-2.4 0-1.4-.9-1.8-1.4-1.9.3-.1 1.6-.5 1.6-2.3 0-1.5-1.1-2.4-3.2-2.4h-4.6l-.1 9zm1.7-7.8h2.8c.9 0 1.7.2 1.7 1.4 0 .9-.6 1.4-1.7 1.4h-2.8V525zm-14.7 7.8h1.8l.9-2.4h3.9l.9 2.4h1.8l-3.7-9h-1.8l-3.8 9zm4.6-7.5l1.5 3.9h-3l1.5-3.9zm-33.7 7.5h1.8l.9-2.4h3.9l.9 2.4h1.8l-3.7-9h-1.8l-3.8 9zm4.6-7.5l1.5 3.9h-3l1.5-3.9zm-52.1 7.5h4c3 0 4.3-2 4.3-4.5s-1.3-4.5-4.3-4.5h-4v9zm1.7-7.8h1.7c2.7 0 3.2 1.4 3.2 3.2 0 1.8-.6 3.2-3.2 3.2h-1.7V525z"/>
</svg>
