<?xml version="1.0" encoding="utf-8"?>
<!-- Generator: Adobe Illustrator 19.1.0, SVG Export Plug-In . SVG Version: 6.00 Build 0)  -->
<svg version="1.1" id="Namely__x2B__Grad_copy_2" xmlns="http://www.w3.org/2000/svg" xmlns:xlink="http://www.w3.org/1999/xlink"
	 x="0px" y="0px" viewBox="-61.2 199.5 334.9 105.5" style="enable-background:new -61.2 199.5 334.9 105.5;" xml:space="preserve">
<style type="text/css">
	.st0{fill:#010101;}
	.st1{display:none;fill:none;stroke:#656565;stroke-width:0.5;stroke-miterlimit:10;}
</style>
<g>
	<g>
		<path class="st0" d="M-18.2,289.3h-7.7c-1.6,0-2.8-0.3-4.1-2.4L-47.7,256c-0.3-0.5-0.5-0.6-0.7-0.6s-0.4,0.2-0.4,0.6v31.7
			c0,0.9-0.7,1.6-1.6,1.6h-9.2c-0.9,0-1.6-0.7-1.6-1.6v-53.6c0-1.6,1.3-3,3-3h7.9c1.6,0,2.3,0.8,3.3,2.4l18.5,32.2
			c0.3,0.5,0.4,0.6,0.6,0.6c0.2,0,0.4-0.2,0.4-0.7v-32.9c0-0.9,0.7-1.5,1.6-1.5h9.2c0.9,0,1.6,0.6,1.6,1.5v53.6
			C-15.1,287.9-16.5,289.3-18.2,289.3z"/>
		<path class="st0" d="M27.2,289.3h-8.8c-0.9,0-1.6-0.7-1.6-1.6v-1.3c-3,2.2-6.2,3.5-10.9,3.5c-6.8,0-13.4-3.3-13.4-13.4v-0.7
			c0-9.1,5.9-13.2,19.2-13.2h4.2v-2.8c0-4.5-2.2-5.4-5.9-5.4c-5,0-10.6,0.3-13,0.5h-0.4c-0.8,0-1.4-0.4-1.4-1.4v-6.3
			c0-0.9,0.5-1.5,1.5-1.7c2.9-0.7,8.4-1.6,13.5-1.6c11.3,0,18.3,4.5,18.3,15.9v27.9C28.8,288.6,28.1,289.3,27.2,289.3z M16.4,270.1
			h-4.5c-5.5,0-6.9,1.9-6.9,5.7v0.7c0,3.3,1.6,3.9,4.9,3.9c2.3,0,4.5-0.8,6.4-1.7L16.4,270.1L16.4,270.1z"/>
		<path class="st0" d="M94.8,289.3h-9.5c-0.9,0-1.6-0.8-1.6-1.6V261c0-5-1.2-6.5-4.8-6.5c-1.3,0-3.7,0.3-6,1.4
			c0.2,1.6,0.2,3.4,0.2,5.1v26.7c0,0.9-0.7,1.6-1.6,1.6H62c-0.9,0-1.6-0.8-1.6-1.6V261c0-5-0.9-6.5-4.5-6.5c-1.5,0-3.5,0.8-5.9,2
			v31.1c0,0.9-0.7,1.6-1.6,1.6H39c-0.9,0-1.6-0.8-1.6-1.6V246c0-0.9,0.7-1.6,1.6-1.6h8.9c0.9,0,1.6,0.7,1.6,1.6v1.7
			c3.3-2.2,7-3.9,11.6-3.9c4.1,0,7,1.2,9.2,3.8c4.5-2.6,7.7-3.8,12.7-3.8c10.3,0,13.4,6.9,13.4,17.1v26.7
			C96.4,288.5,95.6,289.3,94.8,289.3z"/>
		<path class="st0" d="M141.3,270.8h-24.9v0.2c0,4.5,1.9,8.5,8.1,8.5c4.9,0,11.9-0.4,15-0.7c0.1,0,0.2,0,0.2,0
			c0.9,0,1.5,0.4,1.5,1.2v5.9c0,1.3-0.3,1.8-1.6,2.1c-5,1.3-9.2,1.9-16,1.9c-9.5,0-19.6-5-19.6-20.1v-5.5c0-12.6,7.3-20.6,19.8-20.6
			c12.8,0,19.3,8.8,19.3,20.6v4.5C142.9,270.1,142.3,270.8,141.3,270.8z M130.6,262.7c0-5.8-2.7-8.7-7-8.7s-7.2,3-7.2,8.7v0.3h14.2
			V262.7z"/>
		<path class="st0" d="M161.5,289.3H152c-0.9,0-1.6-0.8-1.6-1.6v-56.8c0-0.9,0.8-1.6,1.6-1.6h9.5c0.9,0,1.5,0.7,1.5,1.6v56.8
			C163,288.5,162.4,289.3,161.5,289.3z"/>
		<path class="st0" d="M211.4,246.3l-13.1,46c-2.4,8.4-5.6,12.7-17.1,12.7c-2.9,0-7.5-0.6-9.5-1.2c-0.9-0.3-1.6-0.5-1.6-1.4v-6.3
			c0-0.9,0.7-1.5,1.6-1.5c0.1,0,0.1,0,0.2,0c2.6,0.2,7.2,0.6,9.8,0.6c2.8,0,4.2-0.9,5.2-4.1l0.7-2.4h-1.2c-2.9,0-5.3-0.5-7.3-7.3
			l-10.5-35.1c-0.1-0.2-0.1-0.4-0.1-0.5c0-0.8,0.5-1.3,1.6-1.3h10.4c0.8,0,1.3,0.7,1.5,1.5l7,29.4c0.2,1.1,0.5,1.5,0.9,1.5h0.1
			c0.2,0,0.2,0,0.3,0c0.2,0,0.3,0,0.3,0l7.3-30.9c0.2-0.8,0.8-1.5,1.6-1.5H210c0.8,0,1.5,0.6,1.5,1.4
			C211.5,246,211.4,246.1,211.4,246.3z"/>
	</g>
	<g>
		<path id="N_stroke_2_" d="M257,199.5l-5.6,11.8c-0.2-0.3-0.3-0.4-0.5-0.6c-0.9-0.9-1.9-1.6-3-2.1s-2.4-0.7-3.6-0.7
			c-1.9,0-3.6,0.5-5.1,1.5s-2.7,2.3-3.5,4l-10.4,23.2l16.8,7.8l5.6-11.8c0.2,0.3,0.2,0.4,0.5,0.6c0.9,0.9,1.9,1.6,3.1,2.1
			s2.4,0.7,3.7,0.7c1.9,0,3.5-0.5,5-1.5s2.6-2.4,3.5-4.1l10.2-23.1L257,199.5z"/>
	</g>
</g>
<line class="st1" x1="-61.2" y1="191.3" x2="279.2" y2="191.3"/>
</svg>
