<svg id="Layer_1" xmlns="http://www.w3.org/2000/svg" width="408.3" height="100" viewBox="0 0 408.3 100">
  <style>
    .st0{fill:#010101;}
  </style>
  <path class="st0" d="M114.6 48.5zm266.1 22.3l-.7-.5.2.9c2 7.5 3 13.4 2.9 17.5-.1 10.2-6.5 11.3-9.3 11.3h-.1c-5 0-8.3-4.7-8.2-11.8 0-5.4 2.9-15.5 7-24.6l.1-.1v-.1c-.9-3.1-1.9-5.7-2.7-7.7l-.3-.8-.3.9c-4.2 12.3-9 18.6-14.4 18.6-4.1 0-6.5-2.4-6.6-6.7-.1-1.8.1-3.8.3-5.7.2-2.1.4-4.2.3-6.2-.1-1-.2-3.8-3-3.9-3.3 0-5.9 4.5-9.1 15.5-.2.8-.4 1.5-.6 2.1-.9 3.4-1.3 4.8-3.1 4.8-2.3 0-2.5-1.7-2.5-5.4v-.7c-.3-10.7-.6-16.7-3.9-16.7-3.4 0-6.8 6.4-10.7 20.1-.5 1.7-1.5 2.6-3 2.6h-.3c-1.5 0-1.9-1.3-1.9-4.6 0-4.3.2-9.9.4-14.5v-1.7l-.7 1.6c-5.2 12.1-10 17.9-15.6 17.9-6.1 0-8.1-7.6-8.5-9.9l-.2-.9-.4.8c-2.4 4.3-6.9 9-11.2 9-4.2 0-6.5-2.6-7-8-.2-2-.1-4 0-6 .2-3.1.3-5.9-1-7.2-.5-.5-1.2-.8-2.1-.8-5.6 0-9.4 13.7-10.4 17.9l-.2 1c-.8 3.5-1.2 4.9-3.3 4.9-1.2 0-2-.3-2.6-.9-.5-.6-.8-1.7-.7-3.1 0-.7-.1-1.9-.3-3.6-.2-2.6-.6-6.3-.8-10.9v-.9l-.6.8c-9.2 12.5-19.6 20.1-30.1 20.1-14.8 0-25.7-12-25.7-29.4 0-24.6 18.6-39.8 32.4-39.8 9.1 0 14.3 6.3 14.2 12.3 0 5.8-4.1 9.7-6.7 9.7-.9 0-1.7-.3-2-.8-.3-.5-.1-1.1.1-1.5.2-.4.4-.8.7-1.1.9-1.4 1.9-2.9 1.9-5.8 0-2.2-.8-4-2.4-5.3-1.5-1.3-3.6-1.9-6-2h-.1c-11.2 0-26 12.9-26 33.9 0 15.7 8.8 24.5 19.7 24.5 12.1 0 24.5-14.5 30.3-22.9l.1-.1v-.1c0-5.3.3-10.6.9-15.7C249.9 3 258.5 0 262.1 0c4.9 0 7.8 3.8 7.8 10.1-.1 9.9-5.8 21.4-18.5 37.4l-.1.1v.1c.2 4.2.5 7.8.8 10l.2 1.3.5-1.2c2.1-5.2 6.7-13.9 13.5-13.9 3.4 0 5.9 2.7 6.6 6.9.4 2.4.3 5 .3 7.3-.1 4.3-.1 7.7 2.2 8.1h.5c4.3 0 8-8.6 10.9-16.8 1.6-4.6 2.4-6.2 4.1-6.2.2 0 .4 0 .7.1 2.2.4 3 1.2 2.5 5.2l-.1.6c-1.1 8.4-1.9 14.5.1 16.7.5.6 1.3.9 2.2.9 4.7 0 10.5-14.2 12.8-20.3 1.4-3.7 2.3-4.8 4.1-4.9 1-.1 1.8.1 2.1.5.4.5.5 1.3.3 2.5s-.5 5.6-.8 13.1l-.1 1.7.7-1.5c2.6-5.6 7-12.3 12.6-12.3 4.9 0 6.4 5.5 6.8 10.1l.1 1.2.5-1.1c1.7-3.7 5.5-9.9 11.4-9.9 4.6 0 7.5 3.2 7.7 8.4.1 2.7-.1 5.3-.4 7.5-.3 3.1-.5 5.3.4 6.2.3.3.6.5 1.1.5 3.2 0 7-7 11.7-21.4v-.1c.1-.6.4-1.1 1-1.4.6-.4 1.2-.6 1.8-.6 1 0 1.7.5 1.9 1.4 0 .2.2.7.7 1.9.6 1.7 1.7 4.5 2.8 7.9l.2.7.4-.6c4.6-7.9 9.3-11.8 14.4-11.8h.1c3.8 0 7 1.5 9.2 4.4 2.2 2.7 3.3 6.4 3.3 10.5-.1 8.2-5.9 13.9-14.1 13.9h-.1c-2.8.2-5.6-.7-8.2-2.4zM251.3 40.1l.7-1c8.5-12.5 12.8-22.3 12.9-29.1 0-2.8-.9-4.2-2.8-4.2-3.9 0-8.1 10.6-10 25.7-.3 2.3-.5 4.8-.6 7.4l-.2 1.2zm123.5 31.2l-.3-1-.3 1c-.4 1.2-.8 2.4-1.1 3.7-2.9 10.2-3.4 15.9-1.6 18.3.6.9 1.6 1.3 2.8 1.3 1.1 0 2-.4 2.6-1.3 2-2.7 1.3-10.1-2.1-22zm13.8-2.8c2.1 0 4.2-.8 5.7-2.1 1.4-1.1 3-3.3 3.1-7 0-5.6-3-9.6-7.4-9.6-3.9 0-8.3 4.6-12.2 12.6l-.1.1.1.4.1.1c2 2.5 5.5 5.5 10.7 5.5zm1.4-18.4zM120.4 65.5l-.3-.8-.3.8c-1.6 4.3-5.9 8.9-11.1 9.3-3.3.3-6.5-1.1-8.4-3.7l-.2-.3-.3.2c-2.9 2.7-5.8 4-8.6 4h-.1c-2.9 0-5.4-1.1-7.2-3.2-1.7-2-2.6-4.9-2.6-8 0-8.9 4.4-26.4 4.4-35.5 0-3.9-1.9-5.9-4.4-5.9-8.3 0-14.4 19.9-22.8 42.9-.3.7-.5 1.4-.7 2-1.2 3.5-1.9 5.7-4.4 5.7-.7 0-1.2-.2-1.6-.6-1.3-1.3-1.1-4.8-.9-9.2 0-.7.1-1.4.1-2.2.2-5.3.5-10.2.7-14.5 1-20.3.6-29.9-5-29.9-4.9 0-8.6 6.3-13.7 23.4-5.2 17.9-7.9 27.7-9.1 31.3-.8 2.4-2.4 3.4-4.8 3-1.9-.3-1.6-4.2-1.3-9.1.1-1.1.1-2.3.2-3.5.3-7.1.7-13.4 1.1-18.9 1.1-17.2 1.7-26.6-1.6-30.1-1-1-2.3-1.5-4-1.6-4.2 0-7.4 4-9.9 12.3-.2.5-.5 1.4-1.2 1.4-1 0-2.4-2-2.5-4.2-.1-3.7 1.7-7.9 4.5-10.8 1.8-1.8 4.8-4 9.1-4h.1c8.1.1 11.8 5 11.9 16.1.1 10.3-1.8 29.3-2.5 36.9l-.9 1.5c1.5-6 3.8-14.8 4.9-18.7 3.8-12.9 9-31.3 19.9-31.3h.1c2.9 0 5.1.9 6.8 2.6 3.1 3.2 4.5 9.7 4.1 19.7-.2 6.6-.6 13.7-1.3 20.9l-.3 3.2.9-3.1c.6-1.9 1.2-4.1 1.8-6 7-20.7 13.9-30.8 22.8-30.8h.1c6.1 0 9.6 4.3 9.6 12.2 0 7.4-4.6 27.8-4.6 34.6 0 4 1.9 6.4 5.1 6.5 2.1 0 4.2-1.2 6.3-3.4l.1-.1v-.2c0-.3-.1-.6-.1-.9-.5-5.6 1.2-11.2 4.7-15.5 3-3.7 7.1-6.2 10.7-6.5h.9c3.4 0 5.2 1.6 6.1 3l.5.6.1-.8c.7-4 2-4.9 4.1-5.1 1.4-.1 2.4.2 2.9.8.5.6.6 1.7.3 3.2-.2 1-.5 2-.7 3.2-1.5 6.2-3.3 13.8-.9 16.9.7.9 1.8 1.4 3.1 1.4 5 0 9.9-12.1 12.4-19.4 1.2-3.5 1.7-4 4-4h.1c1 0 1.7.3 2.1.8.6.7.4 2 .3 4-.5 9.2-.7 20.2 5.9 20.2 2.7 0 6.2-2.2 9.6-6.3l.1-.1-.1-.2c-1.1-3.2-1.7-6.8-2-10.6-1.1-18.4 2-34.5 7.8-41.1 1.9-2.1 4.1-3.3 6.5-3.4h.5c6.3 0 8 6.9 8.3 12.7.6 12.5-5.9 31.1-15.2 43.3l-.1.1.1.2c1.6 4.2 4.1 6.2 7.5 6.1 2.8-.1 5.3-2.6 6.7-3.9l.3-.3c.6-.5 1.3-.5 1.9.1.4.5.6 1.2.5 1.9-.3 2.9-3.9 7-9.7 7.3-4 .2-7.7-2.3-10.5-6.9l-.2-.4-.3.3c-4.1 4.2-8.2 6.4-11.9 6.4h-.1c-8.4-.1-11-8.3-11.9-13.2l-.2-1-.5.9c-1.8 3.5-6.5 11.7-12.5 12.1-5.4.2-8-3.6-9.1-6.8zm47.7-18.7c.1 2.5.3 5.3.7 8.1l.1.9.5-.8c3.1-5.2 5.8-11.3 7.8-17.9 3.5-11.5 3.5-21.5 1.4-24.3-.4-.6-.9-.9-1.5-.9h-.1c-4.6.4-9.8 17.6-8.9 34.9zM120 52.4v-.1c-.8-2-2.7-4.1-5.3-4.1-2.1 0-4.3 1.2-6.3 3.3-3.1 3.4-4.9 8.3-4.6 12.4.3 3.3 1.7 5 4.3 5h.5c6.2-.5 9.7-9.2 11.5-16.5h-.1zM262 6.1zM148.8 26c-2.3 0-4.1 1.8-4.2 4 0 2.2 1.8 4.1 4.1 4.1v.3-.3c2.3 0 4.1-1.8 4.1-4 .1-2.3-1.7-4.1-4-4.1zm144.3 0c-2.3 0-4.1 1.8-4.2 4 0 2.2 1.8 4.1 4.1 4.1v.3-.3c2.3 0 4.1-1.8 4.1-4 .1-2.3-1.7-4.1-4-4.1zm115.2 45.7c0 1.6-1.3 2.8-2.8 2.8-1.6 0-2.8-1.3-2.8-2.8 0-1.6 1.3-2.8 2.8-2.8 1.5-.1 2.8 1.2 2.8 2.8zm-.4 0c0-1.3-1.1-2.4-2.4-2.4-1.3 0-2.4 1.1-2.4 2.4 0 1.3 1.1 2.4 2.4 2.4 1.3 0 2.4-1.1 2.4-2.4zm-2 .1l1 1.4h-.5l-1-1.4h-.6v1.4h-.4V70h1.2c.7 0 1 .3 1 .9.1.6-.3.9-.7.9zm.4-.9c0-.4-.4-.5-.7-.5h-.7v1.1h.5c.4 0 .9 0 .9-.6z"/>
</svg>
