<?xml version="1.0" encoding="utf-8"?>
<!-- Generator: Adobe Illustrator 19.0.0, SVG Export Plug-In . SVG Version: 6.00 Build 0)  -->
<svg version="1.1" id="Layer_1" xmlns="http://www.w3.org/2000/svg" xmlns:xlink="http://www.w3.org/1999/xlink" x="0px" y="0px"
	 viewBox="0 0 480.244 129.874" enable-background="new 0 0 480.244 129.874" xml:space="preserve">
<path fill="#100E0F" d="M94.382,57.474v61.537c0,0.354-0.06,1.125-0.611,1.43c0,0-13.393,9.434-35.469,9.434
	C31.64,129.874,0,121.664,0,66.562C0,11.462,27.635,0,54.576,0c23.386,0,32.643,5.18,34.16,6.262
	c0.556,0.398,0.721,0.985,0.721,1.473l-4.502,19.064c0,1.042-1.086,2.211-2.26,1.851c-3.736-1.157-9.608-3.556-23.238-3.556
	c-15.746,0-32.518,4.661-32.518,40.087c0,35.418,16.106,39.631,27.637,39.631c9.772,0,13.308-1.205,13.308-1.205V79.093H52.141
	c-1.041,0-1.886-0.848-1.886-1.889v-19.73c0-1.042,0.845-1.887,1.886-1.887h40.356C93.538,55.587,94.382,56.433,94.382,57.474z
	 M300.475,6.602c0-1.05-0.832-1.897-1.873-1.897h-22.723c-1.038,0-1.882,0.847-1.882,1.897c0,0.005,0.006,43.913,0.006,43.913
	h-35.419V6.602c0-1.05-0.836-1.897-1.875-1.897h-22.722c-1.034,0-1.877,0.847-1.877,1.897v118.903c0,1.049,0.843,1.902,1.877,1.902
	h22.722c1.039,0,1.875-0.854,1.875-1.902V74.646h35.419c0,0-0.062,50.855-0.062,50.859c0,1.049,0.843,1.902,1.882,1.902H298.6
	c1.041,0,1.873-0.854,1.875-1.902V6.602z M135.376,22.205c0-8.182-6.56-14.793-14.653-14.793c-8.085,0-14.649,6.612-14.649,14.793
	c0,8.174,6.564,14.804,14.649,14.804C128.816,37.008,135.376,30.378,135.376,22.205z M133.751,100.423c0-3.047,0-54.886,0-54.886
	c0-1.042-0.841-1.894-1.88-1.894H109.22c-1.039,0-1.969,1.072-1.969,2.114c0,0,0,66.045,0,78.635c0,2.311,1.44,2.998,3.304,2.998
	c0,0,9.668,0,20.408,0c2.239,0,2.788-1.1,2.788-3.035C133.751,120.14,133.751,103.628,133.751,100.423z M386.832,43.822h-22.549
	c-1.034,0-1.876,0.853-1.876,1.901v58.302c0,0-5.729,4.191-13.859,4.191c-8.13,0-10.288-3.689-10.288-11.65
	c0-7.971,0-50.843,0-50.843c0-1.049-0.84-1.901-1.875-1.901H313.5c-1.033,0-1.879,0.853-1.879,1.901c0,0,0,31.048,0,54.692
	c0,23.646,13.179,29.432,31.309,29.432c14.873,0,26.865-8.217,26.865-8.217s0.571,4.33,0.829,4.844
	c0.259,0.512,0.932,1.029,1.659,1.029l14.559-0.064c1.033,0,1.879-0.854,1.879-1.899l-0.007-79.817
	C388.714,44.674,387.871,43.822,386.832,43.822z M480.244,82.591c0,36.65-11.876,47.154-32.584,47.154
	c-17.64,0-26.957-8.83-26.957-8.83s-0.567,4.844-0.96,5.482c-0.398,0.643-0.938,1.01-1.649,1.01c-0.005,0-15.808,0-15.81,0
	c-1.039,0-1.881-0.854-1.881-1.902V6.602c0-1.05,0.842-1.897,1.878-1.897h22.787c1.036,0,1.875,0.847,1.875,1.897v40.263
	c0,0,8.711-5.714,21.518-5.714C461.277,41.151,480.244,45.94,480.244,82.591z M454.04,84.017c0-19.37-7.824-21.823-15.944-21.096
	c-6.421,0.574-11.654,3.781-11.654,3.781v37.654c0,0,5.305,3.549,13.126,3.787C450.509,108.474,454.04,104.443,454.04,84.017z
	 M199.058,43.632h-17.045c0,0-0.025-22.513-0.025-22.518c0-0.853-0.439-1.278-1.425-1.278h-23.228c-0.903,0-1.388,0.398-1.388,1.265
	v23.27c0,0-11.641,2.81-12.428,3.037c-0.783,0.228-1.36,0.95-1.36,1.812v14.623c0,1.052,0.84,1.9,1.879,1.9h11.909
	c0,0,0,15.294,0,35.179c0,26.129,18.328,28.695,30.695,28.695c5.651,0,12.411-1.814,13.527-2.227
	c0.675-0.248,1.067-0.947,1.067-1.705l0.019-16.086c0-1.049-0.886-1.898-1.884-1.898c-0.993,0-3.534,0.404-6.15,0.404
	c-8.372,0-11.209-3.893-11.209-8.932c0-5.035-0.001-33.431-0.001-33.431h17.046c1.039,0,1.881-0.848,1.881-1.9V45.527
	C200.938,44.478,200.097,43.632,199.058,43.632z"/>
</svg>
