<?xml version="1.0" encoding="utf-8"?>
<!-- Generator: Adobe Illustrator 19.0.0, SVG Export Plug-In . SVG Version: 6.00 Build 0)  -->
<svg version="1.1" id="Layer_1" xmlns="http://www.w3.org/2000/svg" xmlns:xlink="http://www.w3.org/1999/xlink" x="0px" y="0px"
	 viewBox="-58 369.056 413.987 55.742" enable-background="new -58 369.056 413.987 55.742" xml:space="preserve">
<path d="M-44.424,424.798c-8.785,0-13.336-4.712-13.576-14.215c0-0.479,0.16-0.799,0.639-0.879l6.708-1.118
	c0.559-0.079,0.878,0.239,0.878,0.719c0.24,5.75,1.917,7.986,5.59,7.986c3.434,0,5.111-1.837,5.111-7.747
	c0-5.829-1.118-7.746-5.351-9.423l-3.274-1.278c-7.507-2.954-9.743-6.867-9.743-15.333c0.001-9.344,4.234-14.454,13.178-14.454
	c8.945,0,12.858,4.791,13.337,13.256c0,0.479-0.24,0.719-0.719,0.879l-6.389,0.959c-0.479,0.079-0.878-0.16-0.878-0.64
	c-0.16-4.472-1.598-6.948-5.111-6.948c-3.354,0-4.951,2.077-4.951,6.549c0,5.031,0.958,6.549,5.271,8.227l3.274,1.277
	c7.107,2.795,9.903,6.628,9.903,15.893C-30.528,419.208-34.122,424.798-44.424,424.798z M-27.972,370.573
	c0-0.479,0.319-0.798,0.798-0.798h6.948c0.479,0,0.799,0.318,0.799,0.798v52.708c0,0.479-0.32,0.799-0.799,0.799h-6.948
	c-0.479,0-0.798-0.319-0.798-0.799C-27.972,423.281-27.972,370.573-27.972,370.573z M-14.954,370.573
	c0-0.479,0.319-0.798,0.798-0.798h8.465c0.639,0,0.958,0.239,1.118,0.798L5.49,408.107h0.399v-37.534
	c0-0.479,0.32-0.798,0.799-0.798h5.91c0.479,0,0.798,0.318,0.798,0.798v52.708c0,0.479-0.319,0.799-0.798,0.799H4.692
	c-0.639,0-0.958-0.239-1.118-0.799l-10.542-37.535h-0.479v37.534c0,0.479-0.32,0.799-0.799,0.799h-5.91
	c-0.479,0-0.798-0.319-0.798-0.799C-14.954,423.28-14.954,370.573-14.954,370.573z M17.87,370.573c0-0.479,0.319-0.798,0.798-0.798
	h8.465c0.639,0,0.958,0.239,1.118,0.798l10.062,37.534h0.399v-37.534c0-0.479,0.32-0.798,0.799-0.798h5.91
	c0.479,0,0.798,0.318,0.798,0.798v52.708c0,0.479-0.319,0.799-0.798,0.799h-7.906c-0.639,0-0.958-0.239-1.118-0.799l-10.542-37.535
	h-0.479v37.534c0,0.479-0.319,0.799-0.799,0.799h-5.91c-0.479,0-0.798-0.319-0.798-0.799L17.87,370.573L17.87,370.573z
	 M50.693,370.573c0-0.479,0.32-0.798,0.799-0.798h22.281c0.479,0,0.799,0.318,0.799,0.798v6.149c0,0.479-0.319,0.799-0.799,0.799
	H59.718c-0.319,0-0.479,0.16-0.479,0.479v14.294c0,0.32,0.16,0.479,0.479,0.479h12.139c0.479,0,0.799,0.319,0.799,0.799v6.149
	c0,0.479-0.319,0.799-0.799,0.799H59.718c-0.319,0-0.479,0.16-0.479,0.479v14.854c0,0.319,0.16,0.479,0.479,0.479h14.055
	c0.479,0,0.799,0.318,0.799,0.799v6.148c0,0.479-0.319,0.799-0.799,0.799H51.492c-0.479,0-0.799-0.319-0.799-0.799L50.693,370.573
	L50.693,370.573z M99.329,424.079c-0.479,0-0.719-0.16-0.878-0.559l-6.628-21.643h-1.358h-2.716c-0.318,0-0.479,0.16-0.479,0.479
	v20.923c0,0.479-0.319,0.799-0.799,0.799h-6.948c-0.479,0-0.798-0.319-0.798-0.799v-52.706c0-0.479,0.319-0.798,0.798-0.798h10.941
	c9.663,0,15.493,4.232,15.493,16.131c0,7.108-2.396,11.58-6.469,13.896l7.666,23.479c0.16,0.399,0,0.799-0.398,0.799h-7.427V424.079
	z M97.413,385.906c0-6.389-2.076-8.385-6.868-8.385h-2.796c-0.318,0-0.479,0.16-0.479,0.479v15.812c0,0.32,0.16,0.479,0.479,0.479
	h2.796C95.337,394.291,97.413,392.374,97.413,385.906z M122.968,424.798c-8.783,0-13.336-4.712-13.575-14.215
	c0-0.479,0.159-0.799,0.639-0.879l6.708-1.118c0.559-0.079,0.879,0.239,0.879,0.719c0.239,5.75,1.916,7.986,5.59,7.986
	c3.434,0,5.111-1.837,5.111-7.747c0-5.829-1.118-7.746-5.352-9.423l-3.273-1.278c-7.507-2.954-9.743-6.867-9.743-15.333
	c0-9.344,4.233-14.454,13.177-14.454c8.945,0,12.857,4.791,13.337,13.256c0,0.479-0.239,0.719-0.719,0.879l-6.389,0.959
	c-0.479,0.079-0.878-0.16-0.878-0.64c-0.16-4.472-1.598-6.948-5.111-6.948c-3.354,0-4.951,2.077-4.951,6.549
	c0,5.031,0.958,6.549,5.27,8.227l3.275,1.277c7.107,2.795,9.902,6.628,9.902,15.893
	C136.864,419.208,133.271,424.798,122.968,424.798z M140.06,396.927c0-15.094,0.319-17.33,1.038-19.566
	c1.677-5.19,5.67-8.305,12.298-8.305c7.748,0,12.619,3.992,13.098,13.017c0.08,0.479-0.08,0.879-0.559,0.958l-6.469,1.119
	c-0.479,0.079-0.879-0.16-0.879-0.719c-0.24-4.633-1.836-6.629-4.951-6.629c-2.396,0-3.674,1.038-4.312,3.035
	c-0.399,1.277-0.559,2.396-0.559,17.09s0.159,15.812,0.559,17.09c0.639,1.996,1.916,3.035,4.312,3.035
	c3.115,0,4.711-1.997,4.951-6.629c0-0.559,0.4-0.799,0.879-0.719l6.469,1.118c0.479,0.08,0.639,0.479,0.559,0.958
	c-0.479,9.024-5.35,13.018-13.098,13.018c-6.628,0-10.621-3.114-12.298-8.306C140.379,414.257,140.06,412.021,140.06,396.927z
	 M171.126,370.573c0-0.479,0.32-0.798,0.799-0.798h6.947c0.48,0,0.799,0.318,0.799,0.798v21.403c0,0.318,0.16,0.479,0.479,0.479
	h9.186c0.318,0,0.479-0.16,0.479-0.479v-21.403c0-0.479,0.318-0.798,0.799-0.798h6.947c0.479,0,0.799,0.318,0.799,0.798v52.708
	c0,0.479-0.32,0.799-0.799,0.799h-6.947c-0.48,0-0.799-0.319-0.799-0.799v-22.6c0-0.32-0.16-0.479-0.479-0.479h-9.186
	c-0.318,0-0.479,0.159-0.479,0.479v22.6c0,0.479-0.318,0.799-0.799,0.799h-6.947c-0.479,0-0.799-0.319-0.799-0.799V370.573z
	 M223.435,424.079c-0.479,0-0.717-0.16-0.879-0.559l-6.627-21.643h-1.357h-2.715c-0.32,0-0.48,0.16-0.48,0.479v20.923
	c0,0.479-0.318,0.799-0.799,0.799h-6.947c-0.48,0-0.799-0.319-0.799-0.799v-52.706c0-0.479,0.318-0.798,0.799-0.798h10.941
	c9.662,0,15.492,4.232,15.492,16.131c0,7.108-2.395,11.58-6.469,13.896l7.668,23.479c0.158,0.399,0,0.799-0.4,0.799h-7.428V424.079z
	 M221.519,385.906c0-6.389-2.076-8.385-6.869-8.385h-2.793c-0.32,0-0.48,0.16-0.48,0.479v15.812c0,0.32,0.16,0.479,0.48,0.479h2.793
	C219.442,394.291,221.519,392.374,221.519,385.906z M245.317,370.573c0.16-0.479,0.4-0.798,0.879-0.798h6.709
	c0.479,0,0.799,0.318,0.877,0.798l11.5,52.708c0.08,0.479-0.158,0.799-0.639,0.799h-6.787c-0.561,0-0.799-0.319-0.879-0.799
	l-2.156-10.94H244.04l-2.156,10.94c-0.08,0.479-0.32,0.799-0.879,0.799h-6.787c-0.48,0-0.719-0.319-0.641-0.799L245.317,370.573z
	 M253.464,405.153l-3.834-20.205h-0.24l-3.992,20.205H253.464z M268.079,370.573c0-0.479,0.318-0.798,0.799-0.798h12.537
	c7.107,0,11.262,2.875,13.178,8.704c0.959,2.955,1.357,6.629,1.357,18.448s-0.398,15.493-1.357,18.447
	c-1.916,5.83-6.07,8.705-13.178,8.705h-12.537c-0.48,0-0.799-0.319-0.799-0.799V370.573z M277.103,416.333h3.434
	c3.035,0,4.793-1.198,5.75-3.913c0.639-1.997,0.959-4.632,0.959-15.493s-0.32-13.496-0.959-15.493
	c-0.957-2.716-2.715-3.913-5.75-3.913h-3.434c-0.318,0-0.479,0.16-0.479,0.479v37.854
	C276.624,416.173,276.784,416.333,277.103,416.333z M299.464,370.573c0-0.479,0.32-0.798,0.799-0.798h22.281
	c0.48,0,0.799,0.318,0.799,0.798v6.149c0,0.479-0.318,0.799-0.799,0.799h-14.055c-0.32,0-0.48,0.16-0.48,0.479v14.294
	c0,0.32,0.16,0.479,0.48,0.479h12.139c0.479,0,0.797,0.319,0.797,0.799v6.149c0,0.479-0.318,0.799-0.797,0.799h-12.139
	c-0.32,0-0.48,0.16-0.48,0.479v14.854c0,0.319,0.16,0.479,0.48,0.479h14.055c0.48,0,0.799,0.318,0.799,0.799v6.148
	c0,0.479-0.318,0.799-0.799,0.799h-22.281c-0.479,0-0.799-0.319-0.799-0.799V370.573z M348.101,424.079
	c-0.48,0-0.719-0.16-0.879-0.559l-6.629-21.643h-1.357h-2.715c-0.32,0-0.479,0.16-0.479,0.479v20.923
	c0,0.479-0.32,0.799-0.799,0.799h-6.949c-0.479,0-0.797-0.319-0.797-0.799v-52.706c0-0.479,0.318-0.798,0.797-0.798h10.941
	c9.662,0,15.492,4.232,15.492,16.131c0,7.108-2.395,11.58-6.469,13.896l7.668,23.479c0.16,0.399,0,0.799-0.398,0.799h-7.427V424.079
	z M346.183,385.906c0-6.389-2.076-8.385-6.867-8.385h-2.795c-0.32,0-0.479,0.16-0.479,0.479v15.812c0,0.32,0.158,0.479,0.479,0.479
	h2.795C344.106,394.291,346.183,392.374,346.183,385.906z"/>
</svg>
