<svg xmlns="http://www.w3.org/2000/svg" width="2200" height="640" viewBox="0, 0, 2200, 640"><path fill="none" d="M0 0h2200v640H0z"/><path d="M66.57 515.08c6.22.25 12.53 1.13 18.4 3.28v-.05l.9.33 77.47-75.58 2.85 3.8c4.02 5.44 8.28 10.4 12.78 15.4l1.66 1.88c1.18 1.2 2.13 2.37 3.32 3.56l1.9 1.88 1.9 1.9 1.64 1.66 1.9 1.9 1.66 1.65 2.13 1.9 1.88 1.65C233 510.8 278 528.1 325.4 529.3c39.1.93 77.24-9.02 110.65-28.68l5.92 6.16c6.87 7.34 13.98 14.7 20.85 22.03-41.23 26.55-89.1 39.82-138.37 38.63C269 566 216.18 546.1 173.77 510.57l.23-.48-49.7 49c1.83 5.8 2.57 11.86 2.64 17.93 0 34.22-27.74 61.97-61.97 61.97S3 611.25 3 577.03s27.75-61.97 61.97-61.97l1.6.02zM540.3 195.45c24.4 40.05 36.48 86.25 35.3 133.16-1.42 57.34-22.98 112.08-60.9 154.96l.24.24 30.57 32.46c12.33-1.66 24.65 2.6 33.18 11.6 14.45 15.4 13.98 39.57-1.42 54.26-15.4 14.45-39.57 13.98-54.26-1.42-8.53-9-12.1-21.56-9.72-33.64-14.2-15.17-39.33-41.94-53.78-57.1l-3.08-3.32 3.56-2.84c9.24-7.35 17.77-15.4 25.58-24.4 32.46-36.5 50.7-82.93 51.9-131.74.94-36.96-7.83-73.2-25.6-105.2l28.43-27zM108.57 50.64c10.9-.16 21.1 4.14 28.7 11.9 8.53 9 12.08 21.57 9.7 33.65l58.77 61.6-3.55 2.85c-9.24 7.34-17.77 15.4-25.6 24.4-32.45 36.5-50.7 82.93-52.12 131.73-.94 36.96 7.82 73.2 25.6 105.44l-28.2 27.48C97.24 409.4 84.92 363.2 86.34 315.8c1.22-57.03 23.45-112.12 60.78-155.05l-32.35-33.77c-12.32 1.66-24.64-2.6-33.17-11.6-14.45-15.4-13.98-39.57 1.42-54.26 6-5.62 13.72-9.25 21.9-10.23 1.2-.15 2.43-.18 3.66-.27zM603 1.43c34.23 0 61.97 27.73 61.97 61.96 0 34.2-27.74 61.96-61.97 61.96-6.58.07-13.06-1.14-19.33-3.1l-.02.08-.95-.33-84.1 79.85-2.85-3.8c-4.5-5.9-9.47-11.84-14.7-17.3l-.94-1.17-2.6-2.6-.46-.48-1.66-1.66-.48-.47-2.13-2.13-1.66-1.42-1.65-1.43-2.13-1.9-1.66-1.42-2.13-1.9c-35.78-30.1-80.56-47.15-127.47-48.33-39.1-.95-77.24 8.76-110.4 28.67l-27.02-28.2C239.87 89.8 287.74 76.52 337 77.7c55.45 1.42 108.28 21.33 150.7 57.1h.47l55.7-52.88c-1.96-5.98-2.76-12.26-2.84-18.53 0-34.24 27.75-61.98 61.97-61.98zM332.9 139.76c7 .03 13.98.57 20.93 1.38 100 12.56 170.83 103.77 158.5 203.76-12.55 99.98-103.77 170.82-203.75 158.5-100-12.55-170.83-103.77-158.5-203.75C162 206.9 239.92 140.07 332.9 139.74zm-2.75 78.3c-40.48 3.24-69.77 33.86-70.8 74.54.74 29 15.6 53.5 41.5 66.85l-14.07 66.22h94.42l-14.07-66.23c25.77-14 41.08-37.14 41.5-66.84-.56-41.98-33.04-73.58-74.64-74.64l-3.85.1zm1.4-.4h-.23.24zM818.88 233.65c-4.6 0-7.82.92-13.34 8.28l-76.36 99.36L762.3 155c1.38-6.9-2.3-9.2-7.82-9.2h-69c-8.28 0-10.58 4.13-11.5 9.2l-59.34 336.25c-1.38 7.36 3.22 10.12 8.28 10.12h69c5.06 0 10.12-5.06 11.04-10.12l18.4-104.88 40.02 104.88c2.76 7.36 6.44 10.12 11.5 10.12h82.8c5.98 0 8.28-5.52 5.98-10.12l-58.88-128.8L907.66 243.3c3.68-3.67 3.22-9.65-3.22-9.65zm320.22 94.76c0-54.73-31.28-98.9-97.98-98.9-76.82 0-129.26 34.05-144.44 125.13L891.62 385c-1.38 8.27-1.84 16.1-1.84 23.45 0 65.32 50.6 97.06 101.66 97.06 38.64 0 69.92-4.6 100.74-14.25 7.82-2.3 10.12-5.52 11.5-12.88l7.36-41.4v-1.84c0-4.14-2.76-5.98-6.9-5.98h-1.84c-17.48 1.84-63.94 3.68-88.32 3.68-23 0-37.72-3.22-37.72-26.22 0-4.13.46-8.73 1.38-14.25h143.06c5.52 0 10.58-4.14 11.5-10.12l4.6-27.6c1.38-8.74 2.3-17.48 2.3-26.22zm-82.8-3.2c0 5.5-.92 11.95-2.3 18.4h-68.08c5.52-26.23 16.56-45.55 42.32-45.55 20.7 0 28.06 11.04 28.06 27.14zm392.44-84.65c0-3.68-4.14-6.9-8.28-6.9h-75.9c-5.06 0-9.66 3.68-11.5 8.74l-65.78 166.5h-3.68c-2.76 0-3.22-2.3-3.68-7.8l-8.28-158.25c-.46-5.06-2.3-9.2-7.36-9.2h-74.06c-7.82 0-11.5 3.68-11.5 8.74v1.37l26.68 218.96c2.76 23.46 14.72 31.74 36.34 31.74h5.98l-6.44 15.18c-5.52 13.34-15.18 17.48-28.06 17.48-17.48 0-45.08-2.76-62.1-3.68h-.46c-5.52 0-11.04 4.6-11.96 9.66l-7.82 44.63v1.38c0 4.15 4.14 5.53 8.74 7.37 11.96 4.6 42.32 8.28 60.72 8.28 72.22 0 98.44-28.52 120.98-77.74l126.5-273.23c.46-.92.92-2.3.92-3.22zm204.4 3.68c0-4.6-2.76-5.98-7.82-7.36-12.42-3.22-34.5-7.36-61.64-7.36-70.84 0-116.38 35.43-131.1 121l-5.98 34.5c-1.38 9.2-2.3 17.93-2.3 26.2 0 53.83 31.28 94.3 90.62 94.3 27.14 0 48.3-3.67 64.4-7.35 6.44-1.38 10.12-3.68 11.04-9.66l9.2-51.53v-1.84c0-4.14-3.22-6.9-7.36-6.9h-.92c-16.1.92-30.82 2.76-53.36 2.76-15.64 0-24.84-5.53-24.84-26.23 0-5.52.46-11.96 1.84-19.78l5.98-34.5c6.44-38.2 19.78-46.47 39.56-46.47 22.54 0 36.34 2.3 51.98 3.22h.92c5.06 0 9.66-3.68 10.58-8.74l9.2-51.97v-2.3zm287.1-90.62c0-4.6-4.14-7.8-8.74-7.8h-68.54c-5.06 0-9.66 4.13-10.58 9.2l-13.8 77.73c-9.2-1.38-24.84-3.22-32.2-3.22-83.72 0-125.58 34.97-140.76 120.07l-6.44 35.88c-1.38 8.28-2.3 16.1-2.3 23.46 0 56.6 39.1 96.6 102.12 96.6 41.4 0 80.5-6.43 105.34-11.5 14.72-3.2 17.02-5.97 18.4-14.7l57.5-324.3v-1.4zM1825.7 304.5l-22.08 126.03c-8.74 1.38-18.4 2.3-31.74 2.3-19.78 0-26.68-11.5-26.68-29.44 0-5.53.46-11.5 1.84-17.95l6.44-35.88c4.6-26.68 15.64-46.92 41.4-46.92 11.04 0 21.62.92 30.82 1.84zm370.82 3.2c0-51.5-21.16-78.2-72.22-78.2-17.02 0-42.32 4.15-74.52 25.3l2.3-11.95c1.38-6.9-1.84-9.2-7.82-9.2h-63.02c-5.06 0-9.66 4.14-10.58 9.2l-44.16 248.4c-.92 6.44 4.14 10.12 10.58 10.12h65.78c6.9 0 11.5-4.6 12.42-10.12l31.28-178.02c8.28-4.6 25.3-10.12 39.1-10.12 15.64 0 21.62 3.7 21.62 17.95 0 7.82-1.84 15.64-3.22 23.46l-25.76 146.75c-.92 4.6 0 10.12 7.82 10.12h69c5.52 0 10.58-5.06 11.5-10.12l25.3-143.52c2.3-12.88 4.6-28.06 4.6-40.02zm-369.86 289.26c0-1.25-.83-2.1-2.22-2.1h-12.37c-1.53 0-3.06 1.12-3.34 2.65l-2.64 15.72v.56c0 1.25.82 2.22 2.2 2.22h12.38c1.53 0 3.06-1.25 3.34-2.78l2.64-15.7v-.56zm78.52-60.33c-18.07 0-32.8 7.5-37.67 33.78l-2.35 12.94c-.42 2.5-.7 4.86-.7 7.1 0 15.83 10.7 26.67 26.55 26.67 8.48 0 14.88-.96 18.2-1.8 2.8-.55 3.07-1.38 3.5-3.6l1.66-9.04c.27-1.8-.42-2.36-2.5-2.1-5 .57-9.18 1-18.22 1-5.7 0-10.84-1.82-10.84-11.27 0-1.96.14-4.32.7-6.96l2.36-12.93c2.64-14.45 10-18.2 16.54-18.2 9.04 0 13.35.42 17.8.97 2.22.42 2.9-.55 3.2-2.08l1.66-9.05c.42-2.36-.14-3.05-2.36-3.6-3.06-.84-9.04-1.82-17.52-1.82zM2017.2 564c0-14.58-8.76-27.37-27.8-27.37-21.82 0-35.17 11.82-39.34 34.6l-2.08 11.27c-.42 2.23-.56 4.45-.56 6.67 0 14.6 8.9 27.94 27.8 27.94 21.82 0 34.9-11.66 39.2-34.6l2.08-11.26c.42-2.36.7-4.86.7-7.22zm-18.5 1.13c0 1.8-.13 3.9-.54 6.1l-2.1 11.27c-2.35 12.93-8.33 18.77-18.06 18.77-8.2 0-12.23-4.45-12.23-12.65 0-1.8.14-3.9.56-6.12l2.08-11.26c2.5-13.76 9.74-18.76 18.22-18.76 8.2 0 12.1 4.45 12.1 12.65zm155.12-8.2c0-12.5-5.98-20.3-19.18-20.3-9.6 0-17.37 2.23-24.46 6.8-2.37-3.6-6.95-6.8-14.88-6.8-8.2 0-14.18 2.92-20.57 6.67l.56-2.9c.26-1.54-.57-2.8-2.38-2.8h-12.1c-1.52 0-2.9 1.26-3.2 2.8l-12.77 72.68c-.28 1.8.55 2.92 2.22 2.92h12.8c2.5 0 3.05-1.4 3.32-2.92l9.86-56.15c6.26-3.06 10.7-4.6 13.62-4.6 5.7 0 7.93 1.54 7.93 6.68 0 1.82-.13 4.04-.7 6.82l-8.33 47.26c-.42 2.1.56 2.92 2.23 2.92h12.78c2.5 0 3.06-1.4 3.34-2.92l8.34-47.26c.56-3.47.83-7.1.7-10 5.55-2.64 11.4-3.48 14.03-3.48 5.97 0 8.33 1.67 8.33 7.1 0 1.66-.28 3.74-.7 6.38l-8.33 47.26c-.28 1.8.55 2.92 2.22 2.92h12.8c2.63 0 3.05-1.4 3.33-2.92l8.34-47.26c.54-3.2.82-6.1.82-8.9z"/></svg>