<svg xmlns="http://www.w3.org/2000/svg" viewBox="-58 369.056 413.987 55.742">
  <path d="M-44.424 424.798c-8.785 0-13.336-4.712-13.576-14.215 0-.48.16-.8.64-.88l6.707-1.117c.56-.08.878.24.878.72.24 5.75 1.917 7.985 5.59 7.985 3.434 0 5.11-1.83 5.11-7.74 0-5.83-1.117-7.74-5.35-9.42l-3.274-1.27c-7.5-2.95-9.74-6.86-9.74-15.33 0-9.34 4.24-14.45 13.18-14.45 8.95 0 12.86 4.79 13.34 13.26 0 .48-.24.72-.72.88l-6.39.96c-.48.08-.88-.16-.88-.64-.16-4.47-1.6-6.95-5.11-6.95-3.35 0-4.95 2.08-4.95 6.55 0 5.03.96 6.55 5.27 8.23l3.28 1.28c7.11 2.8 9.91 6.63 9.91 15.9 0 10.7-3.59 16.29-13.89 16.29zm16.452-54.225c0-.48.32-.798.798-.798h6.948c.48 0 .8.318.8.798v52.708c0 .48-.32.8-.8.8h-6.948c-.48 0-.798-.32-.798-.8v-52.7zm13.018 0c0-.48.32-.798.798-.798h8.465c.63 0 .95.24 1.11.798l10.07 37.534h.4v-37.534c0-.48.32-.798.79-.798h5.91c.48 0 .8.318.8.798v52.708c0 .48-.32.8-.8.8h-7.9c-.64 0-.96-.24-1.12-.8l-10.54-37.53h-.48v37.54c0 .48-.32.8-.8.8h-5.91c-.48 0-.8-.32-.8-.8v-52.71zm32.824 0c0-.48.32-.798.798-.798h8.465c.64 0 .958.24 1.118.798l10.07 37.534h.4v-37.534c0-.48.32-.798.8-.798h5.91c.48 0 .8.318.8.798v52.708c0 .48-.32.8-.8.8h-7.91c-.64 0-.96-.24-1.12-.8l-10.54-37.53h-.48v37.54c0 .48-.31.8-.79.8h-5.91c-.48 0-.8-.32-.8-.8v-52.71zm32.823 0c0-.48.32-.798.8-.798h22.28c.48 0 .8.318.8.798v6.15c0 .478-.32.798-.8.798H59.718c-.32 0-.48.16-.48.48v14.3c0 .32.16.48.48.48h12.14c.478 0 .798.32.798.8v6.15c0 .48-.32.8-.8.8H59.72c-.32 0-.48.16-.48.48v14.86c0 .32.16.48.48.48h14.055c.48 0 .8.32.8.8v6.15c0 .48-.32.8-.8.8h-22.28c-.48 0-.8-.32-.8-.8v-52.71zM99.33 424.08c-.48 0-.72-.16-.88-.56l-6.627-21.643H87.75c-.32 0-.48.16-.48.48v20.922c0 .47-.32.79-.8.79h-6.947c-.48 0-.798-.32-.798-.8v-52.7c0-.48.32-.8.798-.8h10.94c9.664 0 15.494 4.23 15.494 16.13 0 7.11-2.396 11.58-6.47 13.89l7.667 23.48c.16.4 0 .8-.398.8H99.33zm-1.917-38.174c0-6.39-2.076-8.385-6.868-8.385H87.75c-.32 0-.48.16-.48.48v15.82c0 .32.16.48.48.48h2.795c4.792 0 6.868-1.92 6.868-8.38zm25.555 38.892c-8.783 0-13.336-4.712-13.575-14.215 0-.48.16-.8.64-.88l6.707-1.117c.56-.08.88.24.88.72.238 5.75 1.915 7.985 5.59 7.985 3.433 0 5.11-1.83 5.11-7.74 0-5.83-1.118-7.74-5.352-9.42l-3.273-1.27c-7.507-2.95-9.743-6.86-9.743-15.33 0-9.34 4.233-14.45 13.177-14.45 8.94 0 12.85 4.79 13.33 13.26 0 .48-.24.72-.72.88l-6.39.96c-.48.08-.88-.16-.88-.64-.16-4.47-1.6-6.95-5.11-6.95-3.36 0-4.96 2.08-4.96 6.55 0 5.03.96 6.55 5.27 8.23l3.27 1.28c7.1 2.8 9.9 6.63 9.9 15.9 0 10.7-3.6 16.29-13.9 16.29zm17.092-27.87c0-15.095.32-17.33 1.038-19.567 1.677-5.19 5.67-8.3 12.298-8.3 7.748 0 12.62 3.99 13.098 13.02.08.48-.08.88-.56.96l-6.468 1.12c-.48.08-.88-.16-.88-.72-.24-4.63-1.835-6.63-4.95-6.63-2.396 0-3.674 1.04-4.312 3.04-.4 1.28-.56 2.4-.56 17.09s.16 15.81.56 17.09c.64 2 1.916 3.04 4.312 3.04 3.115 0 4.71-2 4.95-6.63 0-.56.4-.8.88-.72l6.47 1.12c.478.08.638.48.558.96-.48 9.03-5.35 13.02-13.098 13.02-6.628 0-10.62-3.11-12.298-8.3-.72-2.23-1.038-4.47-1.038-19.56zm31.066-26.355c0-.48.32-.798.8-.798h6.946c.48 0 .8.318.8.798v21.403c0 .318.16.48.478.48h9.186c.318 0 .48-.16.48-.48v-21.403c0-.48.317-.798.798-.798h6.947c.48 0 .8.318.8.798v52.708c0 .48-.32.8-.8.8h-6.94c-.48 0-.8-.32-.8-.8v-22.6c0-.32-.16-.47-.48-.47h-9.18c-.31 0-.48.16-.48.48v22.6c0 .48-.31.8-.79.8h-6.94c-.48 0-.8-.32-.8-.8v-52.71zm52.31 53.506c-.48 0-.718-.16-.88-.56l-6.627-21.65h-4.08c-.32 0-.48.16-.48.48v20.92c0 .48-.32.8-.8.8h-6.95c-.48 0-.8-.32-.8-.8v-52.7c0-.48.32-.8.8-.8h10.94c9.66 0 15.49 4.23 15.49 16.13 0 7.11-2.4 11.58-6.47 13.89l7.67 23.48c.15.39 0 .79-.4.79h-7.43zm-1.916-38.18c0-6.39-2.08-8.39-6.87-8.39h-2.797c-.32 0-.48.16-.48.48v15.81c0 .32.16.48.48.48h2.793c4.79 0 6.87-1.92 6.87-8.39zm23.793-15.34c.16-.48.4-.8.88-.8h6.708c.48 0 .8.31.88.79l11.5 52.71c.08.48-.16.8-.64.8h-6.78c-.56 0-.8-.32-.88-.8l-2.15-10.94h-10.78l-2.15 10.94c-.08.48-.32.8-.88.8h-6.78c-.48 0-.72-.32-.64-.8l11.74-52.71zm8.147 34.58l-3.833-20.21h-.24l-3.993 20.2h8.066zm14.616-34.58c0-.48.317-.8.798-.8h12.537c7.11 0 11.27 2.87 13.18 8.7.96 2.95 1.36 6.63 1.36 18.44s-.4 15.49-1.35 18.44c-1.91 5.83-6.07 8.7-13.17 8.7h-12.54c-.48 0-.8-.32-.8-.8v-52.7zm9.023 45.76h3.43c3.03 0 4.79-1.2 5.75-3.92.64-2 .96-4.64.96-15.5s-.32-13.5-.96-15.5c-.96-2.72-2.72-3.91-5.75-3.91h-3.43c-.32 0-.48.16-.48.48v37.85c0 .32.16.48.48.48zm22.36-45.76c0-.48.32-.8.8-.8h22.28c.48 0 .8.31.8.79v6.15c0 .48-.32.8-.8.8h-14.05c-.32 0-.48.16-.48.48v14.29c0 .32.16.48.48.48h12.13c.48 0 .79.32.79.8v6.15c0 .48-.32.8-.8.8h-12.14c-.32 0-.48.16-.48.48v14.85c0 .32.16.48.48.48h14.05c.48 0 .8.31.8.8v6.15c0 .48-.32.8-.8.8h-22.28c-.48 0-.8-.32-.8-.8v-52.7zm48.64 53.5c-.48 0-.72-.16-.88-.56l-6.63-21.65h-4.07c-.32 0-.48.16-.48.48v20.92c0 .48-.32.8-.8.8h-6.95c-.48 0-.8-.32-.8-.8v-52.7c0-.48.32-.8.79-.8h10.94c9.66 0 15.49 4.23 15.49 16.13 0 7.11-2.4 11.58-6.47 13.9l7.67 23.48c.16.39 0 .79-.4.79h-7.42zm-1.92-38.18c0-6.39-2.08-8.39-6.87-8.39h-2.8c-.32 0-.48.16-.48.48v15.81c0 .32.16.48.48.48h2.79c4.79 0 6.86-1.92 6.86-8.39z"/>
</svg>
