<svg xmlns="http://www.w3.org/2000/svg" viewBox="0 0 300 72.9"><style>.st0{fill:#231F20;}</style><path d="M90.3 68.2c0-1.7 1.3-3.1 3-3.1 1.1 0 1.8.4 2.3 1l-.8.9c-.4-.4-.8-.7-1.5-.7-1 0-1.7.8-1.7 1.9 0 1 .7 1.9 1.7 1.9.6 0 1.1-.3 1.5-.7l.8.8c-.6.6-1.2 1.1-2.4 1.1-1.6-.1-2.9-1.4-2.9-3.1zm7.2-5.2h1.3v8h-1.3v-8zm3.3 5.2c0-1.7 1.3-3.1 3.1-3.1s3.1 1.4 3.1 3c0 1.7-1.3 3-3.1 3-1.8.1-3.1-1.2-3.1-2.9zm4.9 0c0-1-.7-1.9-1.8-1.9s-1.8.8-1.8 1.9c0 1 .7 1.9 1.8 1.9 1.1-.1 1.8-.9 1.8-1.9zm3.1.8v-3.7h1.3v3.3c0 .9.5 1.4 1.2 1.4.8 0 1.3-.5 1.3-1.4v-3.3h1.3v5.8h-1.3v-.9c-.4.6-.9 1-1.8 1-1.2 0-2-.9-2-2.2zm7.2-.8c0-2 1.3-3 2.7-3 1 0 1.6.5 2 1V63h1.3v8h-1.3v-1c-.4.6-1 1.1-2 1.1-1.4.1-2.7-1-2.7-2.9zm4.7 0c0-1.1-.8-1.9-1.7-1.9-.9 0-1.7.7-1.7 1.9 0 1.1.8 1.9 1.7 1.9.9-.1 1.7-.8 1.7-1.9zm3.6 1.4h1.5v1.5h-1.5v-1.5zm3.9-.1v-3.1h-.7v-1.1h.7v-1.6h1.3v1.6h1.6v1.1h-1.6v2.9c0 .5.3.7.7.7.3 0 .6-.1.8-.2v1.1c-.3.2-.7.3-1.2.3-.9 0-1.6-.5-1.6-1.7zm8.8-4.2h1.4l-2.3 6c-.5 1.2-1 1.6-1.9 1.6-.6 0-1-.1-1.4-.4l.5-1c.2.1.5.2.8.2.4 0 .6-.2.8-.7l-2.4-5.8h1.4l1.6 4.3 1.5-4.2zm3 0h1.3v1c.4-.6 1-1.1 2-1.1 1.4 0 2.7 1.1 2.7 3s-1.3 3-2.7 3c-1 0-1.6-.5-2-1v2.7H140v-7.6zm4.7 2.9c0-1.1-.8-1.9-1.7-1.9-.9 0-1.7.7-1.7 1.9 0 1.1.8 1.9 1.7 1.9.9-.1 1.7-.8 1.7-1.9zm2.9 0c0-1.7 1.3-3.1 3.1-3.1s3.1 1.4 3.1 3c0 1.7-1.3 3-3.1 3-1.8.1-3.1-1.2-3.1-2.9zm4.9 0c0-1-.7-1.9-1.8-1.9s-1.8.8-1.8 1.9c0 1 .7 1.9 1.8 1.9 1.1-.1 1.8-.9 1.8-1.9zm3.2 4l.5-1c.6.4 1.3.6 2.1.6 1.2 0 1.8-.6 1.8-1.8v-.4c-.5.6-1.1 1.1-2 1.1-1.4 0-2.6-1-2.6-2.7 0-1.7 1.3-2.7 2.6-2.7 1 0 1.6.5 2 1v-.9h1.3V70c0 1-.3 1.7-.7 2.2-.5.5-1.3.8-2.4.8-.9-.1-1.8-.4-2.6-.8zm4.4-4.3c0-1-.8-1.6-1.7-1.6-.9 0-1.7.6-1.7 1.6 0 .9.7 1.6 1.7 1.6.9 0 1.7-.7 1.7-1.6zm3.5-2.6h1.3v1.3c.4-.9 1-1.5 2.1-1.4v1.4c-1.2 0-2 .8-2 2.3v2.2h-1.3v-5.8zm4.4 4.1c0-1.3 1-1.9 2.4-1.9.6 0 1.1.1 1.6.2v-.1c0-.8-.5-1.3-1.4-1.3-.7 0-1.1.1-1.7.4l-.4-1c.7-.3 1.3-.5 2.2-.5.9 0 1.5.2 1.9.6.4.4.6 1 .6 1.8V71H172v-.7c-.4.5-1 .8-1.9.8-1.1.1-2.1-.5-2.1-1.7zm4-.4v-.4c-.3-.1-.8-.2-1.3-.2-.9 0-1.4.4-1.4 1s.5.9 1.1.9c1-.1 1.6-.6 1.6-1.3zm3.4-3.7h1.3v1c.4-.6 1-1.1 2-1.1 1.4 0 2.7 1.1 2.7 3s-1.3 3-2.7 3c-1 0-1.6-.5-2-1v2.7h-1.3v-7.6zm4.7 2.9c0-1.1-.8-1.9-1.7-1.9-.9 0-1.7.7-1.7 1.9 0 1.1.8 1.9 1.7 1.9 1-.1 1.7-.8 1.7-1.9zm3.3-5.2h1.3v3.1c.4-.5.9-1 1.8-1 1.3 0 2.1.9 2.1 2.2V71h-1.3v-3.3c0-.9-.5-1.4-1.2-1.4-.8 0-1.3.5-1.3 1.4V71h-1.3v-8zm11.2 2.3h1.4l-2.3 6c-.5 1.2-1 1.6-1.9 1.6-.6 0-1-.1-1.4-.4l.5-1c.2.1.5.2.8.2.4 0 .6-.2.8-.7l-2.4-5.8h1.4l1.6 4.3 1.5-4.2zm2.5 4.3h1.5v1.5h-1.5v-1.5zm3.4-1.4c0-1.7 1.3-3.1 3-3.1 1.1 0 1.8.4 2.3 1l-.8.9c-.4-.4-.8-.7-1.5-.7-1 0-1.7.8-1.7 1.9 0 1 .7 1.9 1.7 1.9.6 0 1.1-.3 1.5-.7l.8.8c-.6.6-1.2 1.1-2.4 1.1-1.6-.1-2.9-1.4-2.9-3.1zm6.8 0c0-1.7 1.3-3.1 3.1-3.1s3.1 1.4 3.1 3c0 1.7-1.3 3-3.1 3-1.8.1-3.1-1.2-3.1-2.9zm4.9 0c0-1-.7-1.9-1.8-1.9s-1.8.8-1.8 1.9c0 1 .7 1.9 1.8 1.9 1.1-.1 1.8-.9 1.8-1.9zm3-2.9h1.3v.9c.4-.5.9-1 1.8-1 .8 0 1.4.4 1.7 1 .5-.6 1.1-1 2-1 1.3 0 2 .8 2 2.2v3.7h-1.3v-3.3c0-.9-.4-1.4-1.2-1.4-.7 0-1.2.5-1.2 1.4v3.3H219v-3.3c0-.9-.4-1.4-1.2-1.4s-1.2.6-1.2 1.4v3.3h-1.3v-5.8zM89 51.5h3.5V32.8H89v-3.4h13.2v3.4h-3.4V40h9.9v-7.2h-3.5v-3.4h13.2v3.4H115v18.7h3.5v3.4h-13.2v-3.4h3.5v-8.2h-9.9v8.2h3.4v3.4H89v-3.4zm29.7-5.6c0-5.6 4.2-9.5 9.8-9.5 5.7 0 9.7 3.8 9.7 9.3 0 5.6-4.2 9.5-9.8 9.5-5.7 0-9.7-3.7-9.7-9.3zm13.3-.1c0-4.9-1.2-6.8-3.7-6.8-2.4 0-3.5 2-3.5 6.8 0 4.9 1.2 6.8 3.7 6.8s3.5-2 3.5-6.8zm13.5.8c.2 4.2 1.9 5.6 4.8 5.6 2.1 0 3.5-.9 4.3-3.2h3c-.7 3.8-3.2 6.2-8.3 6.2-6 0-9.7-3.7-9.7-9.3 0-5.5 4-9.6 9.5-9.6 6.1 0 8.9 4.3 8.7 10.2h-12.3zm0-2.5h6.7C152 40.5 151 39 149 39s-3.3 1.3-3.5 5.1zm42.4 2.5c.2 4.2 1.9 5.6 4.8 5.6 2.1 0 3.5-.9 4.3-3.2h3c-.7 3.8-3.2 6.2-8.3 6.2-6 0-9.7-3.7-9.7-9.3 0-5.5 4.1-9.6 9.5-9.6 6.1 0 8.9 4.3 8.7 10.2h-12.3zm0-2.5h6.7c-.2-3.7-1.2-5.1-3.3-5.1-1.9 0-3.2 1.3-3.4 5.1zm13.2 7.5h2.7V40h-2.7v-3.2h7.9v4.7c1.1-3.4 3.2-5 5.6-5 2.2 0 3.7 1.7 3.7 3.5 0 1.9-1.3 3.3-3 3.3s-3-1-3-2.7v-.3c-1 .1-2.3 1.2-3 3.5v7.9h3.4v3.2h-11.6v-3.3zm44.1-11.7v3.2h-2.4c-1.3 2.3-2.8 4.5-4.4 6.2 1.3 1.8 1.9 2.2 2.8 2.2 1 0 1.5-.6 2.1-2.4l2.1.7c-.7 3.2-2.4 5.7-5.7 5.7-2.3 0-3.6-.8-5.5-3.1-2 2.1-4.4 3.1-7.2 3.1-5.1 0-8.1-2.9-8.1-6.7 0-3.7 2.6-5.6 5.9-6.9-1.8-1.8-2.7-3.2-2.7-5.3 0-3.4 3-6.2 7.6-6.2 4.4 0 6.7 2.7 6.7 5.3 0 2.9-2.2 4.3-5 5.6 2.2 2.1 3.8 3.9 5.3 6.1 1.1-1.3 2.1-2.7 2.8-4.2h-2.7V40h8.4zm-12.6 10.6c-1.9-2.7-4-5.1-6.2-7.1-1.3 1-2 2.4-2 4.3 0 2.5 1.6 4.2 4.3 4.2 1.3 0 2.6-.4 3.9-1.4zm-2.8-10.8c1.5-1.1 2.2-2.4 2.2-4s-.8-2.9-2.5-2.9c-1.3 0-2.4 1-2.4 2.4.1 1.4.9 2.6 2.7 4.5zm17.6 2.6c0-7.9 5.6-13.5 12.3-13.5 3.2 0 5.7 1.1 7.2 3l.8-2.9h3.5V39h-3.8c-1.5-4.7-3.7-7-6.9-7-3.6 0-6.2 2.7-6.2 9.9 0 6.9 2.7 9.9 7 9.9 3.8 0 6-2.9 6.7-7.1h3.7c-.7 6.6-4.4 10.8-11.3 10.8-7.9 0-13-5.4-13-13.2zm25.7 3.6c0-5.6 4.2-9.5 9.8-9.5 5.7 0 9.7 3.8 9.7 9.3 0 5.6-4.2 9.5-9.8 9.5-5.7 0-9.7-3.7-9.7-9.3zm13.3-.1c0-4.9-1.2-6.8-3.7-6.8-2.4 0-3.5 2-3.5 6.8 0 4.9 1.2 6.8 3.7 6.8s3.5-2 3.5-6.8zm6.7 6.3c0-1.9 1.5-3.4 3.5-3.4 1.9 0 3.4 1.5 3.4 3.4s-1.5 3.5-3.5 3.5c-1.9-.1-3.4-1.6-3.4-3.5zm-134.3-.5h2.6V40h-3.3v-3.2h3.3v-.2c0-5.9 4.2-8.6 8.9-8.6 1.5 0 2.9.3 3.9.8l4.8-.9v23.7h2.9v3.2h-10.8v-3.2h2.3V40h-6.6v11.6h2.3v3.2h-10.5v-3.2zm8-14.8h6.7v-2.2c-1.6 0-2.7-.9-2.7-2.6 0-.5.2-1.2.5-1.6-.3-.1-.7-.2-1.2-.2-1.9 0-3.3 1-3.3 5.4v1.2zM107.3 7.2l3.4 12.5h.2l3.5-12.5H112V4.6h7.6v2.6h-2.2L112 24.4h-4.6l-3.2-11-4 11h-4.6L90.5 7.2H88V4.6h10.1v2.6h-2.4l3.5 12.5h.2l3.6-10-.7-2.5H100V4.6h9.8v2.6h-2.5zm14.3 10.6c.2 3.3 1.5 4.3 3.7 4.3 1.6 0 2.7-.7 3.4-2.5h2.3c-.5 2.9-2.5 4.8-6.4 4.8-4.7 0-7.5-2.9-7.5-7.2 0-4.3 3.1-7.5 7.4-7.5 4.7 0 6.9 3.4 6.7 7.9h-9.6zm0-1.8h5.2c-.1-2.8-.9-4-2.5-4-1.5 0-2.5 1-2.7 4zm11.7-9.8h-2V3.6h6.4V13c.9-1.8 2.3-3.1 4.5-3.1 1.6 0 2.7.6 3.6 1.4 1.3 1.3 1.9 3.4 1.9 5.9 0 2.5-.7 4.6-2 5.8-.9 1-2.2 1.5-3.7 1.5-2.5 0-4-1.2-4.9-3l-1.4 2.9h-2.3V6.2zm9.6 11.1c0-3-.8-4.6-2.5-4.6-1.9 0-3 2.1-3 4.8 0 2.8 1.1 4.6 3 4.6 1.8 0 2.5-1.6 2.5-4.8zm5.8 4.5h2v-9h-2.5v-2.5h2.5v-.5c0-4.3 3.1-6.4 6.6-6.4 3 0 4.4 1.2 4.4 2.9 0 1.2-.9 2.2-2.2 2.2-1.3 0-2.2-.7-2.2-2.1 0-.4.2-.9.4-1.2-.2-.1-.4-.2-.7-.2-1.3 0-2.1.8-2.1 3.6v1.5h4.2v2.5h-4v9h3v2.5h-9.4v-2.3zm56.4-2.4h2.5c1.2 1.9 2.6 3.1 4.3 3.1 1.3 0 1.8-.5 1.8-1.4 0-1.1-.8-1.5-3.6-2.2-3.4-.9-5.1-1.9-5.1-4.5 0-2.5 2-4.5 5.1-4.5 1.8 0 3.1.7 3.9 1.7l.6-1.7h2.3v4.8h-2.5c-1.1-1.7-2.3-2.8-3.8-2.8-1.2 0-1.8.5-1.8 1.3 0 1 .8 1.4 3.5 2.1 3.1.8 5.2 1.8 5.2 4.6 0 2.4-1.9 4.6-5.3 4.6-2.2 0-3.4-.9-4.3-1.9l-.6 1.6H205v-4.8zm-45.8-2.1c0-4.3 3.3-7.4 7.6-7.4 4.5 0 7.5 2.9 7.5 7.2 0 4.3-3.2 7.4-7.6 7.4-4.4.1-7.5-2.8-7.5-7.2zm10.3-.1c0-3.8-.9-5.3-2.9-5.3-1.9 0-2.7 1.5-2.7 5.3s1 5.3 2.9 5.3c2 0 2.7-1.5 2.7-5.3zm5.8 4.6h2.1v-9h-2.1v-2.5h6.2V14c1-2.3 2.5-4 5.1-4 3 0 4.3 2 4.3 4.9v6.9h2v2.5h-8v-2.5h1.6v-6.3c0-1-.2-1.7-.6-2.1-.3-.3-.8-.5-1.4-.5-1.4 0-2.7 1.4-2.7 3.4v5.5h1.6v2.5h-8v-2.5zm23.9-15.2v3.6h4.7v2.5h-4.7v7.1c0 1.3.4 2 1.5 2 .9 0 1.3-.7 1.7-2.5l1.8.5c-.5 3.3-2 4.7-4.8 4.7-3.1 0-4.6-1.6-4.6-4.8v-7h-2.5v-2.5h2.6V7.1l4.3-.5zm23.5-.4h-2V3.6h6.4V13c.9-1.8 2.3-3.1 4.5-3.1 1.6 0 2.7.6 3.6 1.4 1.3 1.3 1.9 3.4 1.9 5.9 0 2.5-.7 4.6-2 5.8-.9 1-2.2 1.5-3.7 1.5-2.5 0-4-1.2-4.9-3l-1.4 2.9h-2.3V6.2zm9.6 11.1c0-3-.8-4.6-2.5-4.6-1.9 0-3 2.1-3 4.8 0 2.8 1.1 4.6 3 4.6 1.7 0 2.5-1.6 2.5-4.8zm9.7 8.9c0 .4-.1.8-.3 1.1 1.2-.1 2-.7 2.8-2.8-1.6-3.4-5.6-11.8-5.6-11.8h-1.9v-2.5h8.8v2.5h-2.1l3.1 7.3 2.8-7.3h-1.8v-2.5h6.1v2.5h-1.7l-4.8 11.1c-1.4 3.4-3 5.6-6.3 5.6-2.5 0-3.9-1.3-3.9-3.1 0-1.4.9-2.5 2.3-2.5 1.8.1 2.5 1.3 2.5 2.4zM77.8 38.8c-2.5 0-4.6-1.3-5.8-3.4-2.1 1.2-4.2 2.9-6.3 5.6 3.4 4 5.8 5.6 8.4 5.6 2.8 0 6.4-2.2 7.7-9.2-1.2.8-2.5 1.4-4 1.4zM51.2 14.9c-2.1 0-3.7 1.7-3.7 4 0 3.1 2.1 5 5.1 8 1.5-2.3 2.4-4.6 2.4-6.7 0-3.1-1.6-5.3-3.8-5.3zm5.1 15.6c2.1 2.2 3.8 4.2 5.5 6.2 2.7-4.4 3.3-7.6.2-10.7-1.3 1.3-3.1 2.8-5.7 4.5zM29.8 43.2c0-5.7 3.9-9.9 11-12.4-2.8-3-4.2-5.4-4.2-9.3 0-5.8 5.7-11.5 14.8-11.5 8.3 0 12.8 5.2 12.8 10 0 1.7-.3 3.2-1.3 4.6 3.7-.2 6.4 1.4 6.6 4.9 2.3-3.3 4.8-5.1 8.2-5.1.4 0 .8 0 1.2.1-2.7-4-7-7-12.4-8.5-1.3-9.6-8.7-16-18-16C40.7 0 34 4.6 31 11.2c-1.2-.3-2.5-.6-3.8-.6-7.4 0-13.5 5.6-14.2 12.8C5.6 24.6 0 31.3 0 39c0 8.6 7 15.8 16.4 15.8h22.8c-5.5-1.7-9.4-6.2-9.4-11.6zm28.8 6.4c-2.4 2.6-5.1 4.4-8.2 5.3h15.1c-2.1-.9-4.3-2.5-6.9-5.3zm-9.2-2.4c2.1 0 3.6-.5 5.1-1.7-3.8-4.7-7.6-8.7-10.1-11.1-1.4 1.6-2.2 3.4-2.2 5.5.1 4.1 3.1 7.3 7.2 7.3z" class="st0"/></svg>