<svg xmlns="http://www.w3.org/2000/svg" width="2200" height="640" viewBox="0, 0, 2200, 640"><path fill="none" d="M0 0h2200v640H0z"/><path d="M66.57 515.077c6.223.258 12.53 1.13 18.41 3.284l-.002-.054.888.32 77.475-75.58 2.844 3.79c4.03 5.45 8.293 10.425 12.794 15.4l1.66 1.896c1.184 1.184 2.13 2.37 3.316 3.554l1.895 1.896 1.895 1.895 1.658 1.66 1.896 1.894 1.657 1.66 2.133 1.895 1.895 1.66C233 510.806 278.015 528.1 325.4 529.286c39.094.948 77.238-9.003 110.646-28.668l5.923 6.16c6.87 7.344 13.977 14.69 20.85 22.034-41.227 26.535-89.086 39.803-138.368 38.62-55.44-1.423-108.275-21.325-150.685-56.864l.235-.474-49.71 49c1.84 5.796 2.574 11.87 2.65 17.932 0 34.226-27.744 61.972-61.97 61.972S3 611.254 3 577.028s27.746-61.97 61.972-61.97l1.6.02zM540.294 195.455c24.405 40.04 36.487 86.242 35.302 133.155-1.42 57.335-22.98 112.066-60.89 154.95l.238.238 30.563 32.458c12.32-1.658 24.64 2.606 33.17 11.61 14.453 15.4 13.978 39.567-1.422 54.257-15.4 14.452-39.567 13.978-54.256-1.422-8.53-9.003-12.085-21.56-9.716-33.643-14.215-15.164-39.33-41.936-53.783-57.1l-3.078-3.317 3.554-2.842c9.24-7.345 17.77-15.4 25.587-24.405 32.46-36.487 50.704-82.925 51.89-131.732.946-36.96-7.82-73.21-25.59-105.195l28.43-27.01zM108.58 50.632c10.89-.16 21.1 4.137 28.7 11.906 8.528 9.004 12.082 21.56 9.713 33.645l58.76 61.6-3.555 2.843c-9.24 7.345-17.77 15.4-25.59 24.405-32.457 36.487-50.7 82.926-52.123 131.733-.948 36.96 7.82 73.21 25.59 105.433l-28.197 27.483c-24.64-40.28-36.96-86.48-35.54-133.865 1.224-57.04 23.457-112.137 60.784-155.064l-32.352-33.767c-12.32 1.658-24.64-2.606-33.17-11.61-14.45-15.4-13.978-39.567 1.422-54.256 5.994-5.623 13.72-9.25 21.887-10.224 1.217-.145 2.445-.174 3.67-.26zM603.003 1.416c34.226 0 61.97 27.745 61.97 61.97 0 34.227-27.744 61.973-61.97 61.973-6.586.072-13.067-1.14-19.332-3.088l-.017.068-.95-.333-84.11 79.846-2.84-3.79c-4.502-5.924-9.478-11.848-14.69-17.298l-.95-1.184-2.605-2.605-.473-.474-1.66-1.658-.474-.473-2.13-2.133-1.658-1.422-1.66-1.422-2.13-1.895-1.66-1.422-2.133-1.896c-35.777-30.09-80.556-47.148-127.467-48.333-39.094-.947-77.24 8.767-110.41 28.67l-27.01-28.196C239.87 89.786 287.73 76.518 337.01 77.703c55.44 1.42 108.275 21.323 150.687 57.1h.473l55.7-52.88c-1.963-5.98-2.76-12.26-2.84-18.535 0-34.226 27.747-61.97 61.973-61.97z"/><path d="M332.896 139.756c7.002.03 13.986.572 20.936 1.384 99.983 12.557 170.824 103.774 158.505 203.758C499.78 444.88 408.562 515.723 308.58 503.403c-99.986-12.558-170.827-103.775-158.506-203.758C162 206.895 239.93 140.08 332.896 139.755zm-2.75 78.304c-40.474 3.24-69.763 33.857-70.79 74.536.732 29.016 15.592 53.51 41.505 66.855l-14.08 66.217h94.415l-14.063-66.227c25.766-13.994 41.078-37.14 41.488-66.844-.55-41.98-33.035-73.58-74.633-74.633l-3.84.097zm1.414-.393h-.236l.118.002.118-.003z"/><g><path d="M818.88 233.646c-4.6 0-7.82.92-13.34 8.28l-76.36 99.36 33.12-186.3c1.38-6.9-2.3-9.2-7.82-9.2h-69c-8.28 0-10.58 4.14-11.5 9.2l-59.34 336.26c-1.38 7.36 3.22 10.12 8.28 10.12h69c5.06 0 10.12-5.06 11.04-10.12l18.4-104.88 40.02 104.88c2.76 7.36 6.44 10.12 11.5 10.12h82.8c5.98 0 8.28-5.52 5.98-10.12l-58.88-128.8 104.88-119.14c3.68-3.68 3.22-9.66-3.22-9.66zm320.22 94.76c0-54.74-31.28-98.9-97.98-98.9-76.82 0-129.26 34.04-144.44 125.12l-5.06 30.36c-1.38 8.28-1.84 16.1-1.84 23.46 0 65.32 50.6 97.06 101.66 97.06 38.64 0 69.92-4.6 100.74-14.26 7.82-2.3 10.12-5.52 11.5-12.88l7.36-41.4v-1.84c0-4.14-2.76-5.98-6.9-5.98h-1.84c-17.48 1.84-63.94 3.68-88.32 3.68-23 0-37.72-3.22-37.72-26.22 0-4.14.46-8.74 1.38-14.26h143.06c5.52 0 10.58-4.14 11.5-10.12l4.6-27.6c1.38-8.74 2.3-17.48 2.3-26.22zm-82.8-3.22c0 5.52-.92 11.96-2.3 18.4h-68.08c5.52-26.22 16.56-45.54 42.32-45.54 20.7 0 28.06 11.04 28.06 27.14zm392.44-84.64c0-3.68-4.14-6.9-8.28-6.9h-75.9c-5.06 0-9.66 3.68-11.5 8.74l-65.78 166.52h-3.68c-2.76 0-3.22-2.3-3.68-7.82l-8.28-158.24c-.46-5.06-2.3-9.2-7.36-9.2h-74.06c-7.82 0-11.5 3.68-11.5 8.74v1.38l26.68 218.96c2.76 23.46 14.72 31.74 36.34 31.74h5.98l-6.44 15.18c-5.52 13.34-15.18 17.48-28.06 17.48-17.48 0-45.08-2.76-62.1-3.68h-.46c-5.52 0-11.04 4.6-11.96 9.66l-7.82 44.62v1.38c0 4.14 4.14 5.52 8.74 7.36 11.96 4.6 42.32 8.28 60.72 8.28 72.22 0 98.44-28.52 120.98-77.74l126.5-273.24c.46-.92.92-2.3.92-3.22zM1653.14 244.226c0-4.6-2.76-5.98-7.82-7.36-12.42-3.22-34.5-7.36-61.64-7.36-70.84 0-116.38 35.42-131.1 120.98l-5.98 34.5c-1.38 9.2-2.3 17.94-2.3 26.22 0 53.82 31.28 94.3 90.62 94.3 27.14 0 48.3-3.68 64.4-7.36 6.44-1.38 10.12-3.68 11.04-9.66l9.2-51.52v-1.84c0-4.14-3.22-6.9-7.36-6.9h-.92c-16.1.92-30.82 2.76-53.36 2.76-15.64 0-24.84-5.52-24.84-26.22 0-5.52.46-11.96 1.84-19.78l5.98-34.5c6.44-38.18 19.78-46.46 39.56-46.46 22.54 0 36.34 2.3 51.98 3.22h.92c5.06 0 9.66-3.68 10.58-8.74l9.2-51.98v-2.3zm287.1-90.62c0-4.6-4.14-7.82-8.74-7.82h-68.54c-5.06 0-9.66 4.14-10.58 9.2l-13.8 77.74c-9.2-1.38-24.84-3.22-32.2-3.22-83.72 0-125.58 34.96-140.76 120.06l-6.44 35.88c-1.38 8.28-2.3 16.1-2.3 23.46 0 56.58 39.1 96.6 102.12 96.6 41.4 0 80.5-6.44 105.34-11.5 14.72-3.22 17.02-5.98 18.4-14.72l57.5-324.3v-1.38zm-114.54 150.88l-22.08 126.04c-8.74 1.38-18.4 2.3-31.74 2.3-19.78 0-26.68-11.5-26.68-29.44 0-5.52.46-11.5 1.84-17.94l6.44-35.88c4.6-26.68 15.64-46.92 41.4-46.92 11.04 0 21.62.92 30.82 1.84zm370.82 3.22c0-51.52-21.16-78.2-72.22-78.2-17.02 0-42.32 4.14-74.52 25.3l2.3-11.96c1.38-6.9-1.84-9.2-7.82-9.2h-63.02c-5.06 0-9.66 4.14-10.58 9.2l-44.16 248.4c-.92 6.44 4.14 10.12 10.58 10.12h65.78c6.9 0 11.5-4.6 12.42-10.12l31.28-178.02c8.28-4.6 25.3-10.12 39.1-10.12 15.64 0 21.62 3.68 21.62 17.94 0 7.82-1.84 15.64-3.22 23.46l-25.76 146.74c-.92 4.6 0 10.12 7.82 10.12h69c5.52 0 10.58-5.06 11.5-10.12l25.3-143.52c2.3-12.88 4.6-28.06 4.6-40.02zM1826.663 596.957c0-1.25-.834-2.085-2.224-2.085h-12.372c-1.53 0-3.058 1.112-3.336 2.64l-2.64 15.708v.556c0 1.25.833 2.224 2.223 2.224h12.37c1.53 0 3.06-1.25 3.337-2.78l2.64-15.707v-.556zm78.52-60.326c-18.07 0-32.805 7.507-37.67 33.778l-2.363 12.927c-.417 2.502-.695 4.865-.695 7.09 0 15.845 10.703 26.687 26.55 26.687 8.478 0 14.872-.973 18.208-1.807 2.78-.556 3.058-1.39 3.475-3.614l1.668-9.034c.278-1.807-.417-2.363-2.502-2.085-5.004.557-9.174.974-18.21.974-5.698 0-10.84-1.807-10.84-11.26 0-1.945.138-4.308.694-6.95l2.363-12.926c2.642-14.456 10.01-18.21 16.542-18.21 9.035 0 13.344.418 17.792.974 2.224.417 2.92-.556 3.197-2.085l1.67-9.035c.416-2.363-.14-3.058-2.364-3.614-3.058-.834-9.035-1.807-17.514-1.807zm112.017 27.384c0-14.595-8.757-27.383-27.8-27.383-21.823 0-35.167 11.816-39.337 34.612l-2.085 11.26c-.417 2.223-.556 4.447-.556 6.67 0 14.596 8.896 27.94 27.8 27.94 21.823 0 34.89-11.676 39.198-34.61l2.085-11.26c.417-2.363.695-4.865.695-7.228zm-18.487 1.112c0 1.807-.14 3.892-.556 6.116l-2.085 11.26c-2.363 12.926-8.34 18.764-18.07 18.764-8.2 0-12.232-4.448-12.232-12.65 0-1.806.14-3.89.556-6.115l2.085-11.258c2.503-13.76 9.73-18.765 18.21-18.765 8.2 0 12.093 4.448 12.093 12.65zm155.108-8.2c0-12.51-5.976-20.295-19.18-20.295-9.592 0-17.376 2.225-24.465 6.812-2.363-3.614-6.95-6.81-14.873-6.81-8.2 0-14.178 2.918-20.572 6.67l.556-2.918c.278-1.53-.556-2.78-2.363-2.78h-12.093c-1.53 0-2.92 1.25-3.197 2.78l-12.788 72.697c-.278 1.808.556 2.92 2.224 2.92h12.787c2.502 0 3.058-1.39 3.336-2.92l9.87-56.155c6.254-3.058 10.702-4.587 13.62-4.587 5.7 0 7.924 1.53 7.924 6.672 0 1.807-.14 4.03-.695 6.81l-8.34 47.26c-.417 2.086.556 2.92 2.224 2.92h12.788c2.502 0 3.058-1.39 3.336-2.92l8.34-47.26c.556-3.474.834-7.088.695-10.007 5.56-2.64 11.398-3.475 14.04-3.475 5.976 0 8.34 1.668 8.34 7.09 0 1.667-.28 3.752-.696 6.393l-8.34 47.26c-.28 1.808.555 2.92 2.223 2.92h12.788c2.642 0 3.06-1.39 3.337-2.92l8.34-47.26c.556-3.196.834-6.115.834-8.895z"/></g></svg>