<svg xmlns="http://www.w3.org/2000/svg" viewBox="0 0 141.266 45.248">
  <path d="M55.84 19.234h-5.22v-2.707h13.618v2.707h-5.193v15.36H55.84v-15.36zm8.11 1.796h2.626l.22 2.403h.112c.967-1.77 2.403-2.733 3.84-2.733.69 0 1.132.082 1.547.276l-.553 2.762c-.47-.14-.83-.22-1.41-.22-1.076 0-2.374.745-3.203 2.788v8.287h-3.18V21.03zm17.017 4.89c-.026-1.437-.635-2.65-2.458-2.65-1.36 0-2.63.607-3.82 1.324l-1.16-2.127c1.49-.94 3.39-1.768 5.55-1.768 3.39 0 5.05 2.07 5.05 5.85v8.04h-2.6l-.24-1.49h-.09c-1.21 1.02-2.59 1.82-4.19 1.82-2.38 0-4.04-1.61-4.04-3.98 0-2.9 2.43-4.42 7.98-5.03zm-2.955 6.52c1.104 0 1.96-.554 2.954-1.493V27.91c-3.674.47-4.89 1.437-4.89 2.79.002 1.214.803 1.74 1.936 1.74zm7.04-11.41h3.23l2.156 7.044c.358 1.325.772 2.707 1.133 4.09h.11c.39-1.383.78-2.765 1.16-4.09L95 21.03h3.066l-4.61 13.563H89.78L85.052 21.03zm14.202-4.17c0-1.078.83-1.824 1.962-1.824 1.133 0 1.96.746 1.96 1.823 0 1.04-.827 1.79-1.96 1.79s-1.962-.75-1.962-1.8zm.36 4.17h3.176v13.563h-3.177V21.03zm6.488 9.972c1.216.94 2.377 1.52 3.758 1.52 1.464 0 2.154-.69 2.154-1.628 0-1.134-1.466-1.63-2.9-2.184-1.796-.663-3.812-1.685-3.812-3.95 0-2.376 1.906-4.06 4.945-4.06 1.878 0 3.397.773 4.502 1.63l-1.47 1.934c-.94-.69-1.91-1.16-2.99-1.16-1.36 0-1.99.634-1.99 1.49 0 1.05 1.35 1.493 2.81 2.018 1.85.69 3.89 1.574 3.89 4.117 0 2.31-1.86 4.19-5.28 4.19-1.85 0-3.81-.8-5.14-1.88l1.49-2.05zm24.502-14.806c2.21 0 4.005 1.077 5.138 2.293l-1.768 1.98c-.94-.91-1.96-1.49-3.344-1.49-2.956 0-5.083 2.48-5.083 6.54 0 4.11 1.96 6.6 4.974 6.6 1.61 0 2.79-.67 3.82-1.8l1.77 1.96c-1.46 1.68-3.34 2.62-5.63 2.62-4.58 0-8.2-3.32-8.2-9.31 0-5.91 3.7-9.42 8.34-9.42zm7.456.33h3.205v18.067h-3.204V16.527z" fill="#353635"/>
  <path fill="#EAEAEA" d="M44.668 15.986c-.013-.153-.03-.307-.048-.458-.013-.108-.03-.22-.05-.325-.408-.344-.873-.65-1.356-.928-.525-.308-1.072-.58-1.634-.836-.556-.27-1.127-.5-1.702-.74-.287-.12-.576-.23-.865-.34-.29-.12-.582-.22-.875-.33.614.1 1.224.24 1.827.39.394.1.784.21 1.173.33C38.375 5.56 31.77.85 24.558.85 17.35.86 10.743 5.56 7.98 12.78c.388-.122.778-.236 1.17-.337.605-.155 1.215-.296 1.83-.397-.294.106-.585.212-.876.325-.29.11-.578.22-.866.34-.575.23-1.145.47-1.702.73-.56.26-1.106.53-1.632.84-.484.28-.948.59-1.358.93-.017.11-.034.22-.048.33-.018.15-.036.31-.048.46-.027.31-.038.62-.04.93-.006.62.036 1.24.114 1.85.085.62.197 1.23.364 1.82.082.3.175.59.282.87.055.14.112.28.175.42.03.07.06.13.094.2l.04.08c.04.03.09.05.13.07l.27.13.54.25.02-.02-.51-1.94c.1-.03 1.07-.28 2.74-.6-.14-.02-.27-.05-.41-.08-.38-.09-.76-.21-1.12-.35-.18-.07-.36-.16-.53-.25-.17-.09-.34-.2-.47-.35 1.83.6 5.62.33 8.98-.02 3.08-.32 6.16-.52 9.27-.53 3.1.01 6.18.21 9.26.53 3.37.35 7.15.62 8.99.02-.13.15-.3.26-.47.36-.17.1-.34.18-.52.26-.37.15-.74.26-1.12.36-.06.02-.11.03-.17.04 1.83.34 2.89.62 3.01.65l-.49 1.85.29-.13.27-.13.14-.06.04-.07c.03-.06.06-.13.09-.2.06-.13.12-.27.18-.41.1-.28.2-.57.28-.87.17-.59.28-1.2.36-1.81.08-.61.12-1.23.11-1.85 0-.31-.01-.62-.04-.93z"/>
  <path fill="#F4F4F4" d="M26.64 41.664c-.244.036-.487.065-.728.085-.156 0-.32.02-.47.02h-.055c.188-.42.33-.74.438-.99.22.24.498.55.814.88zm.526.538c.754.744 1.688 1.173 2.716 1.25-1.727.7-3.354.97-4.606 1.056-1.25.083-2.518-.063-3.758-.403.104-.02.18-.033.27-.043.104-.014 2.33-.305 3.333-1.795l.1.002.25-.01c.17 0 .32-.02.48-.02.38-.04.75-.09 1.11-.16l.12.11z"/>
  <path fill="#939393" d="M29.3 19.86c-.07.095-.15.198-.237.307-.44.558-1.052 1.27-1.778 1.968-.843-.026-1.71-.04-2.6-.04-1.476 0-2.89.038-4.23.104 1.896-.79 4.173-1.56 6.64-2.02.72-.14 1.458-.25 2.206-.33zm-11.093.85c-.677.475-1.44 1.08-2.182 1.817-1.9.19-3.553.42-4.92.64 2.1-.964 4.497-1.853 7.102-2.458zm23.187 3.917l-.772 5.4-3.698 2.59-9.645-1.097-1.46-4.78c-.04-.116-.13-.2-.26-.222-.36-.06-.68-.086-.94-.086-.27 0-.58.027-.94.086-.12.02-.22.104-.25.222l-1.42 4.665-9.59 2.134-3.8-2.67-.75-6.06c.16-.1.33-.19.49-.28.23-.05.5-.11.79-.16l.7 5.72c.01.09.06.17.13.22l2.61 1.83c.05.04.11.06.18.06.02 0 .04-.01.07-.01l7.88-1.76.08-.03c.07-.04.13-.11.15-.19l1.42-4.68c.38-.1 1.35-.33 2.21-.33.86 0 1.83.23 2.22.32l1.42 4.67c.04.12.14.21.27.22l7.88.9c.07 0 .15-.02.21-.06l2.61-1.83c.07-.05.12-.13.13-.22l.69-4.89c.52.1.96.19 1.3.26zm.974-3.387l-.68 2.575c-1.388-.308-4.437-.907-8.587-1.312 1.36-.578 2.74-1.303 4-2.21 2.47.35 4.29.725 5.27.947z"/>
  <path d="M14.562 29.297c.538-.29 1.146-.248 2.096-.246.102.01.207.01.317 0h.287c.98-.01 1.795.09 1.78-1.45-.016-1.54-.7-2.78-1.68-2.77-.978.01-1.927 1.27-1.868 2.81.017.4.075.69.17.9-.854.22-1.09.75-1.102.78zm11.78-6.33c-.38.31-.78.597-1.195.85l-1.392.837c-.873.106-1.63.322-1.672.336-.024.006-.05.018-.07.03-.068.04-.12.105-.145.183l-1.416 4.666-7.57 1.68-2.383-1.67-.7-5.62c1.35-.25 3.16-.54 5.34-.78-.24.28-.46.57-.68.88l-1.3 1.86 1.88-1.26c.02-.02 1.23-.81 3.19-1.77 1.96-.15 4.12-.24 6.43-.24.56-.01 1.11 0 1.65.01zm8.29 5.7c-.01-.038-.216-.656-1.127-.548.105-.23.152-.54.12-.97-.12-1.54-1.015-2.76-1.993-2.72-.98.03-1.605 1.31-1.552 2.85.054 1.53.876 1.52 1.855 1.49 1.315-.03 2.038-.43 2.697-.11zm4.83-4.423l-.682 4.776-2.404 1.685-7.56-.858-1.41-4.646c-.032-.1-.112-.18-.215-.21-.04-.01-.98-.28-1.97-.36l.18-.01c.16-.01 2.77-.33 5.88-1.4 3.45.27 6.27.69 8.19 1.04z" fill="#F4F4F4"/>
  <path fill="#F4F4F4" d="M42.763 26.347c.115.096.208.342.104 1.494-.127 1.42-.72 3.89-1.088 4.29-.41.08-1.26-.01-1.78-.13.09-.35.11-.52.19-.89l.9-.63c.07-.05.12-.13.13-.21l.63-4.44c.38.21.78.44.9.54zm-15.085 5.858l-.034.298s-1.045.97-2.728 1.186c-1.682.21-3.004-.82-3.004-.82.056.18.134.58.515.93-.448-.06-.933-.09-1.44-.09-.183 0-.368 0-.547.01-1.035.05-2.492 1.62-3.517 3.19-.502.16-2.072.66-3.892 1.19-1.69-2.35-2.53-4.75-2.61-5l-.1-.29.44.3 1.08.75.36.25c.06.04.12.06.18.06.03 0 .05-.01.07-.01l9.91-2.21c.11-.03.2-.11.23-.22L24 27.11c.246-.034.46-.05.645-.05s.398.015.643.05l1.452 4.79c.036.125.142.21.267.227l.68.072z"/>
  <path fill="#F4F4F4" d="M38.987 31.946l.32-.225c-.054.23-.11.45-.17.67-.445 1.43-.97 2.69-1.553 3.8-.13.01-.265.02-.41.02-.45 0-.91-.03-1.418-.08-.882-.08-2.282-.24-2.725-.29-.38-.3-1.68-1.34-2.76-2.19-.04-.03-.08-.06-.11-.1-.19-.16-.41-.34-.85-.34-.4 0-.98.15-2.39.57.74-.55.74-1.25.74-1.25l.04-.29 9.3 1.05c.08.01.16-.01.22-.05l.94-.65.87-.6z"/>
  <path fill="#686969" d="M35.87 19.952c.002 0 .004 0 .007.003-.076.054-.15.11-.227.164-3.054 2.13-6.586 3.03-8.622 3.39 1.438-1.19 2.56-2.6 3.125-3.36.176-.24.3-.42.36-.51 1.04.04 2.077.09 3.116.15.74.04 1.49.09 2.24.15zm-11.433-.438c.525.002 1.053.008 1.58.015-.886.19-1.744.42-2.564.67-2.74.84-5.065 1.93-6.65 2.76 1.768-1.69 3.645-2.64 3.858-2.74l.03-.02 1.43-.68c.78-.02 1.55-.03 2.33-.03zm-5.227.106c-.922.18-1.82.394-2.693.638-5.484 1.534-9.927 4.197-12.477 5.97 2.625-3.14 6.446-5.537 7.443-6.134.107-.014.215-.025.324-.036.378-.04.76-.072 1.142-.102.76-.058 1.52-.11 2.29-.152 1.32-.075 2.64-.136 3.96-.183z"/>
  <path fill="#969696" d="M32.146 12.395c.027.826.008 2.325-.377 3.728-.02.054-.02.11 0 .16-.49-.05-.98-.095-1.48-.135.55-1.152.67-2.38.69-2.812.42-.3.84-.66 1.15-.94zm-14.023.94c.026.433.146 1.657.695 2.81-.49.04-.98.084-1.47.136.015-.05.016-.1 0-.15-.384-1.4-.403-2.9-.376-3.73.308.28.727.64 1.15.94z"/>
  <path fill="#303030" d="M34.632 28.666c-.658-.32-1.382.085-2.697.108-.98.035-1.802.047-1.855-1.49-.054-1.54.573-2.812 1.552-2.848.98-.033 1.872 1.187 1.992 2.722.033.424-.014.73-.12.96.913-.107 1.12.51 1.128.548zm-3.076-2.254c.275-.006.495-.233.49-.51-.004-.276-.23-.497-.51-.49-.274.004-.495.23-.49.51.005.274.233.495.51.49z"/>
  <circle fill="#F4F4F4" cx="31.547" cy="25.912" r=".501"/>
  <path fill="#303030" d="M19.042 27.59c.016 1.537-.8 1.444-1.78 1.454-.1.003-.192.005-.286.005h-.317c-.96 0-1.56-.05-2.1.24.01-.03.25-.56 1.1-.78-.1-.21-.16-.5-.17-.9-.06-1.54.89-2.8 1.87-2.81.98-.01 1.66 1.23 1.67 2.77zm-1.513-.807c.27-.007.49-.237.48-.513-.01-.277-.24-.496-.52-.487-.28.006-.5.237-.49.513 0 .277.23.495.51.487z"/>
  <circle fill="#F4F4F4" cx="17.515" cy="26.283" r=".501"/>
  <path d="M11.562 17.143s.15-1.982.463-2.743c.16-.39 1.14-.64 1.887-.818.748-.178 1.94-.534 2.172.517.23 1.05.605 1.81.855 2.15l-.33-4.33-5.15 1.24-.34 3.83.16.3.26-.16m26.04 0s-.16-1.99-.47-2.75c-.16-.39-1.15-.64-1.89-.82-.75-.18-1.94-.54-2.18.52-.23 1.05-.61 1.81-.86 2.15l.32-4.33 5.14 1.24.34 3.83-.16.3-.27-.16M30.32 4.19s-.134 10.37-2.56 10.37h-6.3c-2.423 0-2.62-10.37-2.62-10.37l-1.19 3.52.02 4.832.848.67.39 2.072.54 1.21 10.373.02.48-.87.41-1.46.06-.92L31.91 10l-1.58-5.82zm7.634 9.67s.5 3.58 1.82 4.223c1.32.65 0 0 0 0l-1.85-.56.03-3.67zm-26.806 0s-.5 3.58-1.82 4.223c-1.318.65 0 0 0 0l1.85-.56-.03-3.67z" fill="#BCBCBC"/>
  <path fill="#303030" d="M38.316 17.518c.628.206 1.26.424 1.833.758-.31-.12-.63-.208-.95-.286-.32-.08-.64-.15-.96-.21-.65-.12-1.29-.225-1.94-.303-.65-.085-1.3-.156-1.95-.212-.66-.055-1.31-.11-1.96-.147-2.61-.16-5.23-.2-7.85-.203-2.62 0-5.24.05-7.85.204-.65.03-1.3.09-1.96.14-.65.05-1.31.12-1.95.21-.65.08-1.3.18-1.94.3-.32.06-.64.13-.96.21-.32.07-.64.16-.94.28.57-.34 1.2-.56 1.83-.76l.16-.05c-.01-.02-.01-.03-.01-.04-.01-.08-.25-1.8.16-4.26.02-.12.1-.22.22-.25l.66-.19c.14-5.16 2.27-7.59 2.33-7.66-1.9 3.05-1.88 6.68-1.85 7.52l4.14-1.18h.01l.05-.01h.01c.02-.01.04 0 .06 0h.01c.01 0 .03.01.05.02l.02.01c.01.01.02.01.04.02 0 0 .01 0 .01.01h.01c0 .01.01.01.01.01 0 .01.11.12.29.28-.05-1.36.02-5.27 1.88-8.51-.04.11-1.52 4.43-1.01 9.27.16.13.34.26.51.38.08.05.13.15.13.25 0 .01.03 1.55.72 2.87.01.02.01.04.02.06 1.69-.12 3.39-.16 5.09-.17 1.69 0 3.39.05 5.08.17 0-.03.01-.05.02-.07.68-1.31.71-2.86.71-2.87 0-.1.05-.19.13-.25.17-.12.34-.25.5-.38.51-4.84-.97-9.16-1.01-9.27 1.86 3.24 1.92 7.15 1.88 8.51.18-.16.29-.27.29-.28l.01-.01.01-.01.01-.01.04-.03.02-.01c.02-.01.03-.02.05-.02h.01c.02-.01.05-.01.07-.01h.02c.02 0 .03 0 .05.01h.01l4.14 1.18c.03-.84.05-4.47-1.85-7.52.06.07 2.19 2.5 2.33 7.66l.67.19c.11.03.2.13.22.24.4 2.46.17 4.18.16 4.25 0 .01 0 .02-.01.04.05.01.1.03.15.05zm-.752-.22c.032-.276.18-1.782-.135-3.833l-4.69-1.33c.04.792.06 2.512-.39 4.15l-.02.06.14.014c1.31.15 2.62.36 3.92.64.39.09.78.18 1.17.29zM31.77 16.12c.384-1.402.404-2.9.376-3.728-.31.28-.73.64-1.15.94-.027.433-.147 1.66-.697 2.812.49.04.98.084 1.47.136-.02-.05-.02-.106 0-.16zm-12.952.023c-.55-1.152-.67-2.377-.695-2.81-.424-.3-.843-.66-1.15-.94-.028.828-.01 2.327.376 3.728.01.06.01.11 0 .16.48-.05.97-.09 1.46-.13zm-2.038.197c-.01-.018-.016-.037-.022-.057-.45-1.64-.43-3.358-.39-4.15l-4.68 1.33c-.315 2.05-.168 3.554-.137 3.83.39-.104.78-.2 1.18-.292.65-.14 1.3-.26 1.95-.37.66-.11 1.31-.19 1.97-.27l.14-.01z"/>
  <path fill="#686969" d="M31.68 19.47s-1.983 2.895-5.115 4.163l.276-.675 3.41-3.886 1.43.397zm-7.89-.08s-3.568.753-7.257 3.728l-.198-.12 5.59-3.964 1.865.357zM3.408 26.646s4.877-5.075 10.944-6.98l-3.57.08s-7.096 4.996-7.374 6.9z"/>
  <path fill="#525252" d="M19.33 19.36s-8.517.702-15.724 7.206l.336-.03s8.5-5.633 15.237-6.32l.15-.856zm-2.473 3.664s4.15-3.267 11.756-4.214l-2.045 1.283s-6.718 1.527-9.71 2.93zm9.985.52s5.65-1.68 7.94-3.97l1.922.366s-5.892 3.604-9.862 3.604z"/>
  <path fill="#686969" d="M40.688 35.96l-2.175.613-5.667-.122L29.3 33.7l-4.28 1.072-4.955-.43-2.774 3.03-5.2 1.556-2.6-.806.55.437-.3-.14c.55.81 1.25 1.81 1.86 2.6 1.08 1.38 2.43 2.66 5.03 2.66.33 0 .67-.02 1.03-.06 2.65-.3 3.32-.42 3.69-.48.13-.02.23-.04.35-.06.02-.01 2.19-.28 2.8-1.65.63-1.4.75-1.73.76-1.75l.22-.59c-.3.41-.58.79-.91 1.19-.38.46-.77.93-1.22 1.35-.05.05-.11.1-.18.15-.06.05-.12.1-.21.14-.16.07-.3.11-.45.15-.3.07-.59.13-.89.18-.59.1-1.19.18-1.79.25-1.19.12-2.39.23-3.6.23-.15 0-.3-.01-.45-.01-.15-.01-.31-.03-.47-.07-.3-.07-.59-.19-.86-.34-.53-.31-.99-.71-1.37-1.19.44.41.93.77 1.46 1.02.27.12.55.22.83.27.15.02.28.03.43.03.15 0 .3-.01.45-.01.59-.03 1.19-.08 1.79-.14.6-.06 1.19-.12 1.79-.19.6-.07 1.19-.14 1.78-.23.3-.04.59-.09.87-.16.14-.03.29-.07.4-.12.1-.05.23-.15.34-.24.22-.19.44-.4.65-.61.22-.21.42-.43.63-.65.35-.36.65-.75.99-1.13l.13-.14h.01l.21.15c.4.3.82.63 1.23.91.52.36 1.05.73 1.598 1.04.14.07.28.14.41.19.02 0 .03.01.04.01l.05.01c.03 0 .07.01.1.01.08 0 .15 0 .23-.01.31-.02.62-.06.93-.11.63-.1 1.25-.21 1.88-.34.62-.12 1.24-.24 1.86-.38.62-.137 1.24-.28 1.854-.438.3-.08.61-.16.88-.29.28-.13.54-.305.775-.51.48-.41.888-.92 1.22-1.47-.26.595-.633 1.14-1.1 1.606-.23.23-.5.43-.79.59-.143.08-.302.146-.46.197-.15.06-.3.11-.46.156-1.23.37-2.47.65-3.73.898-.62.12-1.25.23-1.89.32-.32.04-.64.08-.96.09-.09.01-.17.01-.25 0-.05 0-.09-.01-.14-.02-.04 0-.04 0-.07-.01l-.07-.023c-.17-.064-.31-.146-.45-.23-.56-.34-1.06-.74-1.56-1.144-.4-.32-.79-.66-1.17-1l.36.43c.01.01.82.97 1.807 1.95.657.65 1.45.98 2.36.98.31 0 .637-.04.967-.12l.975-.23c1.23-.296 2.62-.63 3.29-.82.13-.04.28-.07.44-.11.9-.21 2.13-.49 2.78-1.8.47-.94 1.096-2.14 1.577-3.06.28-.21.45-.374.45-.374z"/>
  <path opacity=".2" fill="#010101" d="M21.694 31.883s.112.722-.898 1.03c-1.01.31-7.408 2.217-8.14 2.113-.73-.104-2.58-1.34-2.58-1.34l-.45-1.6 2.582 1.393 9.486-1.6z"/>
  <path fill="#303030" d="M29.49 4.328v3.884h-2.753V7.078h-.62v5.24h.936v2.932h-4.815v-2.93h.934V7.077h-.618V8.21h-2.75V4.33"/>
  <path opacity=".2" fill="#010101" d="M27.426 31.743s-.08.726.942.99c1.022.266 7.5 1.893 8.223 1.758.73-.13 2.53-1.45 2.53-1.45l.38-1.61-2.52 1.5-9.54-1.18z"/>
  <path opacity=".2" fill="#010101" d="M42.78 30.067s-1.45 1.852-2.882 1.236l-.46.297.102.752 2.148.27.58-.34.51-2.215zM20.364 44s5.253 2.647 11.2-.955l-1.91-.13s-4.167 1.648-7.467.736l-1.823.35z"/>
  <path fill="#525252" d="M39.305 36.46s-.144.56-.515 1.246v-.003c-.334.552-.74 1.06-1.22 1.47-.238.203-.497.38-.774.512-.272.13-.58.207-.886.29-.614.153-1.234.3-1.856.432-.62.138-1.242.266-1.866.385-.623.125-1.25.237-1.874.335-.312.05-.626.094-.934.115-.075.004-.152.007-.226.006-.034-.002-.07-.004-.097-.008-.004 0-.04-.006-.05-.012-.014-.002-.027-.006-.045-.013-.135-.044-.275-.114-.412-.19-.546-.307-1.073-.674-1.596-1.04-.404-.282-.824-.61-1.23-.913l-.036.05.08.07c-.17-.13-.275-.208-.275-.208l-.08.103-.036-.033c-.337.377-.636.764-.984 1.13-.207.22-.414.437-.626.646-.21.21-.426.423-.647.612-.108.094-.23.19-.333.24-.11.05-.258.086-.398.12-.29.062-.58.11-.88.154-.59.09-1.19.166-1.78.23-.6.07-1.19.13-1.79.185-.6.06-1.19.11-1.79.14-.15.01-.3.02-.45.02-.15 0-.29-.01-.43-.03-.28-.04-.56-.14-.83-.27-.53-.25-1.02-.61-1.46-1.02.06.08.12.15.19.22-.07-.06-.13-.11-.16-.16-.29-.31-3.69-3.24-3.69-3.24l1.17 2.86s2.64 2.84 4.12 3.17c1.48.34 4.14-.02 6.14-.33s3.6-1.02 4.24-2.19c.64-1.17.74-1.5.74-1.5s1.9 2.69 3.55 3c1.64.31 6.52-1.36 6.52-1.36s2.98-.81 3.5-1.83 1.9-4.38 1.9-4.38l-1.93 1.02z"/>
  <path fill="#686969" d="M27.463 5.154H20.63v2.233h1.098V6.253H24v6.893h-.937v1.28h3.163v-1.28h-.935V6.253h2.28v1.134h1.1V5.154"/>
  <path fill="#303030" d="M25.69 39.12l.36.434c.01.01.818.973 1.805 1.95.657.65 1.45.98 2.358.98.312 0 .638-.042.967-.12l.978-.235c1.228-.3 2.62-.63 3.293-.82.14-.04.29-.07.44-.11.9-.21 2.13-.5 2.78-1.8.49-.98 1.15-2.25 1.65-3.19-.42.19-.87.4-1.18.57-.49.25-1.12.38-1.95.38-.49 0-.97-.04-1.5-.09-1.06-.1-2.87-.31-2.89-.32l-.14-.02-.11-.09c-.01-.01-1.59-1.27-2.87-2.28l-.14-.12c-.13-.11-.13-.11-.21-.11-.41 0-1.6.37-4.21 1.18l-.16.05-.15-.06c-.02-.01-1.73-.64-3.78-.64-.17 0-.33 0-.5.01-.2.01-1.36.56-2.83 2.89l-.09.15-.17.05c-.02.01-2.56.82-5.25 1.59l-.17.05-.16-.08-2.07-.96c.55.81 1.25 1.81 1.86 2.6 1.08 1.38 2.43 2.66 5.03 2.66.33 0 .67-.02 1.03-.06 2.65-.3 3.32-.42 3.69-.49.12-.02.22-.04.35-.06.02 0 2.18-.28 2.79-1.65.62-1.39.75-1.73.76-1.74l.22-.59-.06-.06.13-.15c.07.05.14.1.21.16l-.04.05zM9.236 12.707c-.574.23-1.144.47-1.7.732-.56.25-1.108.52-1.633.83-.484.28-.948.58-1.358.93-.018.1-.033.22-.048.32-.017.15-.036.3-.047.46-.027.31-.037.61-.04.92-.007.62.036 1.23.113 1.85.085.61.197 1.22.364 1.81.083.29.175.59.283.87.054.14.112.28.175.41.03.06.06.13.094.19l.03.07c.04.02.09.04.14.06l.27.13c.15.07.36.17.54.24l.02-.02-.51-1.94c.1-.03 1.07-.28 2.74-.6l-.41-.09c-.38-.1-.76-.21-1.12-.36-.18-.08-.36-.16-.53-.26-.17-.1-.34-.21-.47-.36 1.83.6 5.62.33 8.99-.02 3.08-.32 6.16-.52 9.27-.53 3.1.01 6.19.21 9.26.53 3.37.35 7.15.62 8.99.02-.13.15-.3.26-.46.35-.17.1-.35.18-.53.26-.36.14-.74.26-1.12.35l-.17.04c1.83.34 2.89.61 3.01.64l-.49 1.85.29-.13.27-.14.14-.07.03-.08c.03-.06.07-.13.1-.2.06-.13.12-.27.17-.41.11-.28.2-.57.29-.87.16-.59.28-1.2.36-1.81.08-.61.12-1.23.11-1.85-.01-.31-.02-.62-.04-.92-.02-.15-.03-.3-.05-.46-.01-.11-.03-.22-.05-.33-.41-.34-.87-.65-1.36-.93-.53-.3-1.07-.58-1.64-.83-.56-.26-1.13-.5-1.7-.73-.29-.115-.58-.23-.87-.34-.29-.11-.58-.22-.87-.32.61.1 1.22.24 1.82.394.39.1.78.21 1.17.334C38.37 5.56 31.77.85 24.56.85 17.346.857 10.74 5.56 7.98 12.78c.388-.122.778-.236 1.17-.337.605-.155 1.215-.296 1.83-.397-.293.106-.585.213-.876.324-.29.11-.578.222-.867.337zM45.6 16.885c.033.665.017 1.33-.06 1.992-.07.66-.193 1.314-.37 1.963-.09.322-.194.64-.32.957-.06.158-.127.315-.2.473-.037.078-.076.154-.12.234l-.064.116c-.024.043-.043.074-.08.13l-.066.105-.104.054c-.112.05-.205.1-.307.14l-.3.13-.6.24-.38.15-.33 1.25c-.01 0-.11-.03-.3-.07l-.02.13c.36.18 1.08.57 1.32.77.49.4.52 1.05.41 2.24-.06.61-.26 1.81-.55 2.91-.49 1.89-.75 2.11-1.09 2.2-.17.04-.44.09-.69.09-.52 0-1.22.01-1.7-.1-.12.43-.47 1.55-1.16 2.95.03-.02.07-.03.1-.05.85-.44 2.48-1.15 2.54-1.19l1.29-.56-.66 1.24c-.02.02-1.43 2.68-2.3 4.42-.86 1.72-2.47 2.09-3.44 2.31-.15.03-.29.06-.4.1-.69.19-2.09.52-3.33.82-.02.01-.03.01-.05.01-.76.47-1.59.89-2.5 1.24-3.32 1.26-6.82 1.18-10 .02l-2.1.25c-.4.04-.78.06-1.14.06-3.03 0-4.63-1.54-5.8-3.04-1.25-1.61-2.78-4.01-2.85-4.11L7 36.07l1.5.674c.72.32 2.858 1.31 3.47 1.594l.147-.044c-1.02-1.45-1.85-3.1-2.44-4.935-.5.15-1.27.27-1.87.27-.22 0-.42-.02-.57-.05-.33-.08-.72-.4-1.24-2.23-.3-1.07-.523-2.23-.59-2.83-.13-1.17-.1-1.8.38-2.2.296-.25 1.28-.77 1.486-.87l-.04-.36c-3.136 1.85-5.016 3.47-5.05 3.51l-2.21 2 1.6-2.52c1.26-2 2.72-3.61 4.064-4.86l-.16-.07-.293-.14-.31-.15-.11-.06-.07-.11c-.04-.06-.06-.09-.08-.13l-.06-.11-.12-.24c-.08-.16-.14-.32-.2-.48-.12-.32-.23-.64-.32-.96-.17-.65-.3-1.3-.37-1.96-.07-.66-.09-1.33-.06-1.99.02-.33.05-.67.1-1 .02-.17.05-.33.08-.5.04-.17.07-.33.12-.51l.03-.13.09-.08c.52-.41 1.09-.72 1.66-1 .47-.22.955-.42 1.44-.596 1.35-3.76 3.68-7.097 6.745-9.42C16.95 1.27 20.68 0 24.56 0s7.605 1.27 10.772 3.674c3.063 2.324 5.395 5.66 6.75 9.422.485.18.966.374 1.44.598.572.274 1.138.585 1.66.996l.093.072.035.13c.052.182.085.338.117.506.034.163.06.33.082.495.04.328.08.66.09.992zM42.867 27.84c.104-1.15.013-1.4-.103-1.493-.117-.1-.514-.322-.9-.53l-.632 4.437c-.012.086-.06.164-.13.215l-.908.63c-.07.36-.098.53-.187.89.518.12 1.37.21 1.773.13.37-.4.964-2.88 1.09-4.29zm-1.177-4.025l.677-2.575c-.984-.223-2.8-.597-5.27-.946-1.26.907-2.642 1.632-3.998 2.21 4.15.404 7.2 1.006 8.59 1.31zm-1.07 6.21l.773-5.397c-.345-.074-.783-.167-1.308-.268l-.697 4.887c-.015.086-.062.165-.133.216l-2.615 1.83c-.062.043-.14.063-.217.056l-7.886-.9c-.127-.02-.232-.1-.27-.23l-1.42-4.68c-.38-.1-1.355-.33-2.21-.33-.86 0-1.834.23-2.215.32l-1.42 4.68c-.025.08-.083.14-.156.18l-.08.03-7.88 1.75c-.025 0-.046.01-.07.01-.063 0-.126-.02-.18-.06L10.02 30.3c-.074-.05-.123-.13-.135-.22l-.705-5.71c-.292.058-.558.11-.793.16l-.496.276.75 6.06 3.81 2.663 9.59-2.14 1.42-4.66c.04-.12.14-.21.26-.23.36-.06.68-.09.94-.09.27 0 .58.03.94.09.12.02.22.11.26.23l1.45 4.78 9.65 1.1 3.7-2.59zm-1.84-1.004l.683-4.77c-1.925-.35-4.74-.77-8.188-1.04-3.113 1.08-5.72 1.4-5.877 1.41l-.184.02c.993.09 1.93.35 1.976.37.102.03.183.11.215.22l1.41 4.65 7.56.86 2.404-1.68zm.525 2.71l-.32.23-.862.61-.934.66c-.07.05-.15.07-.22.06l-9.3-1.05-.68-.07c-.13-.01-.23-.1-.27-.22l-1.46-4.78c-.25-.03-.46-.05-.64-.05-.19 0-.4.02-.65.05l-1.41 4.65c-.04.11-.13.19-.24.22l-9.91 2.2c-.03.01-.05.01-.07.01-.07 0-.13-.02-.18-.06l-.36-.25-1.08-.75-.44-.3c.03.1.06.2.1.29.08.25.92 2.65 2.61 5 1.81-.53 3.39-1.03 3.89-1.19 1.02-1.57 2.48-3.14 3.52-3.19.17-.01.36-.01.54-.01.5 0 .99.04 1.44.09-.38-.35-.46-.75-.52-.93 0 0 1.32 1.03 3 .82 1.68-.22 2.73-1.19 2.73-1.19s-.01.71-.74 1.26c1.41-.43 1.99-.57 2.39-.57.44 0 .66.18.85.34.04.03.07.07.12.1l2.77 2.2c.44.05 1.84.21 2.72.29.51.04.97.08 1.42.08.14 0 .28 0 .41-.01.58-1.11 1.1-2.37 1.55-3.8.06-.21.12-.44.17-.66zm-3.43-11.77h-.006c-.75-.06-1.5-.11-2.25-.15-1.04-.06-2.08-.11-3.12-.15-.06.09-.19.27-.36.51-.57.77-1.69 2.17-3.13 3.36 2.03-.36 5.56-1.27 8.62-3.4l.22-.16zm-6.814.21c.09-.1.17-.21.24-.3-.75.08-1.48.19-2.2.32-2.46.47-4.74 1.23-6.64 2.02 1.35-.06 2.76-.1 4.23-.1.89 0 1.76.02 2.6.04.73-.69 1.34-1.41 1.78-1.96zm.82 23.29c-1.02-.07-1.96-.5-2.71-1.25l-.11-.11c-.36.07-.73.13-1.11.16-.16.01-.31.02-.48.02h-.34c-1 1.49-3.23 1.78-3.33 1.8-.09.01-.17.03-.27.05 1.24.34 2.51.49 3.76.4 1.25-.08 2.88-.35 4.61-1.05zm-3.97-1.7c.24-.02.49-.05.73-.08-.31-.33-.59-.63-.81-.88-.1.25-.25.57-.44.99h.06c.15 0 .32-.01.47-.02zm-.76-17.93c.42-.25.82-.54 1.2-.85-.54-.01-1.09-.01-1.66-.01-2.31 0-4.47.1-6.43.25-1.96.96-3.16 1.75-3.19 1.77l-1.89 1.26 1.3-1.85c.22-.31.44-.6.68-.88-2.17.25-3.98.53-5.34.78l.7 5.62 2.39 1.67 7.57-1.68 1.42-4.66c.03-.08.08-.14.15-.18.02-.02.05-.03.07-.03.04-.01.8-.23 1.67-.34l1.39-.84zm.87-4.28c-.52-.01-1.05-.01-1.58-.01-.77 0-1.55.01-2.32.03l-1.43.68-.02.02c-.21.11-2.09 1.05-3.86 2.74 1.59-.83 3.92-1.92 6.65-2.76.82-.25 1.68-.48 2.57-.68zm-9.99 3c.74-.73 1.51-1.34 2.18-1.81-2.6.61-5 1.49-7.1 2.46 1.37-.22 3.02-.45 4.92-.64zm.5-2.27c.88-.24 1.77-.45 2.7-.63-1.32.05-2.64.11-3.97.19-.76.04-1.53.1-2.29.15-.38.03-.76.06-1.14.1-.11.02-.21.03-.32.04-.99.6-4.82 3-7.44 6.14 2.55-1.77 6.99-4.44 12.48-5.97zM9.48 32.62c-.05-.16-.1-.32-.144-.48l-1.176-.825c-.075-.053-.122-.13-.134-.222l-.574-4.663c-.425.228-.917.508-1.047.616-.113.095-.2.333-.077 1.444.152 1.37.847 3.953 1.22 4.33.45.08 1.444-.057 1.93-.2zm-.87-11.715c-.666.128-1.208.244-1.61.335l.19.713c.528-.42 1.01-.77 1.42-1.048z"/>
</svg>
