<?xml version="1.0" encoding="utf-8"?>
<!-- Generator: Adobe Illustrator 19.0.0, SVG Export Plug-In . SVG Version: 6.00 Build 0)  -->
<svg version="1.1" id="Ebene_1" xmlns="http://www.w3.org/2000/svg" xmlns:xlink="http://www.w3.org/1999/xlink" x="0px" y="0px"
	 viewBox="-103.2 338.3 398 91.8" enable-background="new -103.2 338.3 398 91.8" xml:space="preserve">
<path d="M-15.6,353.4v61.4c1.3,1.2,2.6,2.2,4,3.2v-67.8C-13,351.2-14.4,352.3-15.6,353.4z M-22.4,425.9h-17.5c-3.7,0-6.8-3-6.8-6.8
	c0-5.9-4.8-10.8-10.8-10.8s-10.8,4.8-10.8,10.8c0,3.7-3,6.8-6.8,6.8h-17.3c-3.7,0-6.8-3-6.8-6.8v-70c0-3.7,3.1-6.7,6.8-6.7h17.5
	c3.7,0,6.8,3,6.8,6.8c0,5.9,4.8,10.8,10.8,10.8s10.8-4.8,10.8-10.8c0-3.7,3-6.8,6.8-6.8h17.5c3.4,0,6.2,2.6,6.7,5.9
	c1.1-0.9,2.3-1.7,3.5-2.5c-1.6-4.3-5.6-7.4-10.4-7.4h-17.5c-5.9,0-10.8,4.8-10.8,10.8c0,3.7-3,6.8-6.8,6.8s-6.8-3-6.8-6.8
	c0.2-6-4.7-10.8-10.6-10.8h-17.5c-5.9,0-10.8,4.8-10.8,10.8v70c0,5.9,4.8,10.8,10.8,10.8h17.5c5.9,0,10.8-4.8,10.8-10.8
	c0-3.7,3-6.8,6.8-6.8s6.8,3,6.8,6.8c0,5.9,4.8,10.8,10.8,10.8h17.5c4.7,0,8.8-3.1,10.2-7.3c-1.2-0.8-2.4-1.6-3.5-2.5
	C-16.1,423.4-19,425.9-22.4,425.9z M12.6,425.9c-9,0-17.4-2.9-24.3-7.8c-1.4-1-2.7-2.1-4-3.2c-8.3-7.6-13.5-18.6-13.5-30.7
	s5.3-23.1,13.6-30.8c1.3-1.2,2.6-2.2,4-3.2c6.8-4.9,15.2-7.8,24.3-7.8c13.1,0,24.9,6.1,32.5,15.6c0.8-1.1,1.6-2.2,2.5-3.3
	c-8.4-10-21-16.3-35-16.3c-9.1,0-17.7,2.7-24.8,7.3c-1.2,0.8-2.4,1.6-3.5,2.5c-10.6,8.4-17.4,21.4-17.4,35.9
	c0,14.5,6.8,27.5,17.4,35.9c1.1,0.9,2.3,1.7,3.5,2.5c7.2,4.6,15.7,7.3,24.8,7.3c14,0,26.6-6.4,35-16.3c-0.9-1-1.7-2.1-2.5-3.3
	C37.5,419.8,25.8,425.9,12.6,425.9z M50.1,358c-0.9,1.1-1.7,2.3-2.5,3.4c4.3,6.5,6.8,14.4,6.8,22.7c0,8.3-2.5,16.2-6.8,22.7
	c0.8,1.2,1.6,2.3,2.5,3.4c5.2-7.4,8.3-16.4,8.3-26.2C58.4,374.2,55.3,365.4,50.1,358z M106.9,418.1c-6.8,4.9-15.2,7.8-24.3,7.8
	c-13.1,0-24.9-6.1-32.5-15.6c-0.9-1.1-1.7-2.3-2.5-3.4c-4.3-6.5-6.8-14.3-6.8-22.7s2.5-16.2,6.8-22.7c0.8-1.2,1.6-2.3,2.5-3.4
	c7.7-9.6,19.4-15.7,32.6-15.7c9,0,17.4,2.9,24.3,7.8v-1c0-1.2,0.3-2.3,0.7-3.3c-7.2-4.7-15.8-7.4-25-7.4c-14,0-26.6,6.4-35,16.3
	c-0.9,1-1.7,2.1-2.5,3.3c-5.2,7.4-8.3,16.4-8.3,26.2c0,9.8,3.1,18.7,8.3,26.2c0.8,1.1,1.6,2.2,2.5,3.3c8.4,10,21,16.3,35,16.3
	c9.2,0,17.8-2.7,25-7.4c-0.5-1-0.7-2.2-0.7-3.3L106.9,418.1L106.9,418.1z M128.4,384.2c0-14.5-6.8-27.5-17.4-35.9
	c-0.1,0.3-0.1,0.6-0.1,0.9v4.2c8.3,7.6,13.5,18.6,13.5,30.7c0,12.1-5.2,23.1-13.5,30.7v4.3c0,0.3,0,0.6,0.1,0.9
	C121.6,411.6,128.4,398.7,128.4,384.2z M122,342.4c-5.6,0-10.3,2.6-11,5.9c-0.1,0.3-0.1,0.6-0.1,0.9v4.2v61.4v4.3
	c0,0.3,0,0.6,0.1,0.9c0.7,3.3,5.5,5.9,11,5.9h30.6c9,0,17.4-2.9,24.3-7.8v1c0,1.2,0.2,2.3,0.7,3.3c-7.2,4.7-15.7,7.4-24.9,7.4H122
	c-6.9,0-12.5-3.1-14.4-7.4c-0.5-1-0.7-2.2-0.7-3.3v-1v-67.9v-1c0-1.2,0.3-2.3,0.7-3.3c1.9-4.4,7.6-7.5,14.4-7.5h30.6
	c9.2,0,17.7,2.7,24.9,7.4c-0.4,1.1-0.7,2.2-0.7,3.4v1c-6.7-4.9-15.1-7.8-24.1-7.8H122z M198.4,384.2c0-14.5-6.8-27.5-17.4-35.9
	c0,0.3-0.1,0.6-0.1,0.9v4.2c8.3,7.6,13.5,18.6,13.5,30.7c0,12.1-5.2,23.1-13.5,30.7v4.3c0,0.3,0,0.6,0.1,0.9
	C191.6,411.7,198.4,398.7,198.4,384.2z M220.7,353.4v61.4c1.3,1.2,2.6,2.2,4,3.2v-67.8C223.3,351.2,222,352.3,220.7,353.4z
	 M211.8,425.9h-21.9c-4.5,0-8.3-2.6-8.9-5.9c0-0.3-0.1-0.6-0.1-0.9v-4.3v-61.4v-4.3c0-0.3,0-0.6,0.1-0.9c0.6-3.3,4.3-5.9,8.9-5.9
	h21.9c4.5,0,8.3,2.6,8.9,5.9c1.1-0.9,2.2-1.7,3.4-2.5c-1.7-4.3-6.6-7.4-12.3-7.4h-21.9c-5.7,0-10.6,3.1-12.3,7.4
	c-0.4,1.1-0.7,2.2-0.7,3.4v1V418v1c0,1.2,0.2,2.3,0.7,3.3c1.7,4.3,6.6,7.4,12.3,7.4h21.9c5.7,0,10.6-3.1,12.3-7.4
	c-1.2-0.8-2.3-1.6-3.4-2.5C220,423.4,216.3,425.9,211.8,425.9z M294.7,362.3v-13.1c0-6-4.8-10.8-10.7-10.8h-35
	c-9.2,0-17.7,2.7-24.9,7.4c-1.2,0.8-2.3,1.6-3.4,2.5c-10.6,8.4-17.4,21.4-17.4,35.9s6.8,27.5,17.4,35.9c1.1,0.9,2.2,1.7,3.4,2.5
	c7.2,4.7,15.7,7.4,24.9,7.4h35c5.9,0,10.8-4.8,10.8-10.8V406c0-3.6-1.8-6.8-4.5-8.7c2.7-1.9,4.5-5.1,4.5-8.8v-8.8
	c0-3.8-1.9-6.8-4.6-8.7C292.9,369.1,294.7,365.9,294.7,362.3z M290.7,362.3c0,3.7-3,6.8-6.8,6.8v4c3.2,0,6.8,2.8,6.8,6.8v8.8
	c0,3.8-3,6.8-6.8,6.8v4c3.7,0,6.8,3,6.8,6.8v13.1c0,3.7-3,6.8-6.8,6.8h-35c-9,0-17.4-2.9-24.3-7.8c-1.4-1-2.7-2.1-4-3.2
	c-8.3-7.6-13.5-18.6-13.5-30.7s5.2-23.1,13.5-30.7c1.3-1.2,2.6-2.2,4-3.2c6.9-5.3,15.3-8.2,24.4-8.2h35c3.7,0,6.8,3,6.8,6.8v13.1
	H290.7z"/>
</svg>
