<svg xmlns="http://www.w3.org/2000/svg" viewBox="-103.2 338.3 398 91.8">
  <path d="M-15.6 353.4v61.4c1.3 1.2 2.6 2.2 4 3.2v-67.8c-1.4 1-2.8 2.1-4 3.2zm-6.8 72.5h-17.5c-3.7 0-6.8-3-6.8-6.8 0-5.9-4.8-10.8-10.8-10.8s-10.8 4.8-10.8 10.8c0 3.7-3 6.8-6.8 6.8h-17.3c-3.7 0-6.8-3-6.8-6.8v-70c0-3.7 3.1-6.7 6.8-6.7h17.5c3.7 0 6.8 3 6.8 6.8 0 5.9 4.8 10.8 10.8 10.8s10.8-4.8 10.8-10.8c0-3.7 3-6.8 6.8-6.8h17.5c3.4 0 6.2 2.6 6.7 5.9 1.1-.9 2.3-1.7 3.5-2.5-1.6-4.3-5.6-7.4-10.4-7.4h-17.5c-5.9 0-10.8 4.8-10.8 10.8 0 3.7-3 6.8-6.8 6.8s-6.8-3-6.8-6.8c.2-6-4.7-10.8-10.6-10.8h-17.5c-5.9 0-10.8 4.8-10.8 10.8v70c0 5.9 4.8 10.8 10.8 10.8h17.5c5.9 0 10.8-4.8 10.8-10.8 0-3.7 3-6.8 6.8-6.8s6.8 3 6.8 6.8c0 5.9 4.8 10.8 10.8 10.8h17.5c4.7 0 8.8-3.1 10.2-7.3-1.2-.8-2.4-1.6-3.5-2.5-.6 3.2-3.5 5.7-6.9 5.7zm35 0c-9 0-17.4-2.9-24.3-7.8-1.4-1-2.7-2.1-4-3.2-8.3-7.6-13.5-18.6-13.5-30.7s5.3-23.1 13.6-30.8c1.3-1.2 2.6-2.2 4-3.2 6.8-4.9 15.2-7.8 24.3-7.8 13.1 0 24.9 6.1 32.5 15.6.8-1.1 1.6-2.2 2.5-3.3-8.4-10-21-16.3-35-16.3-9.1 0-17.7 2.7-24.8 7.3-1.2.8-2.4 1.6-3.5 2.5-10.6 8.4-17.4 21.4-17.4 35.9s6.8 27.5 17.4 35.9c1.1.9 2.3 1.7 3.5 2.5 7.2 4.6 15.7 7.3 24.8 7.3 14 0 26.6-6.4 35-16.3-.9-1-1.7-2.1-2.5-3.3-7.7 9.6-19.4 15.7-32.6 15.7zM50.1 358c-.9 1.1-1.7 2.3-2.5 3.4 4.3 6.5 6.8 14.4 6.8 22.7 0 8.3-2.5 16.2-6.8 22.7.8 1.2 1.6 2.3 2.5 3.4 5.2-7.4 8.3-16.4 8.3-26.2s-3.1-18.6-8.3-26zm56.8 60.1c-6.8 4.9-15.2 7.8-24.3 7.8-13.1 0-24.9-6.1-32.5-15.6-.9-1.1-1.7-2.3-2.5-3.4-4.3-6.5-6.8-14.3-6.8-22.7s2.5-16.2 6.8-22.7c.8-1.2 1.6-2.3 2.5-3.4 7.7-9.6 19.4-15.7 32.6-15.7 9 0 17.4 2.9 24.3 7.8v-1c0-1.2.3-2.3.7-3.3-7.2-4.7-15.8-7.4-25-7.4-14 0-26.6 6.4-35 16.3-.9 1-1.7 2.1-2.5 3.3-5.2 7.4-8.3 16.4-8.3 26.2s3.1 18.7 8.3 26.2c.8 1.1 1.6 2.2 2.5 3.3 8.4 10 21 16.3 35 16.3 9.2 0 17.8-2.7 25-7.4-.5-1-.7-2.2-.7-3.3l-.1-1.3zm21.5-33.9c0-14.5-6.8-27.5-17.4-35.9-.1.3-.1.6-.1.9v4.2c8.3 7.6 13.5 18.6 13.5 30.7 0 12.1-5.2 23.1-13.5 30.7v4.3c0 .3 0 .6.1.9 10.6-8.4 17.4-21.3 17.4-35.8zm-6.4-41.8c-5.6 0-10.3 2.6-11 5.9-.1.3-.1.6-.1.9v69.9c0 .3 0 .6.1.9.7 3.3 5.5 5.9 11 5.9h30.6c9 0 17.4-2.9 24.3-7.8v1c0 1.2.2 2.3.7 3.3-7.2 4.7-15.7 7.4-24.9 7.4H122c-6.9 0-12.5-3.1-14.4-7.4-.5-1-.7-2.2-.7-3.3v-69.9c0-1.2.3-2.3.7-3.3 1.9-4.4 7.6-7.5 14.4-7.5h30.6c9.2 0 17.7 2.7 24.9 7.4-.4 1.1-.7 2.2-.7 3.4v1c-6.7-4.9-15.1-7.8-24.1-7.8H122zm76.4 41.8c0-14.5-6.8-27.5-17.4-35.9 0 .3-.1.6-.1.9v4.2c8.3 7.6 13.5 18.6 13.5 30.7 0 12.1-5.2 23.1-13.5 30.7v4.3c0 .3 0 .6.1.9 10.6-8.3 17.4-21.3 17.4-35.8zm22.3-30.8v61.4c1.3 1.2 2.6 2.2 4 3.2v-67.8c-1.4 1-2.7 2.1-4 3.2zm-8.9 72.5h-21.9c-4.5 0-8.3-2.6-8.9-5.9 0-.3-.1-.6-.1-.9v-70c0-.3 0-.6.1-.9.6-3.3 4.3-5.9 8.9-5.9h21.9c4.5 0 8.3 2.6 8.9 5.9 1.1-.9 2.2-1.7 3.4-2.5-1.7-4.3-6.6-7.4-12.3-7.4h-21.9c-5.7 0-10.6 3.1-12.3 7.4-.4 1.1-.7 2.2-.7 3.4V419c0 1.2.2 2.3.7 3.3 1.7 4.3 6.6 7.4 12.3 7.4h21.9c5.7 0 10.6-3.1 12.3-7.4-1.2-.8-2.3-1.6-3.4-2.5-.7 3.6-4.4 6.1-8.9 6.1zm82.9-63.6v-13.1c0-6-4.8-10.8-10.7-10.8h-35c-9.2 0-17.7 2.7-24.9 7.4-1.2.8-2.3 1.6-3.4 2.5-10.6 8.4-17.4 21.4-17.4 35.9s6.8 27.5 17.4 35.9c1.1.9 2.2 1.7 3.4 2.5 7.2 4.7 15.7 7.4 24.9 7.4h35c5.9 0 10.8-4.8 10.8-10.8V406c0-3.6-1.8-6.8-4.5-8.7 2.7-1.9 4.5-5.1 4.5-8.8v-8.8c0-3.8-1.9-6.8-4.6-8.7 2.7-1.9 4.5-5.1 4.5-8.7zm-4 0c0 3.7-3 6.8-6.8 6.8v4c3.2 0 6.8 2.8 6.8 6.8v8.8c0 3.8-3 6.8-6.8 6.8v4c3.7 0 6.8 3 6.8 6.8v13.1c0 3.7-3 6.8-6.8 6.8h-35c-9 0-17.4-2.9-24.3-7.8-1.4-1-2.7-2.1-4-3.2-8.3-7.6-13.5-18.6-13.5-30.7s5.2-23.1 13.5-30.7c1.3-1.2 2.6-2.2 4-3.2 6.9-5.3 15.3-8.2 24.4-8.2h35c3.7 0 6.8 3 6.8 6.8v13.1h-.1z"/>
</svg>
