<?xml version="1.0" encoding="utf-8"?>
<!-- Generator: Adobe Illustrator 19.0.0, SVG Export Plug-In . SVG Version: 6.00 Build 0)  -->
<svg version="1.1" id="Layer_1" xmlns="http://www.w3.org/2000/svg" xmlns:xlink="http://www.w3.org/1999/xlink" x="0px" y="0px"
	 viewBox="0 0 141.266 45.248" enable-background="new 0 0 141.266 45.248" xml:space="preserve">
<g>
	<g>
		<path fill="#353635" d="M55.841,19.234H50.62v-2.707h13.618v2.707h-5.193v15.359h-3.204V19.234z"/>
		<path fill="#353635" d="M63.951,21.03h2.625l0.221,2.403h0.111c0.967-1.769,2.403-2.733,3.84-2.733
			c0.69,0,1.132,0.082,1.547,0.276l-0.553,2.762c-0.47-0.139-0.829-0.221-1.409-0.221c-1.077,0-2.375,0.746-3.204,2.789v8.287
			h-3.177L63.951,21.03L63.951,21.03z"/>
		<path fill="#353635" d="M80.967,25.92c-0.026-1.437-0.635-2.651-2.458-2.651c-1.354,0-2.624,0.608-3.812,1.325l-1.16-2.127
			c1.491-0.939,3.397-1.768,5.552-1.768c3.397,0,5.057,2.071,5.057,5.854v8.039h-2.599l-0.248-1.492h-0.083
			c-1.216,1.022-2.597,1.824-4.197,1.824c-2.376,0-4.033-1.604-4.033-3.979C72.984,28.047,75.415,26.526,80.967,25.92z
			 M78.012,32.439c1.104,0,1.961-0.553,2.954-1.492v-3.038c-3.674,0.471-4.889,1.438-4.889,2.791
			C76.078,31.914,76.879,32.439,78.012,32.439z"/>
		<path fill="#353635" d="M85.053,21.03h3.231l2.154,7.044c0.358,1.325,0.772,2.707,1.133,4.089h0.11
			c0.387-1.382,0.772-2.764,1.159-4.089l2.154-7.044h3.066L93.45,34.593h-3.674L85.053,21.03z"/>
		<path fill="#353635" d="M99.254,16.859c0-1.077,0.829-1.823,1.962-1.823c1.133,0,1.961,0.746,1.961,1.823
			c0,1.049-0.828,1.795-1.961,1.795C100.083,18.654,99.254,17.908,99.254,16.859z M99.613,21.03h3.177v13.563h-3.177V21.03z"/>
		<path fill="#353635" d="M106.102,31.002c1.216,0.939,2.377,1.521,3.758,1.521c1.464,0,2.154-0.69,2.154-1.629
			c0-1.134-1.466-1.631-2.9-2.184c-1.796-0.663-3.812-1.685-3.812-3.95c0-2.376,1.906-4.06,4.945-4.06
			c1.878,0,3.397,0.773,4.502,1.629l-1.463,1.935c-0.938-0.69-1.906-1.161-2.984-1.161c-1.354,0-1.987,0.635-1.987,1.492
			c0,1.05,1.354,1.492,2.816,2.017c1.852,0.691,3.896,1.574,3.896,4.117c0,2.319-1.852,4.198-5.276,4.198
			c-1.85,0-3.812-0.802-5.138-1.879L106.102,31.002z"/>
		<path fill="#353635" d="M130.604,16.196c2.21,0,4.005,1.077,5.138,2.293l-1.768,1.989c-0.939-0.912-1.961-1.492-3.344-1.492
			c-2.956,0-5.083,2.486-5.083,6.547c0,4.114,1.961,6.602,4.974,6.602c1.602,0,2.79-0.662,3.812-1.796l1.769,1.961
			c-1.465,1.685-3.344,2.625-5.636,2.625c-4.586,0-8.204-3.316-8.204-9.31C122.262,19.704,125.963,16.196,130.604,16.196z"/>
		<path fill="#353635" d="M138.061,16.527h3.204v18.066h-3.204V16.527z"/>
	</g>
	<path fill="#EAEAEA" d="M44.668,15.986c-0.013-0.153-0.029-0.307-0.048-0.458c-0.013-0.108-0.03-0.221-0.049-0.325
		c-0.409-0.344-0.874-0.65-1.357-0.928c-0.525-0.308-1.072-0.581-1.634-0.836c-0.556-0.263-1.127-0.5-1.702-0.731
		c-0.287-0.117-0.576-0.229-0.865-0.337c-0.289-0.113-0.582-0.219-0.875-0.325c0.614,0.102,1.224,0.242,1.827,0.397
		c0.394,0.101,0.784,0.215,1.173,0.337C38.375,5.56,31.771,0.857,24.559,0.857c-7.212,0-13.817,4.702-16.579,11.923
		c0.388-0.122,0.778-0.236,1.171-0.337c0.604-0.155,1.214-0.296,1.829-0.397c-0.294,0.106-0.585,0.212-0.876,0.325
		c-0.289,0.107-0.578,0.22-0.866,0.337c-0.575,0.231-1.145,0.469-1.702,0.731c-0.559,0.255-1.106,0.528-1.632,0.836
		c-0.484,0.277-0.948,0.584-1.358,0.928c-0.017,0.104-0.034,0.217-0.048,0.325c-0.018,0.151-0.036,0.305-0.048,0.458
		c-0.027,0.308-0.038,0.616-0.04,0.926c-0.006,0.619,0.036,1.238,0.114,1.85c0.085,0.614,0.197,1.225,0.364,1.814
		c0.082,0.295,0.175,0.586,0.282,0.868c0.055,0.141,0.112,0.28,0.175,0.414c0.029,0.067,0.061,0.134,0.094,0.197l0.04,0.075
		c0.045,0.022,0.093,0.047,0.138,0.068l0.275,0.131c0.152,0.07,0.364,0.171,0.54,0.249c0.01-0.009,0.02-0.018,0.027-0.026
		l-0.51-1.941c0.108-0.029,1.076-0.279,2.745-0.598c-0.134-0.025-0.27-0.054-0.404-0.087c-0.38-0.095-0.755-0.21-1.118-0.356
		c-0.18-0.076-0.357-0.159-0.526-0.255c-0.169-0.098-0.335-0.207-0.464-0.354c1.833,0.599,5.619,0.328,8.985-0.021
		c3.079-0.317,6.166-0.522,9.269-0.529c3.103,0.007,6.188,0.212,9.267,0.529c3.368,0.349,7.155,0.619,8.988,0.021
		c-0.128,0.146-0.295,0.256-0.464,0.354c-0.169,0.096-0.348,0.179-0.527,0.255c-0.363,0.146-0.737,0.262-1.118,0.356
		c-0.056,0.014-0.111,0.025-0.169,0.038c1.829,0.339,2.895,0.615,3.008,0.646l-0.487,1.85c0.099-0.043,0.197-0.086,0.294-0.131
		l0.273-0.131c0.045-0.021,0.092-0.046,0.14-0.068l0.038-0.075c0.032-0.063,0.065-0.13,0.095-0.197
		c0.062-0.134,0.121-0.273,0.174-0.414c0.108-0.282,0.202-0.573,0.283-0.868c0.167-0.59,0.278-1.2,0.363-1.814
		c0.079-0.611,0.12-1.23,0.114-1.85C44.706,16.603,44.695,16.294,44.668,15.986z"/>
	<path fill="#F4F4F4" d="M26.639,41.664c-0.243,0.036-0.486,0.065-0.727,0.085c-0.156,0.008-0.32,0.023-0.469,0.023h-0.056
		c0.188-0.418,0.329-0.742,0.438-0.988C26.044,41.03,26.323,41.335,26.639,41.664z"/>
	<path fill="#F4F4F4" d="M27.166,42.202c0.754,0.744,1.688,1.173,2.716,1.249c-1.727,0.7-3.354,0.972-4.606,1.057
		c-1.25,0.083-2.518-0.063-3.758-0.403c0.104-0.021,0.18-0.033,0.271-0.043c0.103-0.014,2.328-0.305,3.332-1.795l0.094,0.002
		l0.246-0.002c0.167,0,0.318-0.015,0.479-0.021c0.378-0.032,0.749-0.086,1.112-0.16C27.089,42.124,27.127,42.162,27.166,42.202z"/>
	<path fill="#939393" d="M29.301,19.86c-0.072,0.095-0.152,0.198-0.238,0.307c-0.441,0.558-1.052,1.27-1.778,1.968
		c-0.843-0.026-1.709-0.041-2.601-0.041c-1.475,0-2.888,0.039-4.229,0.105c1.896-0.786,4.173-1.555,6.641-2.016
		C27.815,20.045,28.553,19.936,29.301,19.86z"/>
	<path fill="#939393" d="M18.207,20.709c-0.677,0.476-1.44,1.082-2.182,1.818c-1.899,0.19-3.553,0.42-4.919,0.641
		C13.205,22.203,15.602,21.314,18.207,20.709z"/>
	<path fill="#939393" d="M41.394,24.627l-0.772,5.399l-3.698,2.592l-9.645-1.098l-1.452-4.78c-0.034-0.116-0.132-0.201-0.253-0.222
		c-0.357-0.059-0.673-0.086-0.937-0.086c-0.266,0-0.58,0.027-0.939,0.086c-0.119,0.021-0.216,0.104-0.252,0.222l-1.416,4.665
		l-9.591,2.134L8.64,30.877l-0.749-6.061c0.164-0.092,0.329-0.184,0.497-0.274c0.234-0.051,0.5-0.104,0.793-0.16l0.705,5.72
		c0.011,0.088,0.06,0.168,0.133,0.219l2.614,1.832c0.055,0.037,0.118,0.058,0.182,0.058c0.023,0,0.045-0.003,0.069-0.008
		l7.886-1.755c0.026-0.006,0.054-0.016,0.079-0.028c0.072-0.039,0.131-0.104,0.154-0.188l1.42-4.674
		c0.382-0.099,1.356-0.326,2.215-0.326c0.854,0,1.83,0.229,2.213,0.326l1.419,4.674c0.037,0.121,0.143,0.209,0.269,0.225
		l7.885,0.897c0.076,0.008,0.154-0.013,0.218-0.057l2.615-1.829c0.071-0.051,0.119-0.13,0.132-0.216l0.697-4.887
		C40.611,24.461,41.05,24.554,41.394,24.627z"/>
	<path fill="#939393" d="M42.368,21.24l-0.679,2.575c-1.389-0.308-4.438-0.907-8.588-1.312c1.355-0.578,2.736-1.303,3.999-2.21
		C39.569,20.643,41.383,21.018,42.368,21.24z"/>
	<g>
		<path fill="#F4F4F4" d="M14.562,29.297c0.538-0.291,1.146-0.248,2.096-0.246c0.102,0.003,0.207,0.001,0.317-0.002
			c0.094,0,0.188-0.002,0.287-0.005c0.979-0.01,1.795,0.083,1.779-1.455c-0.015-1.538-0.698-2.781-1.678-2.771
			c-0.979,0.009-1.928,1.27-1.869,2.807c0.017,0.4,0.075,0.69,0.169,0.896C14.81,28.735,14.575,29.265,14.562,29.297z
			 M26.343,22.967c-0.38,0.309-0.78,0.597-1.196,0.849l-1.392,0.838c-0.873,0.106-1.629,0.322-1.672,0.336
			c-0.024,0.006-0.05,0.018-0.071,0.031c-0.067,0.039-0.119,0.104-0.144,0.182l-1.416,4.666l-7.569,1.684l-2.384-1.67l-0.692-5.617
			c1.354-0.25,3.165-0.537,5.34-0.781c-0.233,0.279-0.459,0.572-0.674,0.879l-1.296,1.859l1.887-1.258
			c0.027-0.02,1.229-0.81,3.191-1.771c1.958-0.145,4.118-0.24,6.431-0.24C25.248,22.951,25.8,22.958,26.343,22.967z"/>
		<path fill="#F4F4F4" d="M34.632,28.666c-0.01-0.037-0.216-0.655-1.127-0.547c0.105-0.229,0.152-0.537,0.119-0.961
			c-0.12-1.535-1.014-2.755-1.992-2.722c-0.979,0.035-1.605,1.308-1.552,2.848c0.054,1.537,0.876,1.525,1.855,1.49
			C33.25,28.751,33.973,28.347,34.632,28.666z M39.463,24.244l-0.683,4.776l-2.404,1.685l-7.56-0.858l-1.41-4.646
			c-0.032-0.104-0.112-0.183-0.215-0.214c-0.047-0.014-0.983-0.28-1.976-0.366l0.182-0.013c0.157-0.012,2.764-0.33,5.877-1.403
			C34.723,23.47,37.539,23.894,39.463,24.244z"/>
	</g>
	<path fill="#F4F4F4" d="M42.763,26.347c0.115,0.096,0.208,0.342,0.104,1.494c-0.127,1.412-0.721,3.889-1.088,4.288
		c-0.406,0.079-1.256-0.015-1.774-0.136c0.091-0.355,0.116-0.526,0.188-0.891l0.906-0.634c0.071-0.051,0.119-0.13,0.133-0.215
		l0.633-4.44C42.25,26.022,42.645,26.248,42.763,26.347z"/>
	<path fill="#F4F4F4" d="M27.678,32.205l-0.034,0.298c0,0-1.045,0.971-2.728,1.186c-1.682,0.219-3.004-0.815-3.004-0.815
		c0.056,0.181,0.134,0.585,0.515,0.933c-0.448-0.055-0.933-0.091-1.439-0.091c-0.184,0-0.369,0.007-0.548,0.015
		c-1.035,0.055-2.492,1.619-3.517,3.196c-0.502,0.159-2.072,0.658-3.892,1.194c-1.697-2.352-2.531-4.754-2.616-5.002l0.001-0.002
		c-0.035-0.096-0.068-0.191-0.101-0.289l0.436,0.305v0.001l1.078,0.755l0.36,0.252c0.054,0.039,0.118,0.059,0.181,0.059
		c0.024,0,0.047-0.004,0.07-0.008l9.907-2.205c0.11-0.024,0.2-0.108,0.232-0.217l1.414-4.651c0.244-0.032,0.458-0.05,0.643-0.05
		c0.183,0,0.397,0.017,0.642,0.05l1.454,4.789c0.037,0.122,0.143,0.21,0.268,0.224L27.678,32.205z"/>
	<path fill="#F4F4F4" d="M38.987,31.946l0.32-0.225c-0.054,0.223-0.11,0.443-0.17,0.661c-0.445,1.425-0.971,2.687-1.553,3.8
		c-0.129,0.01-0.265,0.014-0.411,0.014c-0.449,0-0.908-0.037-1.417-0.084c-0.882-0.081-2.282-0.241-2.725-0.293
		c-0.38-0.305-1.684-1.34-2.768-2.193c-0.042-0.034-0.079-0.064-0.115-0.096c-0.191-0.161-0.408-0.346-0.849-0.346
		c-0.399,0-0.982,0.146-2.393,0.572c0.732-0.548,0.737-1.255,0.737-1.255l0.034-0.298l9.294,1.057
		c0.075,0.01,0.153-0.012,0.218-0.056l0.934-0.654L38.987,31.946z"/>
	<path fill="#686969" d="M35.87,19.952c0.002,0,0.004,0.001,0.007,0.003c-0.076,0.054-0.15,0.11-0.227,0.164
		c-3.054,2.132-6.586,3.034-8.622,3.399c1.438-1.189,2.56-2.595,3.125-3.358c0.176-0.24,0.299-0.419,0.359-0.508
		c1.04,0.043,2.078,0.093,3.117,0.151C34.378,19.847,35.124,19.896,35.87,19.952z"/>
	<path fill="#686969" d="M24.437,19.514c0.525,0.002,1.053,0.008,1.581,0.015c-0.887,0.195-1.745,0.427-2.565,0.679
		c-2.739,0.843-5.065,1.93-6.649,2.763c1.767-1.689,3.644-2.637,3.857-2.741c0.011-0.007,0.021-0.012,0.021-0.012l1.43-0.678
		C22.887,19.526,23.661,19.517,24.437,19.514L24.437,19.514L24.437,19.514z"/>
	<path fill="#686969" d="M19.211,19.621c-0.923,0.178-1.821,0.393-2.694,0.637c-5.484,1.534-9.927,4.197-12.477,5.97
		c2.625-3.139,6.446-5.537,7.443-6.134c0.107-0.014,0.215-0.025,0.324-0.036c0.378-0.04,0.76-0.072,1.142-0.102
		c0.764-0.058,1.528-0.109,2.295-0.152C16.564,19.729,17.888,19.668,19.211,19.621z"/>
	<path fill="#969696" d="M32.146,12.395c0.027,0.826,0.008,2.325-0.377,3.728c-0.017,0.054-0.015,0.109,0,0.161
		c-0.49-0.052-0.98-0.096-1.471-0.136c0.551-1.152,0.67-2.38,0.696-2.812C31.417,13.035,31.838,12.675,32.146,12.395z"/>
	<path fill="#969696" d="M18.123,13.335c0.026,0.433,0.146,1.657,0.695,2.81c-0.49,0.039-0.98,0.084-1.469,0.136
		c0.014-0.05,0.015-0.104,0-0.158c-0.385-1.4-0.404-2.899-0.377-3.728C17.28,12.675,17.699,13.035,18.123,13.335z"/>
	<path fill="#303030" d="M34.632,28.666c-0.658-0.319-1.382,0.085-2.697,0.108c-0.979,0.035-1.802,0.047-1.855-1.49
		c-0.054-1.54,0.573-2.812,1.552-2.848c0.979-0.033,1.872,1.187,1.992,2.722c0.033,0.424-0.014,0.731-0.119,0.961
		C34.417,28.011,34.623,28.629,34.632,28.666z M31.556,26.412c0.275-0.006,0.495-0.233,0.491-0.511
		c-0.005-0.275-0.232-0.496-0.51-0.49c-0.275,0.005-0.496,0.232-0.491,0.51C31.051,26.196,31.279,26.417,31.556,26.412z"/>
	<circle fill="#F4F4F4" cx="31.547" cy="25.912" r="0.501"/>
	<path fill="#303030" d="M19.042,27.589c0.016,1.538-0.8,1.445-1.779,1.455c-0.101,0.003-0.193,0.005-0.287,0.005
		c-0.11,0.003-0.216,0.005-0.317,0.002c-0.951-0.002-1.559-0.045-2.096,0.246c0.013-0.032,0.249-0.562,1.102-0.776
		c-0.095-0.207-0.153-0.496-0.169-0.896c-0.059-1.537,0.891-2.798,1.869-2.807C18.343,24.808,19.027,26.051,19.042,27.589z
		 M17.529,26.783c0.276-0.007,0.494-0.237,0.487-0.513c-0.009-0.277-0.238-0.496-0.514-0.487c-0.276,0.006-0.496,0.237-0.487,0.513
		C17.021,26.573,17.252,26.791,17.529,26.783z"/>
	<circle fill="#F4F4F4" cx="17.515" cy="26.283" r="0.501"/>
	<g>
		<path fill="#BCBCBC" d="M11.562,17.143c0,0,0.151-1.982,0.463-2.743c0.16-0.391,1.14-0.64,1.887-0.818
			c0.748-0.178,1.941-0.534,2.172,0.517c0.231,1.051,0.605,1.816,0.855,2.155l-0.321-4.328l-5.146,1.247L11.135,17l0.16,0.303
			L11.562,17.143"/>
		<path fill="#BCBCBC" d="M37.602,17.143c0,0-0.152-1.982-0.463-2.743c-0.16-0.391-1.141-0.64-1.888-0.818
			c-0.748-0.178-1.94-0.534-2.173,0.517c-0.23,1.051-0.604,1.816-0.854,2.155l0.319-4.328l5.146,1.247L38.03,17l-0.16,0.303
			L37.602,17.143"/>
	</g>
	<path fill="#BCBCBC" d="M30.328,4.192c0,0-0.136,10.376-2.56,10.376c-2.423,0-2.908,0-2.908,0h-0.484c0,0-0.484,0-2.909,0
		c-2.424,0-2.619-10.372-2.619-10.372l-1.19,3.521l0.019,4.832l0.847,0.672l0.384,2.075l0.538,1.21l10.374,0.02l0.48-0.865
		l0.404-1.46l0.058-0.922l1.146-3.271L30.328,4.192z"/>
	<path fill="#BCBCBC" d="M37.961,13.867c0,0,0.499,3.579,1.818,4.224c1.32,0.646,0,0,0,0l-1.848-0.557L37.961,13.867z"/>
	<path fill="#BCBCBC" d="M11.156,13.867c0,0-0.499,3.579-1.819,4.224c-1.319,0.646,0,0,0,0l1.85-0.557L11.156,13.867z"/>
	<path fill="#303030" d="M38.316,17.518c0.628,0.206,1.26,0.424,1.833,0.758c-0.308-0.12-0.623-0.208-0.942-0.286
		c-0.316-0.081-0.637-0.149-0.958-0.211c-0.643-0.12-1.289-0.224-1.938-0.302c-0.647-0.085-1.296-0.156-1.949-0.212
		c-0.652-0.055-1.302-0.109-1.956-0.147c-2.611-0.16-5.229-0.201-7.849-0.203c-2.619,0.001-5.237,0.05-7.85,0.204
		c-0.652,0.038-1.303,0.093-1.955,0.148c-0.65,0.055-1.302,0.125-1.948,0.21c-0.649,0.079-1.296,0.183-1.939,0.303
		c-0.321,0.061-0.641,0.131-0.959,0.21c-0.317,0.078-0.635,0.166-0.941,0.286c0.572-0.334,1.204-0.553,1.834-0.759
		c0.054-0.017,0.106-0.032,0.16-0.049c-0.003-0.014-0.007-0.026-0.009-0.039c-0.011-0.073-0.244-1.793,0.162-4.254
		c0.02-0.117,0.104-0.213,0.22-0.245l0.665-0.188c0.146-5.162,2.271-7.588,2.336-7.663c-1.898,3.056-1.881,6.68-1.848,7.524
		l4.135-1.176c0.003,0,0.006,0,0.01-0.002c0.018-0.004,0.034-0.006,0.052-0.008c0.005,0,0.011-0.001,0.017-0.001
		c0.021-0.001,0.044,0.001,0.068,0.006c0.003,0,0.007,0.003,0.012,0.005c0.017,0.002,0.033,0.008,0.051,0.017
		c0.008,0.003,0.013,0.007,0.021,0.011c0.013,0.008,0.026,0.016,0.041,0.025c0.003,0.002,0.008,0.004,0.011,0.007
		c0.003,0.003,0.005,0.006,0.007,0.008c0.004,0.004,0.009,0.007,0.012,0.01c0.003,0.004,0.113,0.113,0.288,0.276
		c-0.042-1.363,0.023-5.271,1.885-8.511c-0.039,0.113-1.516,4.433-1.007,9.271c0.166,0.133,0.339,0.263,0.509,0.377
		c0.081,0.057,0.132,0.149,0.134,0.249c0.001,0.016,0.036,1.558,0.718,2.87c0.01,0.02,0.017,0.041,0.023,0.062
		c1.693-0.115,3.393-0.162,5.089-0.163c1.695,0.001,3.394,0.051,5.088,0.167c0.006-0.022,0.014-0.044,0.024-0.065
		c0.682-1.312,0.717-2.854,0.717-2.87c0.002-0.1,0.053-0.192,0.135-0.249c0.169-0.114,0.34-0.244,0.507-0.377
		c0.51-4.838-0.967-9.157-1.006-9.271c1.859,3.239,1.926,7.147,1.885,8.511c0.173-0.163,0.284-0.272,0.288-0.276
		c0.003-0.003,0.009-0.006,0.012-0.01c0.003-0.002,0.004-0.005,0.008-0.008c0.005-0.003,0.008-0.005,0.012-0.007
		c0.014-0.01,0.026-0.018,0.041-0.027c0.006-0.002,0.012-0.006,0.019-0.009c0.02-0.009,0.035-0.015,0.054-0.019
		c0.004,0,0.008-0.003,0.012-0.003c0.021-0.005,0.046-0.007,0.067-0.006c0.006,0,0.012,0.001,0.017,0.001
		c0.017,0.002,0.036,0.004,0.053,0.008c0.003,0.002,0.006,0.002,0.01,0.002l4.135,1.176c0.033-0.845,0.051-4.469-1.849-7.524
		c0.066,0.075,2.191,2.501,2.335,7.663l0.667,0.188c0.114,0.032,0.2,0.128,0.219,0.245c0.405,2.461,0.173,4.181,0.162,4.254
		c-0.002,0.014-0.005,0.027-0.009,0.041C38.21,17.484,38.263,17.5,38.316,17.518z M37.564,17.297
		c0.032-0.275,0.18-1.781-0.135-3.832l-4.681-1.331c0.042,0.793,0.062,2.513-0.39,4.151c-0.005,0.02-0.013,0.039-0.022,0.059
		c0.046,0.006,0.094,0.009,0.139,0.015c1.315,0.15,2.626,0.361,3.92,0.646C36.787,17.096,37.176,17.191,37.564,17.297z
		 M31.769,16.122c0.385-1.402,0.405-2.901,0.377-3.728c-0.31,0.28-0.729,0.641-1.151,0.94c-0.026,0.433-0.146,1.66-0.696,2.812
		c0.49,0.04,0.98,0.084,1.471,0.136C31.755,16.231,31.753,16.176,31.769,16.122z M18.818,16.145
		c-0.549-1.152-0.669-2.377-0.695-2.81c-0.424-0.3-0.843-0.66-1.151-0.94c-0.027,0.828-0.008,2.327,0.377,3.728
		c0.015,0.054,0.014,0.108,0,0.158C17.838,16.229,18.328,16.184,18.818,16.145z M16.78,16.342c-0.009-0.018-0.016-0.037-0.022-0.057
		c-0.45-1.639-0.431-3.358-0.391-4.151l-4.679,1.331c-0.315,2.049-0.168,3.554-0.137,3.831c0.39-0.105,0.778-0.202,1.171-0.293
		c0.646-0.144,1.298-0.263,1.951-0.374c0.654-0.108,1.311-0.191,1.968-0.271C16.688,16.352,16.733,16.348,16.78,16.342z"/>
	<g>
		<path fill="#686969" d="M31.68,19.469c0,0-1.983,2.896-5.115,4.164l0.276-0.675l3.41-3.886L31.68,19.469z"/>
		<path fill="#686969" d="M23.79,19.391c0,0-3.568,0.752-7.257,3.727l-0.198-0.119l5.591-3.965L23.79,19.391z"/>
		<path fill="#686969" d="M3.408,26.646c0,0,4.877-5.075,10.944-6.979l-3.569,0.079C10.783,19.746,3.686,24.742,3.408,26.646z"/>
		<path fill="#525252" d="M19.331,19.36c0,0-8.518,0.702-15.725,7.206l0.336-0.029c0,0,8.5-5.634,15.237-6.32L19.331,19.36z"/>
		<path fill="#525252" d="M16.857,23.024c0,0,4.151-3.267,11.756-4.214l-2.045,1.283C26.568,20.094,19.85,21.62,16.857,23.024z"/>
		<path fill="#525252" d="M26.842,23.544c0,0,5.649-1.679,7.939-3.97l1.923,0.366C36.705,19.94,30.812,23.544,26.842,23.544z"/>
	</g>
	<path fill="#686969" d="M40.688,35.961l-2.175,0.612l-5.667-0.122l-3.545-2.757l-4.284,1.072l-4.956-0.43l-2.775,3.031
		l-5.207,1.556l-2.601-0.806l0.545,0.438c-0.102-0.047-0.202-0.094-0.303-0.14c0.546,0.81,1.244,1.815,1.86,2.604
		c1.075,1.385,2.428,2.662,5.026,2.662c0.326,0,0.671-0.019,1.026-0.06c2.643-0.299,3.321-0.419,3.688-0.481
		c0.124-0.023,0.222-0.039,0.346-0.057c0.021-0.002,2.184-0.281,2.792-1.642c0.625-1.4,0.752-1.733,0.757-1.746l0.221-0.59
		c-0.298,0.412-0.583,0.789-0.91,1.193c-0.385,0.465-0.771,0.932-1.219,1.355c-0.057,0.054-0.115,0.104-0.178,0.156
		c-0.063,0.049-0.125,0.101-0.211,0.146c-0.162,0.077-0.308,0.11-0.457,0.153c-0.299,0.076-0.597,0.134-0.895,0.188
		c-0.597,0.104-1.193,0.182-1.791,0.253c-1.197,0.127-2.395,0.232-3.607,0.238c-0.15-0.001-0.303-0.004-0.456-0.011
		c-0.154-0.008-0.314-0.026-0.467-0.064c-0.305-0.07-0.592-0.191-0.859-0.343c-0.531-0.31-0.996-0.712-1.374-1.185
		c0.436,0.414,0.924,0.771,1.455,1.023c0.267,0.125,0.545,0.223,0.827,0.27c0.143,0.022,0.281,0.035,0.427,0.035
		c0.146,0,0.296-0.006,0.444-0.013c0.593-0.03,1.189-0.076,1.785-0.134c0.595-0.055,1.191-0.113,1.785-0.185
		c0.594-0.064,1.188-0.14,1.777-0.229c0.295-0.043,0.588-0.093,0.874-0.155c0.141-0.033,0.287-0.07,0.398-0.12
		c0.102-0.049,0.225-0.146,0.333-0.239c0.222-0.189,0.437-0.401,0.647-0.612c0.212-0.211,0.419-0.429,0.626-0.647
		c0.349-0.365,0.648-0.753,0.984-1.129c0.043-0.047,0.087-0.097,0.132-0.145c0,0.001,0,0.001,0.002,0.001l0.004,0.004
		c0.068,0.051,0.14,0.103,0.209,0.155c0.405,0.304,0.825,0.631,1.229,0.914c0.522,0.367,1.05,0.733,1.596,1.039
		c0.137,0.076,0.277,0.147,0.412,0.191c0.018,0.007,0.032,0.01,0.045,0.012c0.011,0.006,0.045,0.012,0.05,0.012
		c0.026,0.004,0.062,0.007,0.097,0.009c0.073,0.001,0.15-0.002,0.226-0.007c0.309-0.021,0.621-0.065,0.935-0.114
		c0.625-0.099,1.25-0.21,1.874-0.335c0.625-0.119,1.247-0.247,1.866-0.385c0.622-0.133,1.242-0.277,1.856-0.434
		c0.306-0.082,0.612-0.158,0.886-0.289c0.278-0.13,0.537-0.308,0.775-0.512c0.48-0.409,0.885-0.917,1.22-1.471
		c-0.264,0.595-0.636,1.141-1.099,1.606c-0.235,0.229-0.498,0.435-0.791,0.593c-0.146,0.082-0.305,0.147-0.457,0.198
		c-0.152,0.056-0.306,0.105-0.459,0.152c-1.23,0.371-2.478,0.649-3.732,0.897c-0.628,0.117-1.257,0.231-1.894,0.314
		c-0.319,0.04-0.637,0.077-0.965,0.091c-0.083,0.003-0.166,0.004-0.252-0.002c-0.044-0.004-0.088-0.008-0.139-0.019
		c-0.036-0.006-0.041-0.008-0.068-0.016c-0.026-0.009-0.047-0.016-0.069-0.022c-0.165-0.065-0.308-0.147-0.45-0.229
		c-0.557-0.343-1.062-0.742-1.562-1.146c-0.398-0.324-0.786-0.659-1.167-1.003l0.363,0.435c0.01,0.011,0.816,0.972,1.804,1.951
		c0.656,0.649,1.45,0.979,2.358,0.979c0.312,0,0.638-0.041,0.968-0.119c0.306-0.074,0.637-0.154,0.977-0.235
		c1.228-0.294,2.619-0.627,3.293-0.815c0.134-0.037,0.281-0.072,0.438-0.107c0.897-0.208,2.128-0.493,2.778-1.799
		c0.471-0.938,1.096-2.142,1.577-3.062C40.518,36.127,40.688,35.961,40.688,35.961z"/>
	<path opacity="0.2" fill="#010101" enable-background="new    " d="M21.694,31.883c0,0,0.112,0.722-0.898,1.031
		c-1.01,0.31-7.408,2.216-8.139,2.112c-0.731-0.104-2.582-1.34-2.582-1.34l-0.449-1.599l2.582,1.392L21.694,31.883z"/>
	<g id="XMLID_5_">
		<polygon fill="#303030" points="29.489,4.328 29.489,8.212 26.737,8.212 26.737,7.078 26.116,7.078 26.116,12.319 27.053,12.319 
			27.053,15.25 22.238,15.25 22.238,12.319 23.172,12.319 23.172,7.078 22.554,7.078 22.554,8.212 19.803,8.212 19.803,4.328 		"/>
	</g>
	<path opacity="0.2" fill="#010101" enable-background="new    " d="M27.426,31.743c0,0-0.08,0.726,0.942,0.99
		c1.022,0.266,7.499,1.893,8.223,1.758c0.726-0.135,2.521-1.451,2.521-1.451l0.379-1.615l-2.519,1.502L27.426,31.743z"/>
	<path opacity="0.2" fill="#010101" enable-background="new    " d="M42.779,30.067c0,0-1.449,1.852-2.881,1.236l-0.46,0.297
		l0.102,0.752l2.148,0.271l0.58-0.341L42.779,30.067z"/>
	<path opacity="0.2" fill="#010101" enable-background="new    " d="M20.364,44c0,0,5.253,2.647,11.2-0.955l-1.91-0.131
		c0,0-4.167,1.649-7.467,0.737L20.364,44z"/>
	<path fill="#525252" d="M39.305,36.459c0,0-0.144,0.56-0.515,1.247c0.001-0.001,0.001-0.003,0.001-0.003
		c-0.335,0.552-0.74,1.06-1.22,1.469c-0.239,0.204-0.498,0.382-0.775,0.513c-0.272,0.131-0.58,0.207-0.886,0.289
		c-0.614,0.154-1.234,0.301-1.856,0.433c-0.619,0.138-1.242,0.266-1.866,0.385c-0.623,0.125-1.249,0.237-1.874,0.335
		c-0.312,0.049-0.626,0.094-0.934,0.115c-0.075,0.004-0.152,0.007-0.226,0.006c-0.034-0.002-0.07-0.004-0.097-0.008
		c-0.004,0-0.04-0.006-0.05-0.012c-0.014-0.002-0.027-0.006-0.045-0.013c-0.135-0.044-0.275-0.114-0.412-0.19
		c-0.546-0.307-1.073-0.674-1.596-1.039c-0.404-0.283-0.824-0.611-1.229-0.914l-0.037,0.05c0.025,0.022,0.053,0.046,0.079,0.069
		c-0.169-0.129-0.274-0.207-0.274-0.207s-0.029,0.037-0.08,0.103l-0.036-0.033c-0.337,0.377-0.636,0.764-0.984,1.129
		c-0.207,0.221-0.414,0.438-0.626,0.647c-0.211,0.211-0.426,0.423-0.647,0.612c-0.108,0.094-0.231,0.19-0.333,0.24
		c-0.111,0.049-0.258,0.086-0.398,0.119c-0.286,0.063-0.579,0.112-0.874,0.155c-0.589,0.091-1.184,0.166-1.777,0.229
		c-0.594,0.071-1.19,0.131-1.785,0.186c-0.596,0.059-1.192,0.104-1.785,0.134c-0.149,0.007-0.298,0.013-0.444,0.013
		c-0.146,0-0.284-0.013-0.427-0.035c-0.282-0.047-0.561-0.145-0.827-0.27c-0.531-0.252-1.019-0.609-1.455-1.023
		c0.059,0.074,0.124,0.143,0.187,0.213c-0.067-0.062-0.123-0.116-0.161-0.158c-0.286-0.311-3.69-3.238-3.69-3.238l1.167,2.855
		c0,0,2.643,2.836,4.119,3.168c1.476,0.334,4.143-0.023,6.144-0.334c2-0.309,3.596-1.022,4.239-2.188
		c0.643-1.168,0.737-1.501,0.737-1.501s1.905,2.691,3.549,3c1.644,0.311,6.524-1.357,6.524-1.357s2.978-0.81,3.5-1.832
		c0.524-1.025,1.905-4.381,1.905-4.381L39.305,36.459z"/>
	<polygon fill="#686969" points="27.463,5.154 25.291,5.154 20.628,5.154 20.628,7.387 21.726,7.387 21.726,6.253 23.999,6.253 
		23.999,13.146 23.063,13.146 23.063,14.426 26.226,14.426 26.226,13.146 25.291,13.146 25.291,6.253 27.563,6.253 27.563,7.387 
		28.662,7.387 28.662,5.154 	"/>
	<path fill="#303030" d="M25.689,39.12l0.362,0.434c0.009,0.01,0.817,0.973,1.804,1.95c0.657,0.651,1.45,0.979,2.358,0.979
		c0.312,0,0.638-0.041,0.967-0.118c0.306-0.075,0.637-0.154,0.978-0.236c1.228-0.293,2.619-0.626,3.293-0.814
		c0.133-0.039,0.282-0.072,0.439-0.108c0.896-0.207,2.128-0.493,2.778-1.799c0.491-0.979,1.151-2.253,1.643-3.185
		c-0.426,0.194-0.871,0.407-1.188,0.573c-0.488,0.257-1.126,0.382-1.952,0.382c-0.49,0-0.973-0.041-1.506-0.09
		c-1.065-0.098-2.871-0.311-2.89-0.312l-0.138-0.016l-0.109-0.088c-0.016-0.011-1.597-1.271-2.875-2.275
		c-0.052-0.043-0.099-0.082-0.142-0.116c-0.136-0.115-0.136-0.115-0.216-0.115c-0.409,0-1.601,0.37-4.211,1.179l-0.16,0.051
		l-0.156-0.06c-0.018-0.005-1.73-0.64-3.782-0.64c-0.168,0-0.335,0.004-0.499,0.012c-0.205,0.011-1.359,0.559-2.834,2.893
		l-0.095,0.149l-0.169,0.056c-0.025,0.008-2.564,0.826-5.257,1.596l-0.175,0.051l-0.165-0.077c-0.017-0.006-1.07-0.495-2.073-0.955
		c0.547,0.808,1.245,1.814,1.86,2.604c1.075,1.384,2.429,2.662,5.026,2.662c0.326,0,0.672-0.021,1.026-0.061
		c2.643-0.299,3.322-0.42,3.688-0.482c0.124-0.021,0.222-0.039,0.348-0.055c0.021-0.002,2.184-0.281,2.79-1.645
		c0.625-1.398,0.752-1.732,0.757-1.745l0.221-0.589l-0.061-0.057c0.043-0.047,0.087-0.097,0.132-0.145c0,0.002,0,0.002,0.001,0.002
		l0.005,0.004c0.069,0.05,0.14,0.102,0.209,0.154L25.689,39.12z M9.237,12.707c-0.574,0.231-1.144,0.47-1.701,0.732
		c-0.559,0.255-1.107,0.528-1.632,0.834c-0.484,0.279-0.948,0.585-1.358,0.93c-0.018,0.104-0.033,0.218-0.048,0.325
		c-0.017,0.152-0.036,0.304-0.047,0.458c-0.028,0.308-0.038,0.616-0.042,0.926c-0.006,0.618,0.037,1.237,0.114,1.85
		c0.085,0.615,0.197,1.225,0.364,1.814c0.083,0.295,0.175,0.587,0.283,0.867c0.054,0.143,0.112,0.281,0.175,0.415
		c0.029,0.067,0.061,0.134,0.094,0.197l0.039,0.074c0.046,0.023,0.094,0.048,0.138,0.068l0.275,0.132
		c0.152,0.07,0.364,0.171,0.54,0.249c0.011-0.009,0.02-0.019,0.027-0.026L5.95,20.611c0.108-0.029,1.076-0.279,2.745-0.598
		C8.56,19.989,8.423,19.96,8.29,19.928c-0.379-0.094-0.755-0.211-1.117-0.356c-0.18-0.077-0.357-0.159-0.526-0.256
		c-0.169-0.097-0.335-0.206-0.464-0.353c1.833,0.6,5.619,0.328,8.985-0.02c3.08-0.318,6.165-0.523,9.267-0.531
		c3.102,0.008,6.19,0.213,9.268,0.531c3.369,0.348,7.156,0.619,8.988,0.02c-0.128,0.146-0.295,0.256-0.464,0.353
		c-0.168,0.097-0.348,0.179-0.526,0.256c-0.364,0.146-0.738,0.263-1.118,0.356c-0.055,0.013-0.111,0.026-0.169,0.038
		c1.829,0.339,2.895,0.615,3.007,0.646l-0.486,1.85c0.098-0.044,0.196-0.086,0.293-0.131l0.274-0.132
		c0.045-0.021,0.094-0.045,0.14-0.068l0.038-0.074c0.032-0.063,0.064-0.13,0.095-0.197c0.061-0.134,0.121-0.272,0.175-0.415
		c0.107-0.28,0.201-0.572,0.282-0.867c0.167-0.59,0.28-1.199,0.362-1.814c0.079-0.612,0.121-1.231,0.115-1.85
		c-0.002-0.31-0.014-0.618-0.04-0.926c-0.013-0.154-0.029-0.306-0.048-0.458c-0.013-0.107-0.031-0.221-0.049-0.325
		c-0.41-0.345-0.874-0.65-1.357-0.93c-0.524-0.306-1.072-0.579-1.634-0.834c-0.556-0.263-1.127-0.501-1.701-0.732
		c-0.287-0.115-0.575-0.229-0.866-0.337c-0.289-0.111-0.583-0.218-0.875-0.324c0.614,0.102,1.225,0.242,1.827,0.397
		c0.394,0.101,0.786,0.215,1.174,0.337C38.375,5.56,31.771,0.857,24.559,0.857c-7.212,0-13.817,4.702-16.579,11.923
		c0.388-0.122,0.778-0.236,1.171-0.337c0.604-0.155,1.214-0.296,1.83-0.397c-0.294,0.106-0.586,0.213-0.877,0.324
		C9.814,12.479,9.526,12.592,9.237,12.707z M45.602,16.885c0.032,0.665,0.016,1.331-0.06,1.992c-0.069,0.66-0.194,1.314-0.37,1.963
		c-0.091,0.322-0.195,0.641-0.319,0.957c-0.062,0.158-0.129,0.315-0.203,0.473c-0.036,0.078-0.075,0.154-0.119,0.234l-0.064,0.116
		c-0.024,0.043-0.043,0.074-0.079,0.131l-0.067,0.104l-0.105,0.054c-0.112,0.058-0.205,0.101-0.307,0.149l-0.296,0.132
		c-0.199,0.086-0.398,0.166-0.598,0.244c-0.14,0.055-0.263,0.105-0.38,0.153l-0.328,1.251c-0.009-0.002-0.108-0.027-0.293-0.07
		l-0.019,0.131c0.363,0.188,1.078,0.574,1.321,0.774c0.49,0.405,0.523,1.048,0.416,2.245c-0.057,0.615-0.26,1.812-0.543,2.912
		c-0.489,1.893-0.749,2.115-1.084,2.2c-0.17,0.044-0.433,0.088-0.687,0.088c-0.517,0-1.221,0.015-1.694-0.101
		c-0.122,0.432-0.469,1.553-1.156,2.957c0.034-0.018,0.068-0.031,0.099-0.049c0.849-0.443,2.479-1.154,2.546-1.186l1.287-0.561
		l-0.66,1.24c-0.015,0.027-1.428,2.685-2.294,4.421c-0.858,1.72-2.471,2.095-3.436,2.315c-0.145,0.033-0.283,0.066-0.396,0.098
		c-0.692,0.194-2.094,0.528-3.33,0.826c-0.015,0.004-0.029,0.008-0.045,0.01c-0.76,0.471-1.59,0.889-2.499,1.234
		c-3.322,1.259-6.824,1.188-10,0.021c-0.516,0.065-1.193,0.146-2.097,0.25c-0.393,0.043-0.773,0.066-1.137,0.066
		c-3.025,0-4.629-1.538-5.799-3.041c-1.253-1.611-2.785-4.003-2.852-4.104l-0.888-1.387l1.502,0.676
		c0.719,0.323,2.856,1.313,3.468,1.598c0.049-0.014,0.099-0.029,0.146-0.043c-1.017-1.45-1.851-3.104-2.439-4.936
		c-0.501,0.151-1.271,0.27-1.872,0.27c-0.219,0-0.416-0.018-0.565-0.053c-0.336-0.076-0.719-0.4-1.239-2.233
		c-0.302-1.065-0.528-2.228-0.593-2.826c-0.13-1.168-0.107-1.794,0.378-2.196c0.293-0.246,1.279-0.764,1.483-0.869l-0.044-0.36
		c-3.136,1.844-5.016,3.472-5.054,3.505L0,30.633l1.599-2.521c1.265-1.995,2.725-3.61,4.068-4.854
		c-0.056-0.021-0.107-0.045-0.162-0.066l-0.296-0.133c-0.102-0.048-0.193-0.092-0.306-0.149l-0.105-0.054L4.73,22.751
		c-0.038-0.057-0.055-0.088-0.079-0.131l-0.067-0.116c-0.041-0.08-0.082-0.156-0.118-0.234c-0.073-0.157-0.142-0.314-0.202-0.473
		c-0.125-0.316-0.23-0.635-0.32-0.957c-0.176-0.648-0.3-1.303-0.37-1.963c-0.073-0.661-0.092-1.327-0.059-1.992
		c0.017-0.331,0.049-0.663,0.095-0.992c0.023-0.166,0.048-0.332,0.082-0.495c0.034-0.168,0.066-0.324,0.118-0.507l0.035-0.129
		l0.092-0.072c0.522-0.411,1.088-0.722,1.662-0.996c0.473-0.223,0.955-0.418,1.44-0.597c1.355-3.763,3.687-7.099,6.749-9.423
		C16.956,1.271,20.68,0,24.559,0s7.604,1.271,10.771,3.674c3.063,2.324,5.395,5.66,6.749,9.422c0.486,0.18,0.967,0.374,1.441,0.598
		c0.572,0.274,1.138,0.585,1.661,0.996l0.092,0.072l0.035,0.129c0.052,0.183,0.085,0.339,0.117,0.507
		c0.034,0.163,0.06,0.329,0.082,0.495C45.553,16.221,45.586,16.553,45.602,16.885z M42.866,27.841
		c0.104-1.152,0.013-1.4-0.103-1.494c-0.117-0.1-0.514-0.322-0.899-0.531l-0.633,4.438c-0.014,0.086-0.061,0.164-0.133,0.215
		l-0.907,0.636c-0.072,0.362-0.099,0.535-0.188,0.891c0.518,0.12,1.369,0.214,1.773,0.135C42.146,31.73,42.74,29.253,42.866,27.841z
		 M41.689,23.815l0.679-2.575c-0.984-0.223-2.799-0.597-5.269-0.946c-1.262,0.907-2.643,1.632-3.999,2.21
		C37.251,22.908,40.301,23.51,41.689,23.815z M40.622,30.026l0.772-5.398c-0.345-0.074-0.783-0.167-1.308-0.268l-0.697,4.887
		c-0.014,0.086-0.061,0.165-0.132,0.216l-2.615,1.829c-0.062,0.044-0.141,0.064-0.217,0.057l-7.886-0.896
		c-0.126-0.014-0.231-0.101-0.268-0.223l-1.42-4.676c-0.38-0.098-1.356-0.326-2.211-0.326c-0.859,0-1.834,0.229-2.215,0.326
		l-1.421,4.676c-0.024,0.082-0.082,0.148-0.155,0.188c-0.023,0.015-0.051,0.023-0.078,0.028L12.885,32.2
		c-0.025,0.005-0.046,0.008-0.069,0.008c-0.064,0-0.127-0.02-0.182-0.059l-2.615-1.83c-0.073-0.051-0.122-0.133-0.134-0.221
		L9.181,24.38c-0.293,0.057-0.559,0.11-0.794,0.16c-0.167,0.093-0.333,0.186-0.496,0.275l0.749,6.061l3.802,2.662l9.591-2.133
		l1.415-4.665c0.036-0.117,0.134-0.203,0.253-0.223c0.359-0.059,0.673-0.086,0.939-0.086c0.263,0,0.577,0.027,0.936,0.086
		c0.121,0.02,0.219,0.104,0.253,0.223l1.452,4.779l9.644,1.098L40.622,30.026z M38.781,29.021l0.683-4.776
		c-1.925-0.353-4.739-0.774-8.188-1.039c-3.113,1.073-5.72,1.393-5.877,1.403l-0.183,0.013c0.993,0.086,1.929,0.352,1.976,0.366
		c0.102,0.031,0.183,0.109,0.215,0.214l1.411,4.646l7.559,0.858L38.781,29.021z M39.306,31.724l-0.32,0.225l-0.862,0.604
		l-0.934,0.654c-0.064,0.044-0.143,0.064-0.217,0.057l-9.294-1.058l-0.678-0.076c-0.125-0.015-0.229-0.103-0.267-0.226l-1.455-4.788
		c-0.243-0.032-0.459-0.05-0.641-0.05c-0.185,0-0.4,0.018-0.643,0.05l-1.413,4.651c-0.033,0.107-0.123,0.19-0.233,0.215
		l-9.907,2.207c-0.024,0.004-0.047,0.008-0.069,0.008c-0.063,0-0.128-0.021-0.182-0.059l-0.36-0.25l-1.078-0.756V33.13l-0.436-0.304
		c0.031,0.098,0.065,0.194,0.101,0.289l-0.001,0.002c0.083,0.248,0.918,2.649,2.615,5.001c1.817-0.535,3.389-1.034,3.891-1.193
		c1.024-1.576,2.481-3.143,3.518-3.195c0.178-0.01,0.364-0.016,0.548-0.016c0.506,0,0.99,0.037,1.438,0.09
		c-0.381-0.346-0.459-0.752-0.515-0.932c0,0,1.321,1.033,3.004,0.816c1.684-0.217,2.728-1.188,2.728-1.188s-0.005,0.708-0.738,1.256
		c1.41-0.427,1.993-0.572,2.393-0.572c0.44,0,0.657,0.185,0.849,0.347c0.037,0.028,0.073,0.062,0.115,0.095
		c1.084,0.854,2.388,1.891,2.769,2.193c0.442,0.052,1.842,0.212,2.725,0.293c0.509,0.046,0.969,0.085,1.417,0.085
		c0.146,0,0.281-0.007,0.41-0.015c0.583-1.113,1.108-2.375,1.554-3.799C39.196,32.166,39.254,31.944,39.306,31.724z M35.877,19.955
		c-0.002-0.001-0.004-0.002-0.007-0.002c-0.747-0.057-1.492-0.107-2.242-0.149c-1.039-0.059-2.078-0.108-3.116-0.152
		c-0.061,0.09-0.184,0.268-0.359,0.509c-0.565,0.765-1.687,2.168-3.125,3.359c2.036-0.365,5.566-1.269,8.622-3.4
		C35.726,20.065,35.801,20.008,35.877,19.955z M29.062,20.166c0.086-0.107,0.167-0.211,0.237-0.306
		c-0.749,0.075-1.484,0.185-2.206,0.321c-2.467,0.462-4.744,1.229-6.64,2.016c1.343-0.064,2.755-0.104,4.229-0.104
		c0.891,0,1.758,0.016,2.601,0.04C28.01,21.437,28.622,20.724,29.062,20.166z M29.881,43.451c-1.026-0.075-1.961-0.503-2.715-1.249
		c-0.039-0.04-0.076-0.078-0.114-0.117c-0.364,0.073-0.733,0.128-1.112,0.16c-0.16,0.007-0.312,0.021-0.478,0.021l-0.247,0.002
		l-0.094-0.002c-1.002,1.49-3.229,1.781-3.332,1.795c-0.092,0.01-0.167,0.022-0.271,0.043c1.24,0.34,2.508,0.486,3.758,0.402
		C26.527,44.423,28.154,44.151,29.881,43.451z M25.912,41.749c0.241-0.02,0.483-0.05,0.727-0.085
		c-0.315-0.329-0.595-0.634-0.814-0.88c-0.107,0.246-0.25,0.57-0.438,0.988h0.056C25.592,41.772,25.756,41.757,25.912,41.749z
		 M25.147,23.814c0.417-0.252,0.816-0.539,1.196-0.848c-0.545-0.009-1.097-0.017-1.659-0.017c-2.312,0-4.473,0.096-6.431,0.243
		c-1.963,0.959-3.165,1.75-3.191,1.77l-1.887,1.258l1.296-1.857c0.214-0.311,0.439-0.604,0.674-0.881
		c-2.175,0.244-3.986,0.531-5.339,0.781l0.692,5.617l2.384,1.67l7.569-1.683l1.417-4.667c0.024-0.077,0.076-0.143,0.144-0.182
		c0.021-0.016,0.046-0.025,0.071-0.031c0.043-0.012,0.801-0.229,1.674-0.334L25.147,23.814z M26.018,19.529
		c-0.527-0.009-1.056-0.014-1.582-0.016h-0.001c-0.773,0.002-1.548,0.011-2.324,0.025l-1.43,0.678
		c-0.001,0.001-0.01,0.005-0.021,0.012c-0.215,0.104-2.093,1.052-3.859,2.741c1.583-0.831,3.911-1.92,6.65-2.763
		C24.271,19.955,25.131,19.724,26.018,19.529z M16.023,22.527c0.742-0.736,1.507-1.343,2.182-1.818c-2.603,0.605-5,1.493-7.1,2.459
		C12.472,22.947,14.126,22.717,16.023,22.527z M16.516,20.258c0.873-0.245,1.771-0.459,2.693-0.638
		c-1.321,0.048-2.646,0.109-3.967,0.184c-0.768,0.042-1.531,0.095-2.295,0.153c-0.382,0.028-0.763,0.06-1.142,0.101
		c-0.108,0.011-0.216,0.022-0.323,0.036c-0.997,0.597-4.819,2.996-7.443,6.134C6.589,24.455,11.031,21.792,16.516,20.258z
		 M9.479,32.619c-0.05-0.158-0.098-0.318-0.143-0.479L8.16,31.315c-0.075-0.053-0.122-0.131-0.134-0.222l-0.574-4.663
		c-0.425,0.228-0.917,0.508-1.047,0.616c-0.113,0.095-0.2,0.333-0.077,1.444c0.152,1.371,0.847,3.953,1.22,4.33
		C7.998,32.899,8.992,32.763,9.479,32.619z M8.609,20.905c-0.665,0.128-1.207,0.244-1.608,0.335l0.189,0.713
		C7.718,21.532,8.201,21.184,8.609,20.905z"/>
</g>
</svg>
