<svg xmlns="http://www.w3.org/2000/svg" viewBox="0 0 480.244 129.874">
  <path fill="#100E0F" d="M94.382 57.474v61.537c0 .36-.06 1.13-.61 1.43 0 0-13.394 9.44-35.47 9.44C31.64 129.88 0 121.67 0 66.56 0 11.462 27.635 0 54.576 0c23.386 0 32.643 5.18 34.16 6.262.556.398.72.985.72 1.473l-4.5 19.064c0 1.04-1.087 2.21-2.26 1.85-3.737-1.16-9.61-3.56-23.24-3.56-15.745 0-32.517 4.66-32.517 40.08s16.1 39.63 27.63 39.63c9.77 0 13.31-1.21 13.31-1.21v-24.5H52.14c-1.04 0-1.885-.85-1.885-1.89V57.47c0-1.04.845-1.886 1.886-1.886H92.5c1.04 0 1.885.846 1.885 1.887zM300.475 6.602c0-1.05-.832-1.897-1.873-1.897H275.88c-1.04 0-1.883.847-1.883 1.897l.006 43.913h-35.42V6.602c0-1.05-.835-1.897-1.874-1.897h-22.73c-1.04 0-1.88.847-1.88 1.897v118.903c0 1.05.84 1.902 1.87 1.902h22.73c1.034 0 1.87-.854 1.87-1.902v-50.86H274l-.063 50.86c0 1.05.843 1.902 1.882 1.902h22.78c1.04 0 1.87-.854 1.87-1.902V6.602zm-165.1 15.603c0-8.182-6.56-14.793-14.652-14.793-8.085 0-14.65 6.612-14.65 14.793 0 8.174 6.565 14.804 14.65 14.804 8.093-.01 14.653-6.64 14.653-14.81zm-1.624 78.218V45.537c0-1.042-.84-1.894-1.88-1.894h-22.65c-1.04 0-1.97 1.072-1.97 2.114v78.635c0 2.31 1.44 2.998 3.31 2.998h20.41c2.24 0 2.79-1.1 2.79-3.035v-23.932zm253.09-56.6h-22.55c-1.03 0-1.87.852-1.87 1.9v58.302s-5.73 4.19-13.86 4.19c-8.13 0-10.282-3.688-10.282-11.65v-50.84c0-1.05-.84-1.9-1.874-1.9h-22.9c-1.032 0-1.88.85-1.88 1.9v54.69c0 23.647 13.18 29.433 31.31 29.433 14.874 0 26.866-8.217 26.866-8.217s.57 4.33.83 4.85c.257.51.93 1.03 1.657 1.03l14.56-.06c1.032 0 1.878-.85 1.878-1.9V45.73c0-1.05-.84-1.9-1.88-1.9zm93.41 38.767c0 36.65-11.87 47.16-32.58 47.16-17.64 0-26.95-8.83-26.95-8.83s-.57 4.844-.96 5.48c-.4.644-.94 1.01-1.65 1.01H402.3c-1.04 0-1.88-.853-1.88-1.9V6.6c0-1.05.84-1.897 1.875-1.897h22.788c1.037 0 1.876.847 1.876 1.897v40.263s8.71-5.714 21.514-5.714c12.817 0 31.784 4.79 31.784 41.44zm-26.2 1.43c0-19.37-7.82-21.82-15.94-21.093-6.42.575-11.65 3.782-11.65 3.782v37.65s5.306 3.55 13.127 3.79c10.94.33 14.47-3.7 14.47-24.13zM199.06 43.635h-17.045l-.025-22.518c0-.853-.44-1.278-1.425-1.278h-23.228c-.903 0-1.388.39-1.388 1.26v23.27s-11.64 2.81-12.43 3.04c-.79.23-1.36.95-1.36 1.81v14.63c0 1.05.84 1.9 1.87 1.9h11.91v35.18c0 26.12 18.32 28.69 30.69 28.69 5.65 0 12.41-1.82 13.53-2.23.67-.25 1.06-.95 1.06-1.708l.02-16.08c0-1.05-.887-1.9-1.885-1.9-.993 0-3.534.403-6.15.403-8.37 0-11.21-3.893-11.21-8.93V65.75h17.046c1.04 0 1.88-.85 1.88-1.9V45.53c0-1.05-.84-1.894-1.88-1.894z"/>
</svg>
